M48
METRIC,LZ,000.000
;FILE_FORMAT=3:3
;TYPE=PLATED
;Layer: PTH_Through
;EasyEDA v6.5.47, 2024-09-27 14:37:58
;50ea7e365bea4ea1a0dfe67087e7319b,c4deba93543447318b7234f01b5a2252,10
;Gerber Generator version 0.2
;Holesize 1 = 0.310 mm
T01C0.310
;Holesize 2 = 0.762 mm
T02C0.762
;Holesize 3 = 0.800 mm
T03C0.800
;Holesize 4 = 0.840 mm
T04C0.840
;Holesize 5 = 0.850 mm
T05C0.850
;Holesize 6 = 0.914 mm
T06C0.914
;Holesize 7 = 0.915 mm
T07C0.915
;Holesize 8 = 0.925 mm
T08C0.925
;Holesize 9 = 0.951 mm
T09C0.951
;Holesize 10 = 1.016 mm
T10C1.016
;Holesize 11 = 1.022 mm
T11C1.022
;Holesize 12 = 1.270 mm
T12C1.270
;Holesize 13 = 3.000 mm
T13C3.000
%
G05
G90
T01
X043180Y031750
X028829Y000000
X045847Y027686
X042926Y027686
X057277Y029083
X058547Y028829
X055499Y046990
X041402Y-019558
X043815Y012573
X077089Y-017399
X050419Y-005715
X040513Y012573
X038481Y015875
X017907Y034417
X026162Y-020574
X079883Y-022460
T02
X058547Y010541
X061087Y010541
X063627Y010541
X066167Y010541
X068707Y010541
X063627Y008001
T03
X091313Y-007620
X093853Y-007620
X091186Y-002413
X093726Y-002413
T04
X022479Y-006604
X030099Y-006604
X022479Y-009144
X030099Y-009144
X022479Y-011684
X030099Y-011684
T05
X047289Y026146
X049289Y024146
X049289Y026146
X045289Y026146
X047289Y024146
X045289Y024146
T06
X077089Y006268
X078359Y002345G85X078359Y002391
X079629Y006245G85X079629Y006291
X080899Y002345G85X080899Y002391
X082169Y006245G85X082169Y006291
X083439Y002345G85X083439Y002391
X084709Y006245G85X084709Y006291
X064548Y016891
X066548Y016891
X068548Y016891
X099060Y000000
X099060Y007620
X079741Y-000762
X082281Y-000762
X074761Y-000762
X077201Y-000762
X072121Y-000762
T07
X062484Y024130
X070104Y024130
X041402Y-031242
X041402Y-023622
X067183Y-023495
X074803Y-023495
X035687Y-031242
X035687Y-023622
X067183Y-029337
X074803Y-029337
X089535Y004318
X089535Y006858
X026000Y034000
X023460Y034000
X020920Y034000
X051816Y051181
X051816Y048641
X051816Y046101
X095000Y034000
X092460Y034000
X089920Y034000
X095000Y-015000
X092460Y-015000
X089920Y-015000
X026000Y-015000
X023460Y-015000
X020920Y-015000
X023864Y003600
X023864Y006140
X023737Y008680
X023864Y011220
X023864Y013760
X023864Y016300
X023864Y018840
X023864Y021380
X023864Y023920
X014212Y003600
X014212Y006140
X014085Y008680
X014212Y011220
X014212Y013760
X014212Y016300
X014212Y018840
X014212Y021380
X014212Y023920
T08
X100076Y-011491
X100076Y-003241
T09
X036449Y-019304
X036449Y-014224
X036449Y-011684
X036449Y-016764
X036449Y-009144
X051689Y-016764
X051689Y-019304
X036449Y-006604
X038989Y-006604
X041529Y-006604
X044069Y-006604
X046609Y-006604
X049149Y-006604
X051689Y-006604
X051689Y-009144
X051689Y-011684
X051689Y-014224
X036449Y-004064
X036449Y001016
X036449Y003556
X036449Y006096
X036449Y008636
X036449Y011176
X036449Y013716
X036449Y016256
X036449Y018796
X036449Y021336
X036449Y023876
X036449Y026416
X036449Y028956
X036449Y031496
X036449Y034036
X036449Y036576
X036449Y039116
X051689Y039116
X051689Y036576
X051689Y034036
X051689Y031496
X051689Y028956
X051689Y026416
X051689Y023876
X051689Y021336
X051689Y018796
X051689Y016256
X051689Y013716
X051689Y011176
X051689Y008636
X051689Y006096
X051689Y003556
X051689Y001016
X051689Y-004064
X049149Y036576
X051689Y-001524
X036449Y-001524
X042799Y038506
X045339Y038506
X039449Y032766
X039449Y030226
X039449Y027686
X039449Y025146
X039449Y022606
X033020Y008636
X033020Y011176
X033020Y013716
X033020Y016256
X033020Y018796
X033020Y021336
X033020Y023876
X033020Y026416
X033020Y028956
X033020Y031496
X033020Y034036
X033020Y036576
X033020Y039116
X033020Y006096
X033020Y003556
X033020Y001016
X033020Y-001524
X033020Y-004064
X033020Y-006604
X033020Y-009144
X033020Y-011684
X033020Y-014224
X033020Y-016764
X033020Y-019304
X055118Y036576
X055118Y034036
X055118Y031496
X055118Y028956
X055118Y026416
X055118Y023876
X055118Y021336
X055118Y018796
X055118Y016256
X055118Y013716
X055118Y011176
X055118Y008636
X055118Y006096
X055118Y003556
X055118Y001016
X055118Y-001524
X055118Y-004064
X055118Y-006604
X055118Y-009144
X055118Y-011684
X055118Y-014224
X055118Y-016764
X055118Y-019304
X055118Y039243
T10
X031000Y042460
X031000Y045000
X031000Y047540
X085000Y042460
X085000Y045000
X085000Y047540
X085000Y-027540
X085000Y-025000
X085000Y-022460
X031000Y-027540
X031000Y-025000
X031000Y-022460
X046352Y-022606G85X046358Y-022606
X046352Y-025146G85X046358Y-025146
X046352Y-027686G85X046358Y-027686
X061592Y-022606G85X061598Y-022606
X061592Y-025146G85X061598Y-025146
X061592Y-027686G85X061598Y-027686
T11
X059309Y050800
X059309Y048260
X059309Y045720
X059309Y043180
X059309Y040640
X059309Y038100
X059309Y035560
X059309Y033020
T12
X022000Y040000
X022000Y050160
X022000Y-030000
X022000Y-019840
X095000Y040000
X095000Y050160
X095000Y-030000
X095000Y-019840
T13
X096647Y013970
X096647Y024130
M30
