G04 Layer: TopSolderMaskLayer*
G04 EasyEDA v6.5.47, 2024-09-27 14:37:58*
G04 50ea7e365bea4ea1a0dfe67087e7319b,c4deba93543447318b7234f01b5a2252,10*
G04 Gerber Generator version 0.2*
G04 Scale: 100 percent, Rotated: No, Reflected: No *
G04 Dimensions in millimeters *
G04 leading zeros omitted , absolute positions ,4 integer and 5 decimal *
%FSLAX45Y45*%
%MOMM*%

%AMMACRO1*4,1,8,-0.8587,-0.9182,-0.9182,-0.8587,-0.9182,0.8587,-0.8587,0.9182,0.8587,0.9182,0.9182,0.8587,0.9182,-0.8587,0.8587,-0.9182,-0.8587,-0.9182,0*%
%AMMACRO2*4,1,8,-7.0211,-7.0508,-7.0508,-7.021,-7.0508,7.0211,-7.0211,7.0508,7.021,7.0508,7.0508,7.0211,7.0508,-7.021,7.021,-7.0508,-7.0211,-7.0508,0*%
%AMMACRO3*4,1,8,-0.7831,-0.8128,-0.8128,-0.783,-0.8128,0.7831,-0.7831,0.8128,0.783,0.8128,0.8128,0.7831,0.8128,-0.783,0.783,-0.8128,-0.7831,-0.8128,0*%
%ADD10MACRO1*%
%ADD11C,1.8364*%
%ADD12C,1.6256*%
%ADD13C,1.8532*%
%ADD14C,1.9812*%
%ADD15C,4.2032*%
%ADD16C,6.2032*%
%ADD17MACRO2*%
%ADD18MACRO3*%
%ADD19C,1.7272*%
%ADD20C,1.6032*%
%ADD21C,1.6260*%
%ADD22C,1.3616*%
%ADD23O,3.2031940000000003X1.703197*%
%ADD24O,0.0194X1.703197*%

%LPD*%
D10*
G01*
X5930900Y5080000D03*
D11*
G01*
X5930900Y4826000D03*
G01*
X5930900Y4572000D03*
G01*
X5930900Y4318000D03*
G01*
X5930900Y4064000D03*
G01*
X5930900Y3810000D03*
G01*
X5930900Y3556000D03*
G01*
X5930900Y3302000D03*
D12*
G01*
X6248400Y2413000D03*
G01*
X7010400Y2413000D03*
D13*
G01*
X9131300Y-762000D03*
G01*
X9385300Y-762000D03*
G01*
X9118600Y-241300D03*
G01*
X9372600Y-241300D03*
D14*
G01*
X3099993Y4245990D03*
G01*
X3099993Y4499990D03*
G01*
X3099993Y4753990D03*
G01*
X8499983Y4245990D03*
G01*
X8499983Y4499990D03*
G01*
X8499983Y4753990D03*
G01*
X8499983Y-2753995D03*
G01*
X8499983Y-2499995D03*
G01*
X8499983Y-2245995D03*
G01*
X3099993Y-2753995D03*
G01*
X3099993Y-2499995D03*
G01*
X3099993Y-2245995D03*
D12*
G01*
X4140200Y-3124200D03*
G01*
X4140200Y-2362200D03*
G01*
X6718300Y-2349500D03*
G01*
X7480300Y-2349500D03*
G01*
X3568700Y-3124200D03*
G01*
X3568700Y-2362200D03*
G01*
X6718300Y-2933700D03*
G01*
X7480300Y-2933700D03*
G01*
X8953500Y431800D03*
G01*
X8953500Y685800D03*
G01*
X2599994Y3399993D03*
G01*
X2345994Y3399993D03*
G01*
X2091994Y3399993D03*
G01*
X5181600Y5118100D03*
G01*
X5181600Y4864100D03*
G01*
X5181600Y4610100D03*
G01*
X9499981Y3399993D03*
G01*
X9245981Y3399993D03*
G01*
X8991981Y3399993D03*
G01*
X9499981Y-1499996D03*
G01*
X9245981Y-1499996D03*
G01*
X8991981Y-1499996D03*
G01*
X2599994Y-1499996D03*
G01*
X2345994Y-1499996D03*
G01*
X2091994Y-1499996D03*
D15*
G01*
X2199995Y3999992D03*
G01*
X2199995Y5015992D03*
G01*
X2199995Y-2999994D03*
G01*
X2199995Y-1983994D03*
G01*
X9499981Y3999992D03*
G01*
X9499981Y5015992D03*
G01*
X9499981Y-2999994D03*
G01*
X9499981Y-1983994D03*
D16*
G01*
X9664700Y1397000D03*
G01*
X9664700Y2413000D03*
D17*
G01*
X8089901Y2159000D03*
D18*
G01*
X7708889Y626811D03*
D12*
G01*
X7835900Y236804D03*
G01*
X7962900Y626821D03*
G01*
X8089900Y236804D03*
G01*
X8216900Y626821D03*
G01*
X8343900Y236804D03*
G01*
X8470900Y626821D03*
G01*
X10007600Y-1149095D03*
G01*
X10007600Y-324104D03*
D19*
G01*
X6454800Y1689100D03*
G01*
X6654800Y1689100D03*
G01*
X6854799Y1689100D03*
D12*
G01*
X9906000Y0D03*
G01*
X9906000Y762000D03*
D19*
G01*
X3644900Y-1930400D03*
G01*
X3644900Y-1422400D03*
G01*
X3644900Y-1168400D03*
G01*
X3644900Y-1676400D03*
G01*
X3644900Y-914400D03*
G01*
X5168900Y-1676400D03*
G01*
X5168900Y-1930400D03*
G01*
X3644900Y-660400D03*
G01*
X3898900Y-660400D03*
G01*
X4152900Y-660400D03*
G01*
X4406900Y-660400D03*
G01*
X4660900Y-660400D03*
G01*
X4914900Y-660400D03*
G01*
X5168900Y-660400D03*
G01*
X5168900Y-914400D03*
G01*
X5168900Y-1168400D03*
G01*
X5168900Y-1422400D03*
G01*
X3644900Y-406400D03*
G01*
X3644900Y101600D03*
G01*
X3644900Y355600D03*
G01*
X3644900Y609600D03*
G01*
X3644900Y863600D03*
G01*
X3644900Y1117600D03*
G01*
X3644900Y1371600D03*
G01*
X3644900Y1625600D03*
G01*
X3644900Y1879600D03*
G01*
X3644900Y2133600D03*
G01*
X3644900Y2387600D03*
G01*
X3644900Y2641600D03*
G01*
X3644900Y2895600D03*
G01*
X3644900Y3149600D03*
G01*
X3644900Y3403600D03*
G01*
X3644900Y3657600D03*
G01*
X3644900Y3911600D03*
G01*
X5168900Y3911600D03*
G01*
X5168900Y3657600D03*
G01*
X5168900Y3403600D03*
G01*
X5168900Y3149600D03*
G01*
X5168900Y2895600D03*
G01*
X5168900Y2641600D03*
G01*
X5168900Y2387600D03*
G01*
X5168900Y2133600D03*
G01*
X5168900Y1879600D03*
G01*
X5168900Y1625600D03*
G01*
X5168900Y1371600D03*
G01*
X5168900Y1117600D03*
G01*
X5168900Y863600D03*
G01*
X5168900Y609600D03*
G01*
X5168900Y355600D03*
G01*
X5168900Y101600D03*
G01*
X5168900Y-406400D03*
G01*
X4914900Y3657600D03*
D20*
G01*
X4728895Y2614599D03*
G01*
X4928895Y2414600D03*
G01*
X4928895Y2614599D03*
D19*
G01*
X5168900Y-152400D03*
G01*
X3644900Y-152400D03*
G01*
X4279900Y3850589D03*
G01*
X4533900Y3850589D03*
G01*
X3944899Y3276600D03*
G01*
X3944899Y3022600D03*
G01*
X3944899Y2768600D03*
G01*
X3944899Y2514600D03*
G01*
X3944899Y2260600D03*
D20*
G01*
X4528896Y2614599D03*
G01*
X4728895Y2414600D03*
G01*
X4528896Y2414600D03*
D12*
G01*
X5854700Y1054100D03*
G01*
X6108700Y1054100D03*
G01*
X6362700Y1054100D03*
G01*
X6616700Y1054100D03*
G01*
X6870700Y1054100D03*
D19*
G01*
X6362700Y800100D03*
D21*
G01*
X7974101Y-76200D03*
G01*
X8228101Y-76200D03*
G01*
X7476109Y-76200D03*
G01*
X7720101Y-76200D03*
G01*
X7212101Y-76200D03*
D22*
G01*
X2247900Y-660400D03*
G01*
X3009900Y-660400D03*
G01*
X2247900Y-914400D03*
G01*
X3009900Y-914400D03*
G01*
X2247900Y-1168400D03*
G01*
X3009900Y-1168400D03*
D12*
G01*
X2386406Y359994D03*
G01*
X2386406Y613994D03*
G01*
X2373706Y867994D03*
G01*
X2386406Y1121994D03*
G01*
X2386406Y1375994D03*
G01*
X2386406Y1629994D03*
G01*
X2386406Y1883994D03*
G01*
X2386406Y2137994D03*
G01*
X2386406Y2391994D03*
G01*
X1421206Y359994D03*
G01*
X1421206Y613994D03*
G01*
X1408506Y867994D03*
G01*
X1421206Y1121994D03*
G01*
X1421206Y1375994D03*
G01*
X1421206Y1629994D03*
G01*
X1421206Y1883994D03*
G01*
X1421206Y2137994D03*
G01*
X1421206Y2391994D03*
D14*
G01*
X4635500Y-2260600D03*
G01*
X4635500Y-2514600D03*
G01*
X4635500Y-2768600D03*
G01*
X6159500Y-2260600D03*
G01*
X6159500Y-2514600D03*
G01*
X6159500Y-2768600D03*
D23*
G01*
X3302000Y863600D03*
G01*
X3302000Y1117600D03*
G01*
X3302000Y1371600D03*
G01*
X3302000Y1625600D03*
G01*
X3302000Y1879600D03*
G01*
X3302000Y2133600D03*
G01*
X3302000Y2387600D03*
G01*
X3302000Y2641600D03*
G01*
X3302000Y2895600D03*
G01*
X3302000Y3149600D03*
G01*
X3302000Y3403600D03*
G01*
X3302000Y3657600D03*
G01*
X3302000Y3911600D03*
G01*
X3302000Y609600D03*
G01*
X3302000Y355600D03*
G01*
X3302000Y101600D03*
G01*
X3302000Y-152400D03*
G01*
X3302000Y-406400D03*
G01*
X3302000Y-660400D03*
G01*
X3302000Y-914400D03*
G01*
X3302000Y-1168400D03*
G01*
X3302000Y-1422400D03*
G01*
X3302000Y-1676400D03*
G01*
X3302000Y-1930400D03*
G01*
X5511800Y3657600D03*
G01*
X5511800Y3403600D03*
G01*
X5511800Y3149600D03*
G01*
X5511800Y2895600D03*
G01*
X5511800Y2641600D03*
G01*
X5511800Y2387600D03*
G01*
X5511800Y2133600D03*
G01*
X5511800Y1879600D03*
G01*
X5511800Y1625600D03*
G01*
X5511800Y1371600D03*
G01*
X5511800Y1117600D03*
G01*
X5511800Y863600D03*
G01*
X5511800Y609600D03*
G01*
X5511800Y355600D03*
G01*
X5511800Y101600D03*
G01*
X5511800Y-152400D03*
G01*
X5511800Y-406400D03*
G01*
X5511800Y-660400D03*
G01*
X5511800Y-914400D03*
G01*
X5511800Y-1168400D03*
G01*
X5511800Y-1422400D03*
G01*
X5511800Y-1676400D03*
G01*
X5511800Y-1930400D03*
G01*
X5511800Y3924300D03*
M02*
