G04 Layer: BottomLayer*
G04 EasyEDA v6.5.47, 2024-09-27 14:37:58*
G04 50ea7e365bea4ea1a0dfe67087e7319b,c4deba93543447318b7234f01b5a2252,10*
G04 Gerber Generator version 0.2*
G04 Scale: 100 percent, Rotated: No, Reflected: No *
G04 Dimensions in millimeters *
G04 leading zeros omitted , absolute positions ,4 integer and 5 decimal *
%FSLAX45Y45*%
%MOMM*%

%ADD10C,0.5000*%
%ADD11C,2.0000*%
%ADD12C,5.0000*%
%ADD13R,1.6332X1.6332*%
%ADD14C,1.6332*%
%ADD15C,1.5240*%
%ADD16C,1.6500*%
%ADD17C,1.8796*%
%ADD18C,4.0000*%
%ADD19C,6.0000*%
%ADD20R,1.5240X1.5240*%
%ADD21C,1.4000*%
%ADD22C,1.2600*%
%ADD23O,2.999994X1.499997*%
%ADD24C,0.6200*%
%ADD25C,0.0167*%

%LPD*%
D10*
X6362700Y1054100D02*
G01*
X6616700Y1308100D01*
X6311900Y1308100D01*
X6045200Y1574800D01*
X6045200Y1841500D01*
X6096000Y1892300D01*
X6172200Y1892300D01*
X7200900Y2921000D01*
X9020987Y2921000D01*
X9499981Y3399993D01*
X9499981Y-1499996D02*
G01*
X8753983Y-2245995D01*
X8499983Y-2245995D01*
X5511800Y3657600D02*
G01*
X5791200Y3657600D01*
X5816600Y3683000D01*
X6033770Y3683000D01*
X6096000Y3745229D01*
X6096000Y4660900D01*
X5930900Y4826000D01*
X7480300Y-2349500D02*
G01*
X8051800Y-2921000D01*
X8851900Y-2921000D01*
X9194800Y-2578100D01*
X9423400Y-2578100D01*
X9436100Y-2565400D01*
X9817100Y-2565400D01*
X10058400Y-2324100D01*
X10058400Y-1612900D01*
X9779000Y-1333500D01*
X9779000Y-571500D01*
X9448800Y-571500D01*
X9118600Y-241300D01*
X10007600Y-1149095D02*
G01*
X10172700Y-983995D01*
X10172700Y520700D01*
X9931400Y762000D01*
X9906000Y762000D01*
X6718300Y-2933700D02*
G01*
X7213600Y-2933700D01*
X7366000Y-2781300D01*
X7556500Y-2781300D01*
X7899400Y-3124200D01*
X7924800Y-3124200D01*
X8013700Y-3035300D01*
X9131300Y-3035300D01*
X9131300Y-2857500D01*
X9309100Y-2679700D01*
X9867900Y-2679700D01*
X10172700Y-2374900D01*
X10172700Y-1536700D01*
X10007600Y-1371600D01*
X10007600Y-1149095D01*
D11*
X9499981Y-2999994D02*
G01*
X9197975Y-3302000D01*
X7721600Y-3302000D01*
X7480300Y-3060700D01*
X7480300Y-2933700D01*
D10*
X3302000Y1879600D02*
G01*
X3060700Y2120900D01*
X3060700Y2489200D01*
X3099993Y2528493D01*
X3099993Y4245990D01*
X3099993Y-2753995D02*
G01*
X2959100Y-2613101D01*
X2959100Y-2514600D01*
X2882900Y-2438400D01*
X2882900Y-1244600D01*
X2895600Y-1231900D01*
X2895600Y-317500D01*
X3073400Y-139700D01*
X3073400Y977900D01*
X3213100Y1117600D01*
X3302000Y1117600D01*
X2882900Y0D02*
G01*
X2641600Y241300D01*
X2641600Y825500D01*
X2386406Y1080693D01*
X2386406Y1121994D01*
X4318000Y3175000D02*
G01*
X4546600Y3403600D01*
X5168900Y3403600D01*
D11*
X8953500Y431800D02*
G01*
X9118600Y431800D01*
X9664700Y977900D01*
X9664700Y1397000D01*
D12*
X9499981Y3999992D02*
G01*
X9854691Y3999992D01*
X10287000Y4432300D01*
X10287000Y4902200D01*
X9499600Y5689600D01*
X2019300Y5689600D01*
X1676400Y5346700D01*
X1676400Y4523587D01*
X2199995Y3999992D01*
X9499981Y-2999994D02*
G01*
X9499981Y-3390900D01*
X9436100Y-3390900D01*
X9207500Y-3708400D01*
X2743200Y-3695700D01*
X2540000Y-3339998D01*
X2199995Y-2999994D01*
X9664700Y1397000D02*
G01*
X10515600Y1397000D01*
X9499981Y-2999994D02*
G01*
X10083800Y-2999994D01*
X10083800Y-2946400D01*
X10515600Y-2514600D01*
X10515600Y2197100D01*
X9499981Y3999992D02*
G01*
X10096500Y3999992D01*
X10096500Y3975100D01*
X10464800Y3606800D01*
X10464800Y2197100D01*
X9664700Y1397000D01*
D10*
X7010400Y2413000D02*
G01*
X7289800Y2133600D01*
X7289800Y215900D01*
X7391400Y114300D01*
X7404100Y114300D01*
X7454900Y63500D01*
X8813800Y63500D01*
X8928100Y-50800D01*
X8928100Y-635000D01*
X9055100Y-762000D01*
X9131300Y-762000D01*
X4584700Y2768600D02*
G01*
X4292600Y2768600D01*
X5727700Y2908300D02*
G01*
X5715000Y2895600D01*
X5715000Y2286000D01*
X5562600Y2133600D01*
X5511800Y2133600D01*
X5511800Y1879600D02*
G01*
X5854700Y2222500D01*
X5854700Y2882900D01*
X5930900Y4826000D02*
G01*
X5638800Y5118100D01*
X5181600Y5118100D01*
X5549900Y4699000D02*
G01*
X5257800Y4991100D01*
X5029200Y4991100D01*
X4889500Y5130800D01*
X3632200Y5130800D01*
X3454400Y4953000D01*
X3454400Y4191000D01*
X3594100Y4051300D01*
X3746500Y4051300D01*
X3784600Y4013200D01*
X3784600Y3517900D01*
X3670300Y3403600D01*
X3644900Y3403600D01*
X3302000Y3911600D02*
G01*
X3314700Y3924300D01*
X3314700Y5168900D01*
X3365500Y5257800D01*
X3370325Y5257800D01*
X4965700Y5257800D01*
X5105400Y5118100D01*
X5181600Y5118100D01*
X4140200Y-2362200D02*
G01*
X4140200Y-1955800D01*
X8499983Y-2753995D02*
G01*
X8463788Y-2717800D01*
X8026400Y-2717800D01*
X7518400Y-2209800D01*
X7518400Y-571500D01*
X6210300Y736600D01*
X5080000Y736600D01*
X4445000Y1371600D01*
X3644900Y1371600D01*
X6159500Y-2514600D02*
G01*
X6007100Y-2362200D01*
X6007100Y-1955800D01*
X6172200Y-1790700D01*
X6172200Y-889000D01*
X5892800Y-609600D01*
X5892800Y292100D01*
X5575300Y609600D01*
X5511800Y609600D01*
X6718300Y-2349500D02*
G01*
X6464300Y-2603500D01*
X6464300Y-2641600D01*
X6388100Y-2717800D01*
X6388100Y-2882900D01*
X6350000Y-2921000D01*
X6045200Y-2921000D01*
X5715000Y-2590800D01*
X5715000Y-1866900D01*
X5715000Y-533400D01*
X5715000Y-342900D01*
X5651500Y-279400D01*
X5016500Y-279400D01*
X4940300Y-203200D01*
X4940300Y-127000D01*
X4940300Y736600D01*
X4419600Y1257300D01*
X4381500Y1257300D01*
X8991981Y-1499996D02*
G01*
X8752077Y-1739900D01*
X7708900Y-1739900D01*
X5041900Y-571500D02*
G01*
X4940300Y-469900D01*
X4889500Y-419100D01*
X4673600Y-419100D01*
X4660900Y-406400D01*
X4660900Y762000D01*
X4165600Y1257300D01*
X4051300Y1257300D01*
X3848100Y1587500D02*
G01*
X3810000Y1625600D01*
X3810000Y2946400D01*
X3644900Y3111500D01*
X3644900Y3149600D01*
X2599994Y3399993D02*
G01*
X2743200Y3543198D01*
X2743200Y4445000D01*
X3052190Y4753990D01*
X3099993Y4753990D01*
X2599994Y-1499996D02*
G01*
X2616200Y-1516202D01*
X2616200Y-2057400D01*
X9385300Y-762000D02*
G01*
X9131300Y-1016000D01*
X8699500Y-1016000D01*
X7988300Y-304800D01*
X7704709Y-304800D01*
X7476109Y-76200D01*
X5181600Y4610100D02*
G01*
X4699000Y4127500D01*
X4241800Y4127500D01*
X4152900Y4038600D01*
X4152900Y1854200D01*
X5143500Y863600D01*
X5168900Y863600D01*
X1421129Y2137918D02*
G01*
X1764284Y2481071D01*
X1765300Y2476500D01*
X1790700Y3441700D01*
X8499983Y-2245995D02*
G01*
X7988300Y-2245995D01*
X8500109Y4246118D02*
G01*
X8750300Y4496307D01*
X8750300Y4546600D01*
X8724900Y4572000D01*
X8724900Y5092700D01*
X8470900Y5346700D01*
X8077200Y5346700D01*
X8051800Y5372100D01*
X3060700Y5372100D01*
X2489200Y4800600D01*
X2489200Y4178300D01*
X2590800Y4076700D01*
X2590800Y3771900D01*
X2476500Y3657600D01*
X2476500Y2573528D01*
X2609088Y2440686D01*
X2609088Y2153412D01*
X3136900Y1625600D01*
X3302000Y1625600D01*
D13*
G01*
X5930900Y5080000D03*
D14*
G01*
X5930900Y4826000D03*
G01*
X5930900Y4572000D03*
G01*
X5930900Y4318000D03*
G01*
X5930900Y4064000D03*
G01*
X5930900Y3810000D03*
G01*
X5930900Y3556000D03*
G01*
X5930900Y3302000D03*
D15*
G01*
X6248400Y2413000D03*
G01*
X7010400Y2413000D03*
D16*
G01*
X9131300Y-762000D03*
G01*
X9385300Y-762000D03*
G01*
X9118600Y-241300D03*
G01*
X9372600Y-241300D03*
D17*
G01*
X3099993Y4245990D03*
G01*
X3099993Y4499990D03*
G01*
X3099993Y4753990D03*
G01*
X8499983Y4245990D03*
G01*
X8499983Y4499990D03*
G01*
X8499983Y4753990D03*
G01*
X8499983Y-2753995D03*
G01*
X8499983Y-2499995D03*
G01*
X8499983Y-2245995D03*
G01*
X3099993Y-2753995D03*
G01*
X3099993Y-2499995D03*
G01*
X3099993Y-2245995D03*
D15*
G01*
X4140200Y-3124200D03*
G01*
X4140200Y-2362200D03*
G01*
X6718300Y-2349500D03*
G01*
X7480300Y-2349500D03*
G01*
X3568700Y-3124200D03*
G01*
X3568700Y-2362200D03*
G01*
X6718300Y-2933700D03*
G01*
X7480300Y-2933700D03*
G01*
X8953500Y431800D03*
G01*
X8953500Y685800D03*
G01*
X2599994Y3399993D03*
G01*
X2345994Y3399993D03*
G01*
X2091994Y3399993D03*
G01*
X5181600Y5118100D03*
G01*
X5181600Y4864100D03*
G01*
X5181600Y4610100D03*
G01*
X9499981Y3399993D03*
G01*
X9245981Y3399993D03*
G01*
X8991981Y3399993D03*
G01*
X9499981Y-1499996D03*
G01*
X9245981Y-1499996D03*
G01*
X8991981Y-1499996D03*
G01*
X2599994Y-1499996D03*
G01*
X2345994Y-1499996D03*
G01*
X2091994Y-1499996D03*
D18*
G01*
X2199995Y3999992D03*
G01*
X2199995Y5015992D03*
G01*
X2199995Y-2999994D03*
G01*
X2199995Y-1983994D03*
G01*
X9499981Y3999992D03*
G01*
X9499981Y5015992D03*
G01*
X9499981Y-2999994D03*
G01*
X9499981Y-1983994D03*
D19*
G01*
X9664700Y1397000D03*
G01*
X9664700Y2413000D03*
D20*
G01*
X7708900Y626821D03*
D15*
G01*
X7835900Y236804D03*
G01*
X7962900Y626821D03*
G01*
X8089900Y236804D03*
G01*
X8216900Y626821D03*
G01*
X8343900Y236804D03*
G01*
X8470900Y626821D03*
G01*
X10007600Y-1149095D03*
G01*
X10007600Y-324104D03*
G01*
X6454800Y1689100D03*
G01*
X6654800Y1689100D03*
G01*
X6854799Y1689100D03*
G01*
X9906000Y0D03*
G01*
X9906000Y762000D03*
G01*
X3644900Y-1930400D03*
G01*
X3644900Y-1422400D03*
G01*
X3644900Y-1168400D03*
G01*
X3644900Y-1676400D03*
G01*
X3644900Y-914400D03*
G01*
X5168900Y-1676400D03*
G01*
X5168900Y-1930400D03*
G01*
X3644900Y-660400D03*
G01*
X3898900Y-660400D03*
G01*
X4152900Y-660400D03*
G01*
X4406900Y-660400D03*
G01*
X4660900Y-660400D03*
G01*
X4914900Y-660400D03*
G01*
X5168900Y-660400D03*
G01*
X5168900Y-914400D03*
G01*
X5168900Y-1168400D03*
G01*
X5168900Y-1422400D03*
G01*
X3644900Y-406400D03*
G01*
X3644900Y101600D03*
G01*
X3644900Y355600D03*
G01*
X3644900Y609600D03*
G01*
X3644900Y863600D03*
G01*
X3644900Y1117600D03*
G01*
X3644900Y1371600D03*
G01*
X3644900Y1625600D03*
G01*
X3644900Y1879600D03*
G01*
X3644900Y2133600D03*
G01*
X3644900Y2387600D03*
G01*
X3644900Y2641600D03*
G01*
X3644900Y2895600D03*
G01*
X3644900Y3149600D03*
G01*
X3644900Y3403600D03*
G01*
X3644900Y3657600D03*
G01*
X3644900Y3911600D03*
G01*
X5168900Y3911600D03*
G01*
X5168900Y3657600D03*
G01*
X5168900Y3403600D03*
G01*
X5168900Y3149600D03*
G01*
X5168900Y2895600D03*
G01*
X5168900Y2641600D03*
G01*
X5168900Y2387600D03*
G01*
X5168900Y2133600D03*
G01*
X5168900Y1879600D03*
G01*
X5168900Y1625600D03*
G01*
X5168900Y1371600D03*
G01*
X5168900Y1117600D03*
G01*
X5168900Y863600D03*
G01*
X5168900Y609600D03*
G01*
X5168900Y355600D03*
G01*
X5168900Y101600D03*
G01*
X5168900Y-406400D03*
G01*
X4914900Y3657600D03*
D21*
G01*
X4728895Y2614599D03*
G01*
X4928895Y2414600D03*
G01*
X4928895Y2614599D03*
D15*
G01*
X5168900Y-152400D03*
G01*
X3644900Y-152400D03*
G01*
X4279900Y3850589D03*
G01*
X4533900Y3850589D03*
G01*
X3944899Y3276600D03*
G01*
X3944899Y3022600D03*
G01*
X3944899Y2768600D03*
G01*
X3944899Y2514600D03*
G01*
X3944899Y2260600D03*
D21*
G01*
X4528896Y2614599D03*
G01*
X4728895Y2414600D03*
G01*
X4528896Y2414600D03*
D15*
G01*
X5854700Y1054100D03*
G01*
X6108700Y1054100D03*
G01*
X6362700Y1054100D03*
G01*
X6616700Y1054100D03*
G01*
X6870700Y1054100D03*
G01*
X6362700Y800100D03*
G01*
X7974101Y-76200D03*
G01*
X8228101Y-76200D03*
G01*
X7476109Y-76200D03*
G01*
X7720101Y-76200D03*
G01*
X7212101Y-76200D03*
D22*
G01*
X2247900Y-660400D03*
G01*
X3009900Y-660400D03*
G01*
X2247900Y-914400D03*
G01*
X3009900Y-914400D03*
G01*
X2247900Y-1168400D03*
G01*
X3009900Y-1168400D03*
D15*
G01*
X2386406Y359994D03*
G01*
X2386406Y613994D03*
G01*
X2373706Y867994D03*
G01*
X2386406Y1121994D03*
G01*
X2386406Y1375994D03*
G01*
X2386406Y1629994D03*
G01*
X2386406Y1883994D03*
G01*
X2386406Y2137994D03*
G01*
X2386406Y2391994D03*
G01*
X1421206Y359994D03*
G01*
X1421206Y613994D03*
G01*
X1408506Y867994D03*
G01*
X1421206Y1121994D03*
G01*
X1421206Y1375994D03*
G01*
X1421206Y1629994D03*
G01*
X1421206Y1883994D03*
G01*
X1421206Y2137994D03*
G01*
X1421206Y2391994D03*
D17*
G01*
X4635500Y-2260600D03*
G01*
X4635500Y-2514600D03*
G01*
X4635500Y-2768600D03*
G01*
X6159500Y-2260600D03*
G01*
X6159500Y-2514600D03*
G01*
X6159500Y-2768600D03*
D23*
G01*
X3302000Y863600D03*
G01*
X3302000Y1117600D03*
G01*
X3302000Y1371600D03*
G01*
X3302000Y1625600D03*
G01*
X3302000Y1879600D03*
G01*
X3302000Y2133600D03*
G01*
X3302000Y2387600D03*
G01*
X3302000Y2641600D03*
G01*
X3302000Y2895600D03*
G01*
X3302000Y3149600D03*
G01*
X3302000Y3403600D03*
G01*
X3302000Y3657600D03*
G01*
X3302000Y3911600D03*
G01*
X3302000Y609600D03*
G01*
X3302000Y355600D03*
G01*
X3302000Y101600D03*
G01*
X3302000Y-152400D03*
G01*
X3302000Y-406400D03*
G01*
X3302000Y-660400D03*
G01*
X3302000Y-914400D03*
G01*
X3302000Y-1168400D03*
G01*
X3302000Y-1422400D03*
G01*
X3302000Y-1676400D03*
G01*
X3302000Y-1930400D03*
G01*
X5511800Y3657600D03*
G01*
X5511800Y3403600D03*
G01*
X5511800Y3149600D03*
G01*
X5511800Y2895600D03*
G01*
X5511800Y2641600D03*
G01*
X5511800Y2387600D03*
G01*
X5511800Y2133600D03*
G01*
X5511800Y1879600D03*
G01*
X5511800Y1625600D03*
G01*
X5511800Y1371600D03*
G01*
X5511800Y1117600D03*
G01*
X5511800Y863600D03*
G01*
X5511800Y609600D03*
G01*
X5511800Y355600D03*
G01*
X5511800Y101600D03*
G01*
X5511800Y-152400D03*
G01*
X5511800Y-406400D03*
G01*
X5511800Y-660400D03*
G01*
X5511800Y-914400D03*
G01*
X5511800Y-1168400D03*
G01*
X5511800Y-1422400D03*
G01*
X5511800Y-1676400D03*
G01*
X5511800Y-1930400D03*
G01*
X5511800Y3924300D03*
D24*
G01*
X4318000Y3175000D03*
G01*
X2882900Y0D03*
G01*
X4584700Y2768600D03*
G01*
X4292600Y2768600D03*
G01*
X5727700Y2908300D03*
G01*
X5854700Y2882900D03*
G01*
X5549900Y4699000D03*
G01*
X4140200Y-1955800D03*
G01*
X4381500Y1257300D03*
G01*
X7708900Y-1739900D03*
G01*
X5041900Y-571500D03*
G01*
X4051300Y1257300D03*
G01*
X3848100Y1587500D03*
G01*
X1790700Y3441700D03*
G01*
X2616200Y-2057400D03*
G01*
X7988300Y-2245995D03*
M02*
