G04 Layer: TopLayer*
G04 EasyEDA v6.5.47, 2024-09-27 14:37:58*
G04 50ea7e365bea4ea1a0dfe67087e7319b,c4deba93543447318b7234f01b5a2252,10*
G04 Gerber Generator version 0.2*
G04 Scale: 100 percent, Rotated: No, Reflected: No *
G04 Dimensions in millimeters *
G04 leading zeros omitted , absolute positions ,4 integer and 5 decimal *
%FSLAX45Y45*%
%MOMM*%

%ADD10C,0.1000*%
%ADD11C,0.1030*%
%ADD12C,0.0500*%
%ADD13C,0.5000*%
%ADD14C,1.0000*%
%ADD15C,5.0000*%
%ADD16C,2.5000*%
%ADD17C,2.0000*%
%ADD18C,1.5000*%
%ADD19R,14.0000X14.0000*%
%ADD20R,1.6332X1.6332*%
%ADD21C,1.6332*%
%ADD22C,1.5240*%
%ADD23C,1.6500*%
%ADD24C,1.8796*%
%ADD25C,4.0000*%
%ADD26C,6.0000*%
%ADD27R,1.5240X1.5240*%
%ADD28C,1.4000*%
%ADD29C,1.2600*%
%ADD30O,2.999994X1.499997*%
%ADD31C,0.6200*%
%ADD32C,0.0153*%

%LPD*%
D10*
X12096241Y-2222245D02*
G01*
X12096241Y-2183637D01*
X12093956Y-2176779D01*
X12089384Y-2174494D01*
X12084811Y-2174494D01*
X12103100Y-2206244D02*
G01*
X12087097Y-2206244D01*
X12058650Y-2206244D02*
G01*
X12063222Y-2203957D01*
X12067540Y-2199386D01*
X12069825Y-2192528D01*
X12069825Y-2187955D01*
X12067540Y-2181352D01*
X12063222Y-2176779D01*
X12058650Y-2174494D01*
X12051791Y-2174494D01*
X12047220Y-2176779D01*
X12042647Y-2181352D01*
X12040361Y-2187955D01*
X12040361Y-2192528D01*
X12042647Y-2199386D01*
X12047220Y-2203957D01*
X12051791Y-2206244D01*
X12058650Y-2206244D01*
X12025375Y-2206244D02*
G01*
X12025375Y-2158492D01*
X12025375Y-2199386D02*
G01*
X12020804Y-2203957D01*
X12016231Y-2206244D01*
X12009374Y-2206244D01*
X12004802Y-2203957D01*
X12000484Y-2199386D01*
X11998197Y-2192528D01*
X11998197Y-2187955D01*
X12000484Y-2181352D01*
X12004802Y-2176779D01*
X12009374Y-2174494D01*
X12016231Y-2174494D01*
X12020804Y-2176779D01*
X12025375Y-2181352D01*
D11*
X7327645Y-711200D02*
G01*
X7279893Y-711200D01*
X7327645Y-711200D02*
G01*
X7327645Y-727202D01*
X7325359Y-733805D01*
X7320788Y-738378D01*
X7316215Y-740663D01*
X7309358Y-742950D01*
X7297927Y-742950D01*
X7291070Y-740663D01*
X7286752Y-738378D01*
X7282179Y-733805D01*
X7279893Y-727202D01*
X7279893Y-711200D01*
X7316215Y-760221D02*
G01*
X7318502Y-760221D01*
X7323074Y-762507D01*
X7325359Y-764794D01*
X7327645Y-769365D01*
X7327645Y-778510D01*
X7325359Y-783081D01*
X7323074Y-785368D01*
X7318502Y-787654D01*
X7313929Y-787654D01*
X7309358Y-785368D01*
X7302500Y-780795D01*
X7279893Y-757936D01*
X7279893Y-789939D01*
X7327645Y-827531D02*
G01*
X7295641Y-804926D01*
X7295641Y-838962D01*
X7327645Y-827531D02*
G01*
X7279893Y-827531D01*
X7327645Y-853947D02*
G01*
X7279893Y-871981D01*
X7327645Y-890270D02*
G01*
X7279893Y-871981D01*
X7327645Y-932687D02*
G01*
X7327645Y-909828D01*
X7307072Y-907542D01*
X7309358Y-909828D01*
X7311643Y-916686D01*
X7311643Y-923544D01*
X7309358Y-930402D01*
X7304786Y-934720D01*
X7297927Y-937005D01*
X7293356Y-937005D01*
X7286752Y-934720D01*
X7282179Y-930402D01*
X7279893Y-923544D01*
X7279893Y-916686D01*
X7282179Y-909828D01*
X7284465Y-907542D01*
X7289038Y-905255D01*
X7327645Y-965707D02*
G01*
X7325359Y-958850D01*
X7318502Y-954278D01*
X7307072Y-951992D01*
X7300213Y-951992D01*
X7289038Y-954278D01*
X7282179Y-958850D01*
X7279893Y-965707D01*
X7279893Y-970279D01*
X7282179Y-977137D01*
X7289038Y-981710D01*
X7300213Y-983995D01*
X7307072Y-983995D01*
X7318502Y-981710D01*
X7325359Y-977137D01*
X7327645Y-970279D01*
X7327645Y-965707D01*
X7327645Y-998981D02*
G01*
X7279893Y-998981D01*
X7327645Y-998981D02*
G01*
X7327645Y-1028445D01*
X7304786Y-998981D02*
G01*
X7304786Y-1017015D01*
X7327645Y-1070863D02*
G01*
X7327645Y-1048004D01*
X7307072Y-1045718D01*
X7309358Y-1048004D01*
X7311643Y-1054862D01*
X7311643Y-1061720D01*
X7309358Y-1068578D01*
X7304786Y-1072895D01*
X7297927Y-1075181D01*
X7293356Y-1075181D01*
X7286752Y-1072895D01*
X7282179Y-1068578D01*
X7279893Y-1061720D01*
X7279893Y-1054862D01*
X7282179Y-1048004D01*
X7284465Y-1045718D01*
X7289038Y-1043431D01*
D12*
X7150354Y-533400D02*
G01*
X7198106Y-515112D01*
X7150354Y-497078D02*
G01*
X7198106Y-515112D01*
X7150354Y-468376D02*
G01*
X7152640Y-472947D01*
X7157211Y-477520D01*
X7161784Y-479805D01*
X7168641Y-482092D01*
X7180072Y-482092D01*
X7186929Y-479805D01*
X7191247Y-477520D01*
X7195820Y-472947D01*
X7198106Y-468376D01*
X7198106Y-459231D01*
X7195820Y-454660D01*
X7191247Y-450342D01*
X7186929Y-448055D01*
X7180072Y-445770D01*
X7168641Y-445770D01*
X7161784Y-448055D01*
X7157211Y-450342D01*
X7152640Y-454660D01*
X7150354Y-459231D01*
X7150354Y-468376D01*
X7150354Y-430784D02*
G01*
X7184643Y-430784D01*
X7191247Y-428497D01*
X7195820Y-423926D01*
X7198106Y-417068D01*
X7198106Y-412495D01*
X7195820Y-405637D01*
X7191247Y-401065D01*
X7184643Y-398779D01*
X7150354Y-398779D01*
X7150354Y-368045D02*
G01*
X7198106Y-368045D01*
X7150354Y-383794D02*
G01*
X7150354Y-352044D01*
X7568184Y-245363D02*
G01*
X7563611Y-247650D01*
X7559040Y-252221D01*
X7556754Y-256794D01*
X7556754Y-265684D01*
X7559040Y-270255D01*
X7563611Y-274828D01*
X7568184Y-277113D01*
X7575041Y-279400D01*
X7586472Y-279400D01*
X7593329Y-277113D01*
X7597647Y-274828D01*
X7602220Y-270255D01*
X7604506Y-265684D01*
X7604506Y-256794D01*
X7602220Y-252221D01*
X7597647Y-247650D01*
X7593329Y-245363D01*
X7586472Y-245363D01*
X7586472Y-256794D02*
G01*
X7586472Y-245363D01*
X7556754Y-230378D02*
G01*
X7604506Y-230378D01*
X7556754Y-230378D02*
G01*
X7604506Y-198373D01*
X7556754Y-198373D02*
G01*
X7604506Y-198373D01*
X7556754Y-183387D02*
G01*
X7604506Y-183387D01*
X7556754Y-183387D02*
G01*
X7556754Y-167639D01*
X7559040Y-160781D01*
X7563611Y-156210D01*
X7568184Y-153923D01*
X7575041Y-151637D01*
X7586472Y-151637D01*
X7593329Y-153923D01*
X7597647Y-156210D01*
X7602220Y-160781D01*
X7604506Y-167639D01*
X7604506Y-183387D01*
X11365484Y-1032763D02*
G01*
X11360911Y-1035050D01*
X11356340Y-1039621D01*
X11354054Y-1044194D01*
X11354054Y-1053084D01*
X11356340Y-1057655D01*
X11360911Y-1062228D01*
X11365484Y-1064513D01*
X11372341Y-1066800D01*
X11383772Y-1066800D01*
X11390629Y-1064513D01*
X11394947Y-1062228D01*
X11399520Y-1057655D01*
X11401806Y-1053084D01*
X11401806Y-1044194D01*
X11399520Y-1039621D01*
X11394947Y-1035050D01*
X11390629Y-1032763D01*
X11383772Y-1032763D01*
X11383772Y-1044194D02*
G01*
X11383772Y-1032763D01*
X11354054Y-1017778D02*
G01*
X11401806Y-1017778D01*
X11354054Y-1017778D02*
G01*
X11401806Y-985773D01*
X11354054Y-985773D02*
G01*
X11401806Y-985773D01*
X11354054Y-970787D02*
G01*
X11401806Y-970787D01*
X11354054Y-970787D02*
G01*
X11354054Y-955039D01*
X11356340Y-948181D01*
X11360911Y-943610D01*
X11365484Y-941323D01*
X11372341Y-939037D01*
X11383772Y-939037D01*
X11390629Y-941323D01*
X11394947Y-943610D01*
X11399520Y-948181D01*
X11401806Y-955039D01*
X11401806Y-970787D01*
X8229854Y-355600D02*
G01*
X8277606Y-337312D01*
X8229854Y-319278D02*
G01*
X8277606Y-337312D01*
X8229854Y-304292D02*
G01*
X8277606Y-304292D01*
X8229854Y-289305D02*
G01*
X8277606Y-289305D01*
X8229854Y-289305D02*
G01*
X8277606Y-257302D01*
X8229854Y-257302D02*
G01*
X8277606Y-257302D01*
X8471154Y-685800D02*
G01*
X8518906Y-685800D01*
X8471154Y-685800D02*
G01*
X8471154Y-656336D01*
X8494013Y-685800D02*
G01*
X8494013Y-667512D01*
X8518906Y-685800D02*
G01*
X8518906Y-656336D01*
X8471154Y-641350D02*
G01*
X8518906Y-641350D01*
X8471154Y-641350D02*
G01*
X8518906Y-609345D01*
X8471154Y-609345D02*
G01*
X8518906Y-609345D01*
X8471154Y-576326D02*
G01*
X8518906Y-594360D01*
X8471154Y-576326D02*
G01*
X8518906Y-558037D01*
X8503158Y-587502D02*
G01*
X8503158Y-564895D01*
X8471154Y-543052D02*
G01*
X8518906Y-543052D01*
X8471154Y-543052D02*
G01*
X8471154Y-522731D01*
X8473440Y-515873D01*
X8475725Y-513587D01*
X8480297Y-511302D01*
X8484870Y-511302D01*
X8489441Y-513587D01*
X8491727Y-515873D01*
X8494013Y-522731D01*
X8494013Y-543052D02*
G01*
X8494013Y-522731D01*
X8496300Y-515873D01*
X8498586Y-513587D01*
X8503158Y-511302D01*
X8509761Y-511302D01*
X8514334Y-513587D01*
X8516620Y-515873D01*
X8518906Y-522731D01*
X8518906Y-543052D01*
X8471154Y-496315D02*
G01*
X8518906Y-496315D01*
X8518906Y-496315D02*
G01*
X8518906Y-468884D01*
X8471154Y-453897D02*
G01*
X8518906Y-453897D01*
X8471154Y-453897D02*
G01*
X8471154Y-424434D01*
X8494013Y-453897D02*
G01*
X8494013Y-435863D01*
X8518906Y-453897D02*
G01*
X8518906Y-424434D01*
D13*
X9499981Y-1499996D02*
G01*
X9385300Y-1385315D01*
X9385300Y-762000D01*
X9372600Y-241300D02*
G01*
X9385300Y-254000D01*
X9385300Y-762000D01*
X5168900Y-914400D02*
G01*
X5232400Y-977900D01*
X5232400Y-1041400D01*
X5638800Y-1041400D01*
X5702300Y-1104900D01*
X5702300Y-1130300D01*
X5715000Y-1143000D01*
X5715000Y-2057400D01*
X5636768Y-2135631D01*
X4764531Y-2135631D01*
X3100070Y-2500121D02*
G01*
X3075431Y-2500121D01*
X2946400Y-2629154D01*
X2946400Y-2984500D01*
X3060700Y-3098800D01*
X3314700Y-3098800D01*
X3314700Y-3200400D01*
X3454400Y-3340100D01*
X3759200Y-3340100D01*
X4102100Y-2997200D01*
X4445000Y-2997200D01*
X4533900Y-2908300D01*
X3568700Y-3124200D02*
G01*
X3822700Y-3124200D01*
X4127500Y-2819400D01*
X4140200Y-2819400D01*
X4140200Y-2362200D01*
X4140200Y-3124200D02*
G01*
X4156062Y-3140062D01*
X4156062Y-3632200D01*
X1435100Y1244600D02*
G01*
X1371600Y1244600D01*
X1295400Y1320800D01*
X1295400Y1504187D01*
X1421129Y1629918D01*
X2247900Y-660400D02*
G01*
X1219200Y368300D01*
X1219200Y2189987D01*
X1421129Y2391918D01*
X2091943Y-1499870D02*
G01*
X2070100Y-1478026D01*
X2070100Y-635000D01*
X1143000Y292100D01*
X1143000Y2336800D01*
X1460500Y2654300D01*
X1473200Y2641600D01*
X3302000Y2641600D01*
X3644900Y-660400D02*
G01*
X3835400Y-469900D01*
X3835400Y-152400D01*
X3708400Y-25400D01*
X3124200Y-25400D01*
X2882900Y215900D01*
X2349500Y215900D01*
X2260600Y304800D01*
X2260600Y355600D01*
X2222500Y393700D01*
X2222500Y1143000D01*
X2095500Y1270000D01*
X2057400Y1270000D01*
X2032000Y1244600D01*
X1435100Y1244600D01*
X2386406Y1375994D02*
G01*
X3152800Y609600D01*
X3302000Y609600D01*
X2386406Y1883994D02*
G01*
X3048000Y1222400D01*
X3048000Y1041400D01*
X3225800Y863600D01*
X3302000Y863600D01*
X2091994Y3399993D02*
G01*
X2596388Y2895600D01*
X3302000Y2895600D01*
X2386406Y2391994D02*
G01*
X2509011Y2514600D01*
X3721100Y2514600D01*
X3848100Y2641600D01*
X4013200Y2641600D01*
X4318000Y2946400D01*
X4318000Y3175000D01*
X2247900Y-660400D02*
G01*
X2247900Y-914400D01*
X2247900Y-1168400D02*
G01*
X2247900Y-914400D01*
X3009900Y-1168400D02*
G01*
X3302000Y-1168400D01*
X3009900Y-914400D02*
G01*
X3302000Y-914400D01*
X3009900Y-660400D02*
G01*
X3009900Y-444500D01*
X3302000Y-152400D01*
X1421206Y1375994D02*
G01*
X2386406Y1375994D01*
X1421206Y1629994D02*
G01*
X2386406Y1629994D01*
X1421206Y1883994D02*
G01*
X2386406Y1883994D01*
X1421206Y2137994D02*
G01*
X2386406Y2137994D01*
X1421206Y2391994D02*
G01*
X2386406Y2391994D01*
X6108700Y1054100D02*
G01*
X5918200Y1244600D01*
X4622800Y1244600D01*
X4406900Y1460500D01*
X4406900Y3378200D01*
X4940300Y3911600D01*
X5168900Y3911600D01*
X6159500Y-2768600D02*
G01*
X6350000Y-2959100D01*
X6350000Y-3238500D01*
X6451600Y-3340100D01*
X7759700Y-3340100D01*
X8343900Y-2755900D01*
X8343900Y-2628900D01*
X8371077Y-2628900D01*
X8499983Y-2499995D01*
X4533900Y-2908300D02*
G01*
X4965700Y-2908300D01*
X5080000Y-3022600D01*
X5080000Y-3289300D01*
X5651500Y-3289300D01*
X5778500Y-3162300D01*
X5778500Y-2946400D01*
X5892800Y-2832100D01*
X6096000Y-2832100D01*
X6159500Y-2768600D01*
X8499983Y-2499995D02*
G01*
X8499983Y-2480182D01*
X8166100Y-2146300D01*
X8166100Y-1879600D01*
X7632700Y-1346200D01*
X7632700Y-419100D01*
X7555001Y-419100D01*
X7212101Y-76200D01*
X6108700Y1054100D02*
G01*
X6108700Y533400D01*
X6692900Y-50800D01*
X7186701Y-50800D01*
X7212101Y-76200D01*
D14*
X8499983Y4499990D02*
G01*
X8538590Y4499990D01*
X8737600Y4699000D01*
X8737600Y5232400D01*
X8610600Y5359400D01*
X6248400Y5359400D01*
X5969000Y5080000D01*
X5930900Y5080000D01*
D15*
X2199995Y5015992D02*
G01*
X2199995Y5311495D01*
X2578100Y5689600D01*
X9042400Y5689600D01*
X9410700Y5321300D01*
X9410700Y5105272D01*
X9499981Y5015992D01*
X9499981Y5015992D02*
G01*
X10160508Y5015992D01*
X10490200Y4686300D01*
X10490200Y-1803400D01*
X9680575Y-1803400D01*
X9499981Y-1983994D01*
X9499981Y-1983994D02*
G01*
X9499981Y-2133980D01*
X10045700Y-2679700D01*
X10045700Y-3175000D01*
X9588500Y-3632200D01*
X1841500Y-3632200D01*
X1841500Y-3352800D01*
X1511300Y-3022600D01*
X1511300Y-2540000D01*
X1643989Y-2540000D01*
X2199995Y-1983994D01*
X9664700Y2413000D02*
G01*
X9410700Y2159000D01*
X8089900Y2159000D01*
D16*
X8470900Y626821D02*
G01*
X8529878Y685800D01*
X8953500Y685800D01*
X8470900Y626821D02*
G01*
X8470900Y363804D01*
X8343900Y236804D01*
X8343900Y236804D02*
G01*
X8343900Y317500D01*
X8248853Y412546D01*
D17*
X7835900Y236804D02*
G01*
X7835900Y330200D01*
X7937500Y431800D01*
X8248853Y431800D01*
X7835900Y236804D02*
G01*
X7835900Y190500D01*
X7962900Y63500D01*
X7962900Y-64998D01*
X7974101Y-76200D01*
X7835900Y236804D02*
G01*
X7835900Y76504D01*
X7984997Y76504D01*
X7984997Y-65303D01*
X7974101Y-76200D01*
D14*
X7835900Y76504D02*
G01*
X7835900Y62001D01*
X7974101Y-76200D01*
X7974101Y-76200D02*
G01*
X7861782Y-76200D01*
X7861782Y76504D01*
X7974101Y-152400D02*
G01*
X8064500Y-152400D01*
X8064500Y-65303D01*
X7974075Y-152400D02*
G01*
X7861808Y-152400D01*
X7861808Y-203200D01*
X8089900Y-203200D01*
X7835900Y236804D02*
G01*
X7835900Y76504D01*
D16*
X7708900Y626871D02*
G01*
X7708900Y292100D01*
X7664450Y247650D01*
X7569200Y342900D01*
X7569200Y622300D01*
D18*
X3644900Y3657600D02*
G01*
X3302000Y3657600D01*
X3644900Y3403600D02*
G01*
X3302000Y3403600D01*
X3644900Y3149600D02*
G01*
X3302000Y3149600D01*
X3644900Y2895600D02*
G01*
X3302000Y2895600D01*
X3302000Y2641600D02*
G01*
X3644900Y2641600D01*
X3644900Y2387600D02*
G01*
X3302000Y2387600D01*
X3302000Y2133600D02*
G01*
X3644900Y2133600D01*
X3644900Y1879600D02*
G01*
X3302000Y1879600D01*
X3302000Y1625600D02*
G01*
X3644900Y1625600D01*
X3644900Y1371600D02*
G01*
X3302000Y1371600D01*
X3302000Y1117600D02*
G01*
X3644900Y1117600D01*
X3644900Y863600D02*
G01*
X3302000Y863600D01*
X3644900Y609600D02*
G01*
X3302000Y609600D01*
X3302000Y355600D02*
G01*
X3644900Y355600D01*
X3644900Y101600D02*
G01*
X3302000Y101600D01*
X3302000Y-152400D02*
G01*
X3644900Y-152400D01*
X3644900Y-406400D02*
G01*
X3302000Y-406400D01*
X3644900Y-660400D02*
G01*
X3302000Y-660400D01*
X3302000Y-914400D02*
G01*
X3644900Y-914400D01*
X3644900Y-1168400D02*
G01*
X3302000Y-1168400D01*
X3302000Y-1422400D02*
G01*
X3644900Y-1422400D01*
X3644900Y-1676400D02*
G01*
X3302000Y-1676400D01*
X3302000Y-1936750D02*
G01*
X3644900Y-1936750D01*
X5168900Y-1930400D02*
G01*
X5511800Y-1930400D01*
X5168900Y-1676400D02*
G01*
X5511800Y-1676400D01*
X5168900Y-1422400D02*
G01*
X5511800Y-1422400D01*
X5168900Y-1168400D02*
G01*
X5511800Y-1168400D01*
X5168900Y-914400D02*
G01*
X5511800Y-914400D01*
X5168900Y-660400D02*
G01*
X5511800Y-660400D01*
X5168900Y-406400D02*
G01*
X5511800Y-406400D01*
X5168900Y-152400D02*
G01*
X5511800Y-152400D01*
X5168900Y101600D02*
G01*
X5511800Y101600D01*
X5168900Y355600D02*
G01*
X5511800Y355600D01*
X5168900Y609600D02*
G01*
X5511800Y609600D01*
X5168900Y863600D02*
G01*
X5511800Y863600D01*
X5168900Y1117600D02*
G01*
X5511800Y1117600D01*
X5168900Y1371600D02*
G01*
X5511800Y1371600D01*
X5168900Y1625600D02*
G01*
X5511800Y1625600D01*
X5168900Y1879600D02*
G01*
X5511800Y1879600D01*
X5168900Y2133600D02*
G01*
X5511800Y2133600D01*
X5168900Y2387600D02*
G01*
X5511800Y2387600D01*
X5168900Y2641600D02*
G01*
X5511800Y2641600D01*
X3302000Y3911600D02*
G01*
X3644900Y3911600D01*
X5168900Y2895600D02*
G01*
X5511800Y2895600D01*
X5168900Y3149600D02*
G01*
X5511800Y3149600D01*
X5168900Y3403600D02*
G01*
X5511800Y3403600D01*
X5168900Y3657600D02*
G01*
X5511800Y3657600D01*
X5168900Y3911600D02*
G01*
X5181600Y3924300D01*
X5511800Y3924300D01*
D14*
X5930900Y5080000D02*
G01*
X5397500Y5080000D01*
X5181600Y4864100D01*
X5181600Y4864100D02*
G01*
X5384800Y4660900D01*
X5384800Y4127500D01*
X5168900Y3911600D01*
X3099993Y4499990D02*
G01*
X3099993Y4507306D01*
X2628900Y4978400D01*
X2628900Y5181600D01*
X2806700Y5359400D01*
X5588000Y5359400D01*
X5867400Y5080000D01*
X5930900Y5080000D01*
D13*
X9906000Y0D02*
G01*
X9537700Y0D01*
X9156700Y381000D01*
X9156700Y749300D01*
X8991600Y914400D01*
X8470900Y914400D01*
X8470900Y880821D01*
X8216900Y626821D01*
X10007600Y-324104D02*
G01*
X9810495Y-127000D01*
X9537700Y-127000D01*
X8978900Y431800D01*
X8953500Y431800D01*
X6248400Y2413000D02*
G01*
X5892800Y2768600D01*
X5740400Y2768600D01*
X4991100Y2768600D01*
X4584700Y2768600D01*
X4292600Y2768600D02*
G01*
X4178300Y2654300D01*
X4178300Y2476500D01*
X4089400Y2387600D01*
X3644900Y2387600D01*
X5930900Y4572000D02*
G01*
X5715000Y4356100D01*
X5715000Y3949700D01*
X5727700Y3937000D01*
X5727700Y2908300D01*
X5511800Y2133600D02*
G01*
X6362700Y1282700D01*
X6731000Y1282700D01*
X6870700Y1143000D01*
X6870700Y1054100D01*
X6616700Y1054100D02*
G01*
X6477000Y1193800D01*
X6261100Y1193800D01*
X5575300Y1879600D01*
X5511800Y1879600D01*
X5854700Y2882900D02*
G01*
X6083300Y3111500D01*
X6083300Y4165600D01*
X5930900Y4318000D01*
X4140200Y-1955800D02*
G01*
X4191000Y-1905000D01*
X4711700Y-1905000D01*
X4787900Y-1828800D01*
X4787900Y863600D01*
X5041900Y1117600D01*
X5168900Y1117600D01*
X4381500Y1257300D02*
G01*
X3848100Y1790700D01*
X3848100Y1955800D01*
X3670300Y2133600D01*
X3644900Y2133600D01*
X7708900Y-1739900D02*
G01*
X7366000Y-1397000D01*
X7226300Y-1397000D01*
X6616700Y-787400D01*
X5626100Y-787400D01*
X5092700Y-787400D01*
X5041900Y-736600D01*
X5041900Y-571500D01*
X4051300Y1257300D02*
G01*
X3848100Y1460500D01*
X3848100Y1587500D01*
X3099993Y4753990D02*
G01*
X3464102Y5118100D01*
X5181600Y5118100D01*
X8992108Y3400044D02*
G01*
X8715756Y3400044D01*
X8483600Y3632200D01*
X8483600Y3873500D01*
X7658100Y4699000D01*
X5549900Y4699000D01*
X9499981Y3399993D02*
G01*
X8988374Y3911600D01*
X8597900Y3911600D01*
X8242300Y4267200D01*
X8242300Y4496307D01*
X8499983Y4753990D01*
X8499983Y4753990D02*
G01*
X8453374Y4800600D01*
X6235700Y4800600D01*
X6210300Y4826000D01*
X5930900Y4826000D01*
X1790700Y3441700D02*
G01*
X2006600Y3657600D01*
X2342388Y3657600D01*
X2599994Y3399993D01*
X2616200Y-2057400D02*
G01*
X2804795Y-2245995D01*
X3099993Y-2245995D01*
X2616200Y-2057400D02*
G01*
X2501900Y-1943100D01*
X2501900Y-1816100D01*
X2362200Y-1676400D01*
X2032000Y-1676400D01*
X1028700Y-673100D01*
X1028700Y3263900D01*
X1206500Y3441700D01*
X1790700Y3441700D01*
X3099993Y-2245995D02*
G01*
X3216198Y-2362200D01*
X3568700Y-2362200D01*
X7476109Y-76200D02*
G01*
X6362700Y1037209D01*
X6362700Y1054100D01*
X7988300Y-2245995D02*
G01*
X7579995Y-2245995D01*
X7454900Y-2120900D01*
X6299200Y-2120900D01*
X6159500Y-2260600D01*
X9906000Y762000D02*
G01*
X9436100Y762000D01*
X9436100Y787400D01*
X9156700Y1066800D01*
X8331200Y1066800D01*
X8140700Y876300D01*
X7912100Y876300D01*
X7302500Y1485900D01*
X7302500Y1879600D01*
X7188200Y1993900D01*
X6154927Y1993900D01*
X6154927Y1998471D01*
X5511800Y2641600D01*
X10007600Y-324104D02*
G01*
X10007600Y-127000D01*
X10083800Y-50800D01*
X10083800Y63500D01*
X10058400Y63500D01*
X9969500Y152400D01*
X9550400Y152400D01*
X9309100Y393700D01*
X9309100Y736600D01*
X9055100Y990600D01*
X8407400Y990600D01*
X8204200Y787400D01*
X7899400Y787400D01*
X7213600Y1473200D01*
X7213600Y1828800D01*
X7124700Y1917700D01*
X6845300Y1917700D01*
X6654800Y1689100D01*
X7962900Y626871D02*
G01*
X7205472Y1384300D01*
X7023100Y1384300D01*
X6858000Y1549400D01*
X6858000Y1685797D01*
X6854697Y1689100D01*
X5168900Y-1174750D02*
G01*
X4991100Y-1352550D01*
X4991100Y-1987550D01*
X4927600Y-2051050D01*
X3964520Y-2051050D01*
X3964520Y-1907115D01*
X3860800Y-1803400D01*
X3009900Y-1803400D01*
X3009900Y-1797161D01*
X2882900Y-1670161D01*
X2882900Y-6350D01*
X4764531Y-2135631D02*
G01*
X4679188Y-2133600D01*
X4648200Y-2120900D01*
X4644948Y-2120900D01*
X4318000Y-2120900D01*
X4305300Y-2133600D01*
X3251200Y-2133600D01*
X3227730Y-2110130D01*
X3009900Y-2110130D01*
X2476500Y-1576730D01*
X2476500Y-50800D01*
X2082800Y342900D01*
X2082800Y990600D01*
X1951405Y1121994D01*
X1421206Y1121994D01*
D15*
X9500108Y-2034794D02*
G01*
X8867393Y-2034794D01*
X7962900Y-1130300D01*
X7962900Y-367284D01*
D19*
G01*
X8089900Y2159000D03*
D20*
G01*
X5930900Y5080000D03*
D21*
G01*
X5930900Y4826000D03*
G01*
X5930900Y4572000D03*
G01*
X5930900Y4318000D03*
G01*
X5930900Y4064000D03*
G01*
X5930900Y3810000D03*
G01*
X5930900Y3556000D03*
G01*
X5930900Y3302000D03*
D22*
G01*
X6248400Y2413000D03*
G01*
X7010400Y2413000D03*
D23*
G01*
X9131300Y-762000D03*
G01*
X9385300Y-762000D03*
G01*
X9118600Y-241300D03*
G01*
X9372600Y-241300D03*
D24*
G01*
X3099993Y4245990D03*
G01*
X3099993Y4499990D03*
G01*
X3099993Y4753990D03*
G01*
X8499983Y4245990D03*
G01*
X8499983Y4499990D03*
G01*
X8499983Y4753990D03*
G01*
X8499983Y-2753995D03*
G01*
X8499983Y-2499995D03*
G01*
X8499983Y-2245995D03*
G01*
X3099993Y-2753995D03*
G01*
X3099993Y-2499995D03*
G01*
X3099993Y-2245995D03*
D22*
G01*
X4140200Y-3124200D03*
G01*
X4140200Y-2362200D03*
G01*
X6718300Y-2349500D03*
G01*
X7480300Y-2349500D03*
G01*
X3568700Y-3124200D03*
G01*
X3568700Y-2362200D03*
G01*
X6718300Y-2933700D03*
G01*
X7480300Y-2933700D03*
G01*
X8953500Y431800D03*
G01*
X8953500Y685800D03*
G01*
X2599994Y3399993D03*
G01*
X2345994Y3399993D03*
G01*
X2091994Y3399993D03*
G01*
X5181600Y5118100D03*
G01*
X5181600Y4864100D03*
G01*
X5181600Y4610100D03*
G01*
X9499981Y3399993D03*
G01*
X9245981Y3399993D03*
G01*
X8991981Y3399993D03*
G01*
X9499981Y-1499996D03*
G01*
X9245981Y-1499996D03*
G01*
X8991981Y-1499996D03*
G01*
X2599994Y-1499996D03*
G01*
X2345994Y-1499996D03*
G01*
X2091994Y-1499996D03*
D25*
G01*
X2199995Y3999992D03*
G01*
X2199995Y5015992D03*
G01*
X2199995Y-2999994D03*
G01*
X2199995Y-1983994D03*
G01*
X9499981Y3999992D03*
G01*
X9499981Y5015992D03*
G01*
X9499981Y-2999994D03*
G01*
X9499981Y-1983994D03*
D26*
G01*
X9664700Y1397000D03*
G01*
X9664700Y2413000D03*
D27*
G01*
X7708900Y626821D03*
D22*
G01*
X7835900Y236804D03*
G01*
X7962900Y626821D03*
G01*
X8089900Y236804D03*
G01*
X8216900Y626821D03*
G01*
X8343900Y236804D03*
G01*
X8470900Y626821D03*
G01*
X10007600Y-1149095D03*
G01*
X10007600Y-324104D03*
G01*
X6454800Y1689100D03*
G01*
X6654800Y1689100D03*
G01*
X6854799Y1689100D03*
G01*
X9906000Y0D03*
G01*
X9906000Y762000D03*
G01*
X3644900Y-1930400D03*
G01*
X3644900Y-1422400D03*
G01*
X3644900Y-1168400D03*
G01*
X3644900Y-1676400D03*
G01*
X3644900Y-914400D03*
G01*
X5168900Y-1676400D03*
G01*
X5168900Y-1930400D03*
G01*
X3644900Y-660400D03*
G01*
X3898900Y-660400D03*
G01*
X4152900Y-660400D03*
G01*
X4406900Y-660400D03*
G01*
X4660900Y-660400D03*
G01*
X4914900Y-660400D03*
G01*
X5168900Y-660400D03*
G01*
X5168900Y-914400D03*
G01*
X5168900Y-1168400D03*
G01*
X5168900Y-1422400D03*
G01*
X3644900Y-406400D03*
G01*
X3644900Y101600D03*
G01*
X3644900Y355600D03*
G01*
X3644900Y609600D03*
G01*
X3644900Y863600D03*
G01*
X3644900Y1117600D03*
G01*
X3644900Y1371600D03*
G01*
X3644900Y1625600D03*
G01*
X3644900Y1879600D03*
G01*
X3644900Y2133600D03*
G01*
X3644900Y2387600D03*
G01*
X3644900Y2641600D03*
G01*
X3644900Y2895600D03*
G01*
X3644900Y3149600D03*
G01*
X3644900Y3403600D03*
G01*
X3644900Y3657600D03*
G01*
X3644900Y3911600D03*
G01*
X5168900Y3911600D03*
G01*
X5168900Y3657600D03*
G01*
X5168900Y3403600D03*
G01*
X5168900Y3149600D03*
G01*
X5168900Y2895600D03*
G01*
X5168900Y2641600D03*
G01*
X5168900Y2387600D03*
G01*
X5168900Y2133600D03*
G01*
X5168900Y1879600D03*
G01*
X5168900Y1625600D03*
G01*
X5168900Y1371600D03*
G01*
X5168900Y1117600D03*
G01*
X5168900Y863600D03*
G01*
X5168900Y609600D03*
G01*
X5168900Y355600D03*
G01*
X5168900Y101600D03*
G01*
X5168900Y-406400D03*
G01*
X4914900Y3657600D03*
D28*
G01*
X4728895Y2614599D03*
G01*
X4928895Y2414600D03*
G01*
X4928895Y2614599D03*
D22*
G01*
X5168900Y-152400D03*
G01*
X3644900Y-152400D03*
G01*
X4279900Y3850589D03*
G01*
X4533900Y3850589D03*
G01*
X3944899Y3276600D03*
G01*
X3944899Y3022600D03*
G01*
X3944899Y2768600D03*
G01*
X3944899Y2514600D03*
G01*
X3944899Y2260600D03*
D28*
G01*
X4528896Y2614599D03*
G01*
X4728895Y2414600D03*
G01*
X4528896Y2414600D03*
D22*
G01*
X5854700Y1054100D03*
G01*
X6108700Y1054100D03*
G01*
X6362700Y1054100D03*
G01*
X6616700Y1054100D03*
G01*
X6870700Y1054100D03*
G01*
X6362700Y800100D03*
G01*
X7974101Y-76200D03*
G01*
X8228101Y-76200D03*
G01*
X7476109Y-76200D03*
G01*
X7720101Y-76200D03*
G01*
X7212101Y-76200D03*
D29*
G01*
X2247900Y-660400D03*
G01*
X3009900Y-660400D03*
G01*
X2247900Y-914400D03*
G01*
X3009900Y-914400D03*
G01*
X2247900Y-1168400D03*
G01*
X3009900Y-1168400D03*
D22*
G01*
X2386406Y359994D03*
G01*
X2386406Y613994D03*
G01*
X2373706Y867994D03*
G01*
X2386406Y1121994D03*
G01*
X2386406Y1375994D03*
G01*
X2386406Y1629994D03*
G01*
X2386406Y1883994D03*
G01*
X2386406Y2137994D03*
G01*
X2386406Y2391994D03*
G01*
X1421206Y359994D03*
G01*
X1421206Y613994D03*
G01*
X1408506Y867994D03*
G01*
X1421206Y1121994D03*
G01*
X1421206Y1375994D03*
G01*
X1421206Y1629994D03*
G01*
X1421206Y1883994D03*
G01*
X1421206Y2137994D03*
G01*
X1421206Y2391994D03*
D24*
G01*
X4635500Y-2260600D03*
G01*
X4635500Y-2514600D03*
G01*
X4635500Y-2768600D03*
G01*
X6159500Y-2260600D03*
G01*
X6159500Y-2514600D03*
G01*
X6159500Y-2768600D03*
D30*
G01*
X3302000Y863600D03*
G01*
X3302000Y1117600D03*
G01*
X3302000Y1371600D03*
G01*
X3302000Y1625600D03*
G01*
X3302000Y1879600D03*
G01*
X3302000Y2133600D03*
G01*
X3302000Y2387600D03*
G01*
X3302000Y2641600D03*
G01*
X3302000Y2895600D03*
G01*
X3302000Y3149600D03*
G01*
X3302000Y3403600D03*
G01*
X3302000Y3657600D03*
G01*
X3302000Y3911600D03*
G01*
X3302000Y609600D03*
G01*
X3302000Y355600D03*
G01*
X3302000Y101600D03*
G01*
X3302000Y-152400D03*
G01*
X3302000Y-406400D03*
G01*
X3302000Y-660400D03*
G01*
X3302000Y-914400D03*
G01*
X3302000Y-1168400D03*
G01*
X3302000Y-1422400D03*
G01*
X3302000Y-1676400D03*
G01*
X3302000Y-1930400D03*
G01*
X5511800Y3657600D03*
G01*
X5511800Y3403600D03*
G01*
X5511800Y3149600D03*
G01*
X5511800Y2895600D03*
G01*
X5511800Y2641600D03*
G01*
X5511800Y2387600D03*
G01*
X5511800Y2133600D03*
G01*
X5511800Y1879600D03*
G01*
X5511800Y1625600D03*
G01*
X5511800Y1371600D03*
G01*
X5511800Y1117600D03*
G01*
X5511800Y863600D03*
G01*
X5511800Y609600D03*
G01*
X5511800Y355600D03*
G01*
X5511800Y101600D03*
G01*
X5511800Y-152400D03*
G01*
X5511800Y-406400D03*
G01*
X5511800Y-660400D03*
G01*
X5511800Y-914400D03*
G01*
X5511800Y-1168400D03*
G01*
X5511800Y-1422400D03*
G01*
X5511800Y-1676400D03*
G01*
X5511800Y-1930400D03*
G01*
X5511800Y3924300D03*
D31*
G01*
X4318000Y3175000D03*
G01*
X2882900Y0D03*
G01*
X4584700Y2768600D03*
G01*
X4292600Y2768600D03*
G01*
X5727700Y2908300D03*
G01*
X5854700Y2882900D03*
G01*
X5549900Y4699000D03*
G01*
X4140200Y-1955800D03*
G01*
X4381500Y1257300D03*
G01*
X7708900Y-1739900D03*
G01*
X5041900Y-571500D03*
G01*
X4051300Y1257300D03*
G01*
X3848100Y1587500D03*
G01*
X1790700Y3441700D03*
G01*
X2616200Y-2057400D03*
G01*
X7988300Y-2245995D03*
M02*
