G04 Layer: TopSilkscreenLayer*
G04 EasyEDA v6.5.47, 2024-09-27 14:37:58*
G04 50ea7e365bea4ea1a0dfe67087e7319b,c4deba93543447318b7234f01b5a2252,10*
G04 Gerber Generator version 0.2*
G04 Scale: 100 percent, Rotated: No, Reflected: No *
G04 Dimensions in millimeters *
G04 leading zeros omitted , absolute positions ,4 integer and 5 decimal *
%FSLAX45Y45*%
%MOMM*%

%ADD10C,0.1524*%
%ADD11C,0.2032*%
%ADD12C,0.1000*%
%ADD13C,0.2540*%
%ADD14C,0.1999*%
%ADD15C,0.2286*%
%ADD16C,0.1520*%
%ADD17C,0.2499*%
%ADD18C,0.1600*%
%ADD19C,0.0148*%

%LPD*%
G36*
X2872740Y1914143D02*
G01*
X2855010Y1913940D01*
X2841498Y1907286D01*
X2832912Y1894789D01*
X2830068Y1877060D01*
X2832862Y1858314D01*
X2841244Y1843278D01*
X2854706Y1832559D01*
X2872740Y1826768D01*
X2872740Y1845056D01*
X2867050Y1846325D01*
X2862021Y1848357D01*
X2857550Y1851152D01*
X2853690Y1854707D01*
X2850591Y1858975D01*
X2848356Y1863750D01*
X2847035Y1868881D01*
X2846578Y1874520D01*
X2847035Y1880006D01*
X2848356Y1884730D01*
X2850591Y1888743D01*
X2853690Y1892046D01*
X2857550Y1894382D01*
X2862021Y1895805D01*
X2867050Y1896262D01*
X2872740Y1895856D01*
X2939796Y1885188D01*
X2945485Y1883918D01*
X2950514Y1881886D01*
X2954985Y1879092D01*
X2958846Y1875536D01*
X2961944Y1871268D01*
X2964180Y1866544D01*
X2965500Y1861362D01*
X2965958Y1855724D01*
X2965500Y1850288D01*
X2964180Y1845564D01*
X2961944Y1841652D01*
X2958846Y1838452D01*
X2954985Y1836013D01*
X2950514Y1834540D01*
X2945485Y1833981D01*
X2939796Y1834388D01*
X2939796Y1816100D01*
X2945942Y1815439D01*
X2951734Y1815592D01*
X2957118Y1816506D01*
X2962148Y1818132D01*
X2966720Y1820468D01*
X2970733Y1823415D01*
X2974187Y1826920D01*
X2977134Y1831086D01*
X2979470Y1835810D01*
X2981147Y1840992D01*
X2982112Y1846681D01*
X2982468Y1852930D01*
X2981756Y1862988D01*
X2979674Y1871980D01*
X2976168Y1879955D01*
X2971292Y1886966D01*
X2957830Y1897684D01*
X2939796Y1903475D01*
G37*
G36*
X2874772Y1801622D02*
G01*
X2856331Y1801418D01*
X2842260Y1794256D01*
X2833116Y1781251D01*
X2830068Y1763014D01*
X2830779Y1752600D01*
X2832963Y1743151D01*
X2836621Y1734667D01*
X2841752Y1727200D01*
X2848203Y1721002D01*
X2855874Y1716074D01*
X2864713Y1712468D01*
X2874772Y1710182D01*
X2980436Y1693164D01*
X2980436Y1711452D01*
X2874772Y1728470D01*
X2868523Y1729892D01*
X2862986Y1732127D01*
X2858109Y1735226D01*
X2853944Y1739138D01*
X2850591Y1743710D01*
X2848254Y1748739D01*
X2846781Y1754225D01*
X2846324Y1760220D01*
X2846781Y1766366D01*
X2848152Y1771599D01*
X2850489Y1775866D01*
X2853690Y1779270D01*
X2857754Y1781810D01*
X2862630Y1783334D01*
X2868320Y1783842D01*
X2874772Y1783334D01*
G37*
G36*
X2832100Y1680972D02*
G01*
X2832100Y1663192D01*
X2912110Y1650441D01*
X2931160Y1647799D01*
X2957372Y1644751D01*
X2973070Y1643634D01*
X2898394Y1632457D01*
X2898394Y1616710D01*
X2974848Y1580642D01*
X2963722Y1583385D01*
X2951226Y1585976D01*
X2912872Y1592884D01*
X2832100Y1605788D01*
X2832100Y1588262D01*
X2980436Y1564640D01*
X2980436Y1592072D01*
X2916174Y1622044D01*
X2980436Y1630680D01*
X2980436Y1657350D01*
G37*
G36*
X2872740Y1548384D02*
G01*
X2855010Y1548180D01*
X2841498Y1541526D01*
X2832912Y1529029D01*
X2830068Y1511300D01*
X2832862Y1492554D01*
X2841244Y1477518D01*
X2854706Y1466799D01*
X2872740Y1461008D01*
X2872740Y1479296D01*
X2867050Y1480566D01*
X2862021Y1482598D01*
X2857550Y1485392D01*
X2853690Y1488948D01*
X2850591Y1493215D01*
X2848356Y1497990D01*
X2847035Y1503121D01*
X2846578Y1508760D01*
X2847035Y1514246D01*
X2848356Y1518970D01*
X2850591Y1522984D01*
X2853690Y1526286D01*
X2857550Y1528622D01*
X2862021Y1530045D01*
X2867050Y1530502D01*
X2872740Y1530096D01*
X2939796Y1519428D01*
X2945485Y1518158D01*
X2950514Y1516126D01*
X2954985Y1513332D01*
X2958846Y1509776D01*
X2961944Y1505508D01*
X2964180Y1500784D01*
X2965500Y1495602D01*
X2965958Y1489964D01*
X2965500Y1484477D01*
X2964180Y1479804D01*
X2961944Y1475841D01*
X2958846Y1472692D01*
X2954985Y1470253D01*
X2950514Y1468729D01*
X2945485Y1468221D01*
X2939796Y1468628D01*
X2939796Y1450340D01*
X2945942Y1449679D01*
X2951734Y1449832D01*
X2957118Y1450695D01*
X2962148Y1452372D01*
X2966720Y1454708D01*
X2970733Y1457655D01*
X2974187Y1461160D01*
X2977134Y1465326D01*
X2979470Y1470050D01*
X2981147Y1475232D01*
X2982112Y1480972D01*
X2982468Y1487170D01*
X2981756Y1497177D01*
X2979674Y1506220D01*
X2976168Y1514195D01*
X2971292Y1521206D01*
X2957830Y1531924D01*
X2939796Y1537716D01*
G37*
G36*
X2855010Y1426972D02*
G01*
X2841498Y1420876D01*
X2832912Y1408887D01*
X2830068Y1391158D01*
X2830779Y1381150D01*
X2832912Y1372158D01*
X2836519Y1364234D01*
X2841498Y1357376D01*
X2855010Y1347114D01*
X2872740Y1341628D01*
X2980436Y1324356D01*
X2980436Y1342644D01*
X2872740Y1359916D01*
X2866948Y1361236D01*
X2861818Y1363218D01*
X2857296Y1365808D01*
X2853436Y1369060D01*
X2850337Y1372920D01*
X2848102Y1377442D01*
X2846781Y1382572D01*
X2846324Y1388364D01*
X2846781Y1394104D01*
X2848102Y1398879D01*
X2850337Y1402740D01*
X2853436Y1405636D01*
X2857296Y1407718D01*
X2861818Y1408938D01*
X2866948Y1409242D01*
X2872740Y1408684D01*
X2980436Y1391412D01*
X2980436Y1409700D01*
X2872740Y1426972D01*
G37*
G36*
X2872740Y1309116D02*
G01*
X2855010Y1308862D01*
X2841498Y1302004D01*
X2832912Y1289304D01*
X2830068Y1271524D01*
X2830779Y1261313D01*
X2832862Y1252067D01*
X2836367Y1243787D01*
X2841244Y1236472D01*
X2847390Y1230274D01*
X2854706Y1225397D01*
X2863138Y1221892D01*
X2872740Y1219708D01*
X2882900Y1217930D01*
X2899410Y1217879D01*
X2912364Y1223772D01*
X2921304Y1234694D01*
X2925318Y1250188D01*
X2963418Y1209040D01*
X2980436Y1206246D01*
X2980436Y1287780D01*
X2963672Y1290574D01*
X2963672Y1229868D01*
X2925064Y1272032D01*
X2909316Y1274572D01*
X2909316Y1258570D01*
X2908858Y1252829D01*
X2907538Y1247902D01*
X2905302Y1243736D01*
X2902204Y1240282D01*
X2898343Y1237742D01*
X2893822Y1236218D01*
X2888691Y1235710D01*
X2882900Y1236218D01*
X2872740Y1237996D01*
X2866948Y1239418D01*
X2861818Y1241552D01*
X2857296Y1244447D01*
X2853436Y1248156D01*
X2850337Y1252474D01*
X2848102Y1257300D01*
X2846781Y1262634D01*
X2846324Y1268476D01*
X2846781Y1274165D01*
X2848102Y1279144D01*
X2850337Y1283360D01*
X2853436Y1286764D01*
X2857296Y1289304D01*
X2861818Y1290828D01*
X2866948Y1291336D01*
X2872740Y1290828D01*
G37*
G36*
X2928010Y1176934D02*
G01*
X2922168Y1176782D01*
X2916580Y1175918D01*
X2911348Y1174242D01*
X2906420Y1171803D01*
X2902102Y1168755D01*
X2898292Y1165199D01*
X2895092Y1161034D01*
X2892450Y1156258D01*
X2890520Y1151077D01*
X2889351Y1145438D01*
X2888996Y1139444D01*
X2889438Y1133348D01*
X2903220Y1133348D01*
X2903778Y1139545D01*
X2905404Y1144879D01*
X2908096Y1149451D01*
X2911856Y1153160D01*
X2916631Y1156055D01*
X2922016Y1157782D01*
X2928061Y1158443D01*
X2934716Y1157986D01*
X2947416Y1153871D01*
X2957576Y1146048D01*
X2964027Y1135481D01*
X2966212Y1123188D01*
X2965653Y1116990D01*
X2964027Y1111605D01*
X2961335Y1107084D01*
X2957576Y1103376D01*
X2952800Y1100531D01*
X2947416Y1098804D01*
X2941370Y1098245D01*
X2934716Y1098804D01*
X2922016Y1102715D01*
X2911856Y1110488D01*
X2905404Y1121003D01*
X2903220Y1133348D01*
X2889438Y1133348D01*
X2890774Y1127709D01*
X2893009Y1123086D01*
X2896108Y1119378D01*
X2895600Y1118870D01*
X2832100Y1165606D01*
X2832100Y1144524D01*
X2893568Y1100582D01*
X2904540Y1093165D01*
X2915158Y1087120D01*
X2920238Y1084580D01*
X2925267Y1082598D01*
X2930245Y1081176D01*
X2935224Y1080262D01*
X2948381Y1079652D01*
X2959862Y1082294D01*
X2964891Y1084783D01*
X2969310Y1088034D01*
X2973171Y1091895D01*
X2976372Y1096518D01*
X2980944Y1107592D01*
X2982468Y1120902D01*
X2980994Y1134668D01*
X2976626Y1147064D01*
X2969514Y1157732D01*
X2959862Y1166368D01*
X2948127Y1172667D01*
X2934208Y1176274D01*
G37*
G36*
X2873756Y1063244D02*
G01*
X2855925Y1062990D01*
X2842006Y1056132D01*
X2833065Y1043381D01*
X2830068Y1025398D01*
X2830261Y1022603D01*
X2845816Y1022603D01*
X2846273Y1028344D01*
X2847695Y1033322D01*
X2850083Y1037590D01*
X2853436Y1041146D01*
X2857652Y1043686D01*
X2862427Y1045260D01*
X2867812Y1045870D01*
X2873756Y1045464D01*
X2938780Y1035050D01*
X2944723Y1033627D01*
X2950057Y1031392D01*
X2954883Y1028293D01*
X2959100Y1024382D01*
X2962452Y1019860D01*
X2964840Y1014831D01*
X2966262Y1009446D01*
X2966720Y1003553D01*
X2966262Y997864D01*
X2964840Y992886D01*
X2962452Y988720D01*
X2959100Y985266D01*
X2954883Y982624D01*
X2950057Y980998D01*
X2944723Y980440D01*
X2938780Y980948D01*
X2873756Y991362D01*
X2867812Y992682D01*
X2862427Y994867D01*
X2857652Y997864D01*
X2853436Y1001776D01*
X2850083Y1006297D01*
X2847695Y1011326D01*
X2846273Y1016711D01*
X2845816Y1022603D01*
X2830261Y1022603D01*
X2830779Y1015136D01*
X2832912Y1005840D01*
X2836519Y997610D01*
X2841498Y990346D01*
X2847797Y984250D01*
X2855264Y979474D01*
X2863951Y976020D01*
X2873756Y973836D01*
X2938780Y963421D01*
X2956610Y963472D01*
X2970530Y970280D01*
X2979470Y983234D01*
X2982468Y1001268D01*
X2981756Y1011428D01*
X2979623Y1020571D01*
X2976016Y1028700D01*
X2971038Y1035812D01*
X2964738Y1041908D01*
X2957271Y1046784D01*
X2948584Y1050442D01*
X2938780Y1052830D01*
G37*
G36*
X2904134Y1025550D02*
G01*
X2901797Y1025245D01*
X2899816Y1024534D01*
X2898140Y1023366D01*
X2896819Y1021791D01*
X2895854Y1019860D01*
X2895295Y1017625D01*
X2895092Y1014984D01*
X2895295Y1012291D01*
X2895854Y1009853D01*
X2896819Y1007618D01*
X2898140Y1005586D01*
X2899816Y1003858D01*
X2901848Y1002537D01*
X2904134Y1001572D01*
X2906776Y1001014D01*
X2909417Y1000760D01*
X2911703Y1000963D01*
X2913735Y1001623D01*
X2915412Y1002792D01*
X2916631Y1004468D01*
X2917494Y1006500D01*
X2918053Y1008786D01*
X2918206Y1011428D01*
X2918053Y1014018D01*
X2917494Y1016355D01*
X2916631Y1018590D01*
X2915412Y1020571D01*
X2913735Y1022299D01*
X2911703Y1023670D01*
X2909417Y1024737D01*
X2906776Y1025398D01*
G37*
G36*
X2832100Y945642D02*
G01*
X2832100Y854202D01*
X2848864Y851662D01*
X2848864Y884428D01*
X2980436Y863600D01*
X2980436Y888492D01*
X2955544Y926084D01*
X2933954Y929386D01*
X2963926Y884428D01*
X2848864Y902716D01*
X2848864Y943102D01*
G37*
G36*
X1907539Y1914143D02*
G01*
X1889810Y1913940D01*
X1876298Y1907286D01*
X1867712Y1894789D01*
X1864868Y1877060D01*
X1867662Y1858314D01*
X1876043Y1843278D01*
X1889506Y1832559D01*
X1907539Y1826768D01*
X1907539Y1845056D01*
X1901850Y1846325D01*
X1896821Y1848357D01*
X1892350Y1851152D01*
X1888489Y1854707D01*
X1885391Y1858975D01*
X1883156Y1863750D01*
X1881835Y1868881D01*
X1881378Y1874520D01*
X1881835Y1880006D01*
X1883156Y1884730D01*
X1885391Y1888743D01*
X1888489Y1892046D01*
X1892350Y1894382D01*
X1896821Y1895805D01*
X1901850Y1896262D01*
X1907539Y1895856D01*
X1974596Y1885188D01*
X1980285Y1883918D01*
X1985314Y1881886D01*
X1989785Y1879092D01*
X1993646Y1875536D01*
X1996744Y1871268D01*
X1998980Y1866544D01*
X2000300Y1861362D01*
X2000757Y1855724D01*
X2000300Y1850288D01*
X1998980Y1845564D01*
X1996744Y1841652D01*
X1993646Y1838452D01*
X1989785Y1836013D01*
X1985314Y1834540D01*
X1980285Y1833981D01*
X1974596Y1834388D01*
X1974596Y1816100D01*
X1980742Y1815439D01*
X1986534Y1815592D01*
X1991918Y1816506D01*
X1996948Y1818132D01*
X2001520Y1820468D01*
X2005533Y1823415D01*
X2008987Y1826920D01*
X2011934Y1831086D01*
X2014270Y1835810D01*
X2015947Y1840992D01*
X2016912Y1846681D01*
X2017268Y1852930D01*
X2016556Y1862988D01*
X2014474Y1871980D01*
X2010968Y1879955D01*
X2006092Y1886966D01*
X1992630Y1897684D01*
X1974596Y1903475D01*
G37*
G36*
X1909572Y1801622D02*
G01*
X1891131Y1801418D01*
X1877060Y1794256D01*
X1867916Y1781251D01*
X1864868Y1763014D01*
X1865579Y1752600D01*
X1867814Y1743151D01*
X1871421Y1734667D01*
X1876552Y1727200D01*
X1883003Y1721002D01*
X1890674Y1716074D01*
X1899513Y1712468D01*
X1909572Y1710182D01*
X2015236Y1693164D01*
X2015236Y1711452D01*
X1909572Y1728470D01*
X1903323Y1729892D01*
X1897786Y1732127D01*
X1892909Y1735226D01*
X1888743Y1739138D01*
X1885391Y1743710D01*
X1883054Y1748739D01*
X1881581Y1754225D01*
X1881124Y1760220D01*
X1881581Y1766366D01*
X1882952Y1771599D01*
X1885289Y1775866D01*
X1888489Y1779270D01*
X1892554Y1781810D01*
X1897430Y1783334D01*
X1903120Y1783842D01*
X1909572Y1783334D01*
G37*
G36*
X1866900Y1680972D02*
G01*
X1866900Y1663192D01*
X1946910Y1650441D01*
X1965960Y1647799D01*
X1992172Y1644751D01*
X2007870Y1643634D01*
X1933193Y1632457D01*
X1933193Y1616710D01*
X2009648Y1580642D01*
X1998522Y1583385D01*
X1986025Y1585976D01*
X1947672Y1592884D01*
X1866900Y1605788D01*
X1866900Y1588262D01*
X2015236Y1564640D01*
X2015236Y1592072D01*
X1950974Y1622044D01*
X2015236Y1630680D01*
X2015236Y1657350D01*
G37*
G36*
X1907539Y1548384D02*
G01*
X1889810Y1548180D01*
X1876298Y1541526D01*
X1867712Y1529029D01*
X1864868Y1511300D01*
X1867662Y1492554D01*
X1876043Y1477518D01*
X1889506Y1466799D01*
X1907539Y1461008D01*
X1907539Y1479296D01*
X1901850Y1480566D01*
X1896821Y1482598D01*
X1892350Y1485392D01*
X1888489Y1488948D01*
X1885391Y1493215D01*
X1883156Y1497990D01*
X1881835Y1503121D01*
X1881378Y1508760D01*
X1881835Y1514246D01*
X1883156Y1518970D01*
X1885391Y1522984D01*
X1888489Y1526286D01*
X1892350Y1528622D01*
X1896821Y1530045D01*
X1901850Y1530502D01*
X1907539Y1530096D01*
X1974596Y1519428D01*
X1980285Y1518158D01*
X1985314Y1516126D01*
X1989785Y1513332D01*
X1993646Y1509776D01*
X1996744Y1505508D01*
X1998980Y1500784D01*
X2000300Y1495602D01*
X2000757Y1489964D01*
X2000300Y1484477D01*
X1998980Y1479804D01*
X1996744Y1475841D01*
X1993646Y1472692D01*
X1989785Y1470253D01*
X1985314Y1468729D01*
X1980285Y1468221D01*
X1974596Y1468628D01*
X1974596Y1450340D01*
X1980742Y1449679D01*
X1986534Y1449832D01*
X1991918Y1450695D01*
X1996948Y1452372D01*
X2001520Y1454708D01*
X2005533Y1457655D01*
X2008987Y1461160D01*
X2011934Y1465326D01*
X2014270Y1470050D01*
X2015947Y1475232D01*
X2016912Y1480972D01*
X2017268Y1487170D01*
X2016556Y1497177D01*
X2014474Y1506220D01*
X2010968Y1514195D01*
X2006092Y1521206D01*
X1992630Y1531924D01*
X1974596Y1537716D01*
G37*
G36*
X1889810Y1426972D02*
G01*
X1876298Y1420876D01*
X1867712Y1408887D01*
X1864868Y1391158D01*
X1865579Y1381150D01*
X1867712Y1372158D01*
X1871319Y1364234D01*
X1876298Y1357376D01*
X1889810Y1347114D01*
X1907539Y1341628D01*
X2015236Y1324356D01*
X2015236Y1342644D01*
X1907539Y1359916D01*
X1901748Y1361236D01*
X1896618Y1363218D01*
X1892096Y1365808D01*
X1888236Y1369060D01*
X1885137Y1372920D01*
X1882902Y1377442D01*
X1881581Y1382572D01*
X1881124Y1388364D01*
X1881581Y1394104D01*
X1882902Y1398879D01*
X1885137Y1402740D01*
X1888236Y1405636D01*
X1892096Y1407718D01*
X1896618Y1408938D01*
X1901748Y1409242D01*
X1907539Y1408684D01*
X2015236Y1391412D01*
X2015236Y1409700D01*
X1907539Y1426972D01*
G37*
G36*
X1907539Y1309116D02*
G01*
X1889810Y1308862D01*
X1876298Y1302004D01*
X1867712Y1289304D01*
X1864868Y1271524D01*
X1865579Y1261313D01*
X1867662Y1252067D01*
X1871167Y1243787D01*
X1876043Y1236472D01*
X1882190Y1230274D01*
X1889506Y1225397D01*
X1897938Y1221892D01*
X1907539Y1219708D01*
X1917700Y1217930D01*
X1934210Y1217879D01*
X1947164Y1223772D01*
X1956104Y1234694D01*
X1960118Y1250188D01*
X1998218Y1209040D01*
X2015236Y1206246D01*
X2015236Y1287780D01*
X1998472Y1290574D01*
X1998472Y1229868D01*
X1959864Y1272032D01*
X1944116Y1274572D01*
X1944116Y1258570D01*
X1943658Y1252829D01*
X1942338Y1247902D01*
X1940102Y1243736D01*
X1937004Y1240282D01*
X1933143Y1237742D01*
X1928622Y1236218D01*
X1923491Y1235710D01*
X1917700Y1236218D01*
X1907539Y1237996D01*
X1901748Y1239418D01*
X1896618Y1241552D01*
X1892096Y1244447D01*
X1888236Y1248156D01*
X1885137Y1252474D01*
X1882902Y1257300D01*
X1881581Y1262634D01*
X1881124Y1268476D01*
X1881581Y1274165D01*
X1882902Y1279144D01*
X1885137Y1283360D01*
X1888236Y1286764D01*
X1892096Y1289304D01*
X1896618Y1290828D01*
X1901748Y1291336D01*
X1907539Y1290828D01*
G37*
G36*
X1962810Y1176934D02*
G01*
X1956968Y1176782D01*
X1951380Y1175918D01*
X1946148Y1174242D01*
X1941220Y1171803D01*
X1936902Y1168755D01*
X1933092Y1165199D01*
X1929892Y1161034D01*
X1927250Y1156258D01*
X1925320Y1151077D01*
X1924151Y1145438D01*
X1923796Y1139444D01*
X1924238Y1133348D01*
X1938020Y1133348D01*
X1938578Y1139545D01*
X1940204Y1144879D01*
X1942896Y1149451D01*
X1946656Y1153160D01*
X1951431Y1156055D01*
X1956816Y1157782D01*
X1962861Y1158443D01*
X1969516Y1157986D01*
X1982216Y1153871D01*
X1992375Y1146048D01*
X1998827Y1135481D01*
X2001012Y1123188D01*
X2000453Y1116990D01*
X1998827Y1111605D01*
X1996135Y1107084D01*
X1992375Y1103376D01*
X1987600Y1100531D01*
X1982216Y1098804D01*
X1976170Y1098245D01*
X1969516Y1098804D01*
X1956816Y1102715D01*
X1946656Y1110488D01*
X1940204Y1121003D01*
X1938020Y1133348D01*
X1924238Y1133348D01*
X1925574Y1127709D01*
X1927809Y1123086D01*
X1930907Y1119378D01*
X1930400Y1118870D01*
X1866900Y1165606D01*
X1866900Y1144524D01*
X1928368Y1100582D01*
X1939340Y1093165D01*
X1949957Y1087120D01*
X1955038Y1084580D01*
X1960067Y1082598D01*
X1965045Y1081176D01*
X1970024Y1080262D01*
X1983181Y1079652D01*
X1994662Y1082294D01*
X1999691Y1084783D01*
X2004110Y1088034D01*
X2007971Y1091895D01*
X2011172Y1096518D01*
X2015743Y1107592D01*
X2017268Y1120902D01*
X2015794Y1134668D01*
X2011425Y1147064D01*
X2004314Y1157732D01*
X1994662Y1166368D01*
X1982927Y1172667D01*
X1969007Y1176274D01*
G37*
G36*
X1908556Y1063244D02*
G01*
X1890725Y1062990D01*
X1876806Y1056132D01*
X1867865Y1043381D01*
X1864868Y1025398D01*
X1865061Y1022603D01*
X1880616Y1022603D01*
X1881073Y1028344D01*
X1882495Y1033322D01*
X1884883Y1037590D01*
X1888236Y1041146D01*
X1892452Y1043686D01*
X1897278Y1045260D01*
X1902612Y1045870D01*
X1908556Y1045464D01*
X1973580Y1035050D01*
X1979523Y1033627D01*
X1984857Y1031392D01*
X1989683Y1028293D01*
X1993900Y1024382D01*
X1997252Y1019860D01*
X1999640Y1014831D01*
X2001062Y1009446D01*
X2001520Y1003553D01*
X2001062Y997864D01*
X1999640Y992886D01*
X1997252Y988720D01*
X1993900Y985266D01*
X1989683Y982624D01*
X1984857Y980998D01*
X1979523Y980440D01*
X1973580Y980948D01*
X1908556Y991362D01*
X1902612Y992682D01*
X1897227Y994867D01*
X1892452Y997864D01*
X1888236Y1001776D01*
X1884883Y1006297D01*
X1882495Y1011326D01*
X1881073Y1016711D01*
X1880616Y1022603D01*
X1865061Y1022603D01*
X1865579Y1015136D01*
X1867712Y1005840D01*
X1871319Y997610D01*
X1876298Y990346D01*
X1882597Y984250D01*
X1890064Y979474D01*
X1898751Y976020D01*
X1908556Y973836D01*
X1973580Y963421D01*
X1991410Y963472D01*
X2005330Y970280D01*
X2014270Y983234D01*
X2017268Y1001268D01*
X2016556Y1011428D01*
X2014423Y1020571D01*
X2010816Y1028700D01*
X2005838Y1035812D01*
X1999538Y1041908D01*
X1992071Y1046784D01*
X1983384Y1050442D01*
X1973580Y1052830D01*
G37*
G36*
X1938934Y1025550D02*
G01*
X1936597Y1025245D01*
X1934616Y1024534D01*
X1932939Y1023366D01*
X1931619Y1021791D01*
X1930654Y1019860D01*
X1930095Y1017625D01*
X1929892Y1014984D01*
X1930095Y1012291D01*
X1930654Y1009853D01*
X1931619Y1007618D01*
X1932939Y1005586D01*
X1934616Y1003858D01*
X1936648Y1002537D01*
X1938934Y1001572D01*
X1941575Y1001014D01*
X1944217Y1000760D01*
X1946503Y1000963D01*
X1948535Y1001623D01*
X1950212Y1002792D01*
X1951431Y1004468D01*
X1952294Y1006500D01*
X1952853Y1008786D01*
X1953006Y1011428D01*
X1952853Y1014018D01*
X1952294Y1016355D01*
X1951431Y1018590D01*
X1950212Y1020571D01*
X1948535Y1022299D01*
X1946503Y1023670D01*
X1944217Y1024737D01*
X1941575Y1025398D01*
G37*
G36*
X1866900Y945642D02*
G01*
X1866900Y854202D01*
X1883664Y851662D01*
X1883664Y884428D01*
X2015236Y863600D01*
X2015236Y888492D01*
X1990343Y926084D01*
X1968754Y929386D01*
X1998725Y884428D01*
X1883664Y902716D01*
X1883664Y943102D01*
G37*
D10*
X7595615Y4191000D02*
G01*
X7517638Y4191000D01*
X7502143Y4185920D01*
X7491729Y4175505D01*
X7486650Y4159757D01*
X7486650Y4149344D01*
X7491729Y4133850D01*
X7502143Y4123436D01*
X7517638Y4118355D01*
X7595615Y4118355D01*
X7574788Y4084065D02*
G01*
X7580122Y4073652D01*
X7595615Y4057904D01*
X7486650Y4057904D01*
D11*
X6121400Y5117337D02*
G01*
X6157722Y5021834D01*
X6194043Y5117337D02*
G01*
X6157722Y5021834D01*
X6292341Y5094731D02*
G01*
X6287770Y5103876D01*
X6278625Y5112765D01*
X6269481Y5117337D01*
X6251447Y5117337D01*
X6242304Y5112765D01*
X6233159Y5103876D01*
X6228588Y5094731D01*
X6224015Y5081015D01*
X6224015Y5058410D01*
X6228588Y5044694D01*
X6233159Y5035550D01*
X6242304Y5026405D01*
X6251447Y5021834D01*
X6269481Y5021834D01*
X6278625Y5026405D01*
X6287770Y5035550D01*
X6292341Y5044694D01*
X6390386Y5094731D02*
G01*
X6386068Y5103876D01*
X6376924Y5112765D01*
X6367779Y5117337D01*
X6349491Y5117337D01*
X6340602Y5112765D01*
X6331458Y5103876D01*
X6326886Y5094731D01*
X6322313Y5081015D01*
X6322313Y5058410D01*
X6326886Y5044694D01*
X6331458Y5035550D01*
X6340602Y5026405D01*
X6349491Y5021834D01*
X6367779Y5021834D01*
X6376924Y5026405D01*
X6386068Y5035550D01*
X6390386Y5044694D01*
X6189472Y4853431D02*
G01*
X6185154Y4862576D01*
X6176009Y4871465D01*
X6166865Y4876037D01*
X6148577Y4876037D01*
X6139688Y4871465D01*
X6130543Y4862576D01*
X6125972Y4853431D01*
X6121400Y4839715D01*
X6121400Y4817110D01*
X6125972Y4803394D01*
X6130543Y4794250D01*
X6139688Y4785105D01*
X6148577Y4780534D01*
X6166865Y4780534D01*
X6176009Y4785105D01*
X6185154Y4794250D01*
X6189472Y4803394D01*
X6189472Y4817110D01*
X6166865Y4817110D02*
G01*
X6189472Y4817110D01*
X6219697Y4876037D02*
G01*
X6219697Y4780534D01*
X6219697Y4876037D02*
G01*
X6283197Y4780534D01*
X6283197Y4876037D02*
G01*
X6283197Y4780534D01*
X6313170Y4876037D02*
G01*
X6313170Y4780534D01*
X6313170Y4876037D02*
G01*
X6344920Y4876037D01*
X6358636Y4871465D01*
X6367779Y4862576D01*
X6372352Y4853431D01*
X6376924Y4839715D01*
X6376924Y4817110D01*
X6372352Y4803394D01*
X6367779Y4794250D01*
X6358636Y4785105D01*
X6344920Y4780534D01*
X6313170Y4780534D01*
X6185154Y4595876D02*
G01*
X6176009Y4604765D01*
X6162293Y4609337D01*
X6144006Y4609337D01*
X6130543Y4604765D01*
X6121400Y4595876D01*
X6121400Y4586731D01*
X6125972Y4577587D01*
X6130543Y4573015D01*
X6139688Y4568444D01*
X6166865Y4559300D01*
X6176009Y4554981D01*
X6180581Y4550410D01*
X6185154Y4541265D01*
X6185154Y4527550D01*
X6176009Y4518405D01*
X6162293Y4513834D01*
X6144006Y4513834D01*
X6130543Y4518405D01*
X6121400Y4527550D01*
X6283197Y4586731D02*
G01*
X6278625Y4595876D01*
X6269481Y4604765D01*
X6260591Y4609337D01*
X6242304Y4609337D01*
X6233159Y4604765D01*
X6224015Y4595876D01*
X6219697Y4586731D01*
X6215125Y4573015D01*
X6215125Y4550410D01*
X6219697Y4536694D01*
X6224015Y4527550D01*
X6233159Y4518405D01*
X6242304Y4513834D01*
X6260591Y4513834D01*
X6269481Y4518405D01*
X6278625Y4527550D01*
X6283197Y4536694D01*
X6313170Y4609337D02*
G01*
X6313170Y4513834D01*
X6313170Y4513834D02*
G01*
X6367779Y4513834D01*
X6185154Y4367276D02*
G01*
X6176009Y4376165D01*
X6162293Y4380737D01*
X6144006Y4380737D01*
X6130543Y4376165D01*
X6121400Y4367276D01*
X6121400Y4358131D01*
X6125972Y4348987D01*
X6130543Y4344415D01*
X6139688Y4339844D01*
X6166865Y4330700D01*
X6176009Y4326381D01*
X6180581Y4321810D01*
X6185154Y4312665D01*
X6185154Y4298950D01*
X6176009Y4289805D01*
X6162293Y4285234D01*
X6144006Y4285234D01*
X6130543Y4289805D01*
X6121400Y4298950D01*
X6215125Y4380737D02*
G01*
X6215125Y4285234D01*
X6215125Y4380737D02*
G01*
X6246875Y4380737D01*
X6260591Y4376165D01*
X6269481Y4367276D01*
X6274054Y4358131D01*
X6278625Y4344415D01*
X6278625Y4321810D01*
X6274054Y4308094D01*
X6269481Y4298950D01*
X6260591Y4289805D01*
X6246875Y4285234D01*
X6215125Y4285234D01*
X6344920Y4380737D02*
G01*
X6308597Y4285234D01*
X6344920Y4380737D02*
G01*
X6381495Y4285234D01*
X6322313Y4317237D02*
G01*
X6367779Y4317237D01*
X6121400Y4114037D02*
G01*
X6185154Y4018534D01*
X6185154Y4114037D02*
G01*
X6121400Y4018534D01*
X6215125Y4114037D02*
G01*
X6215125Y4018534D01*
X6215125Y4114037D02*
G01*
X6246875Y4114037D01*
X6260591Y4109465D01*
X6269481Y4100576D01*
X6274054Y4091431D01*
X6278625Y4077715D01*
X6278625Y4055110D01*
X6274054Y4041394D01*
X6269481Y4032250D01*
X6260591Y4023105D01*
X6246875Y4018534D01*
X6215125Y4018534D01*
X6344920Y4114037D02*
G01*
X6308597Y4018534D01*
X6344920Y4114037D02*
G01*
X6381495Y4018534D01*
X6322313Y4050537D02*
G01*
X6367779Y4050537D01*
X6134100Y3847337D02*
G01*
X6197854Y3751834D01*
X6197854Y3847337D02*
G01*
X6134100Y3751834D01*
X6295897Y3824731D02*
G01*
X6291325Y3833876D01*
X6282181Y3842765D01*
X6273291Y3847337D01*
X6255004Y3847337D01*
X6245859Y3842765D01*
X6236715Y3833876D01*
X6232397Y3824731D01*
X6227825Y3811015D01*
X6227825Y3788410D01*
X6232397Y3774694D01*
X6236715Y3765550D01*
X6245859Y3756405D01*
X6255004Y3751834D01*
X6273291Y3751834D01*
X6282181Y3756405D01*
X6291325Y3765550D01*
X6295897Y3774694D01*
X6325870Y3847337D02*
G01*
X6325870Y3751834D01*
X6325870Y3751834D02*
G01*
X6380479Y3751834D01*
X6170422Y3618737D02*
G01*
X6134100Y3523234D01*
X6170422Y3618737D02*
G01*
X6206743Y3523234D01*
X6147815Y3555237D02*
G01*
X6193281Y3555237D01*
X6236715Y3618737D02*
G01*
X6236715Y3523234D01*
X6236715Y3618737D02*
G01*
X6268720Y3618737D01*
X6282181Y3614165D01*
X6291325Y3605276D01*
X6295897Y3596131D01*
X6300470Y3582415D01*
X6300470Y3559810D01*
X6295897Y3546094D01*
X6291325Y3536950D01*
X6282181Y3527805D01*
X6268720Y3523234D01*
X6236715Y3523234D01*
X6357620Y3618737D02*
G01*
X6344158Y3614165D01*
X6335013Y3600704D01*
X6330441Y3577844D01*
X6330441Y3564381D01*
X6335013Y3541521D01*
X6344158Y3527805D01*
X6357620Y3523234D01*
X6366763Y3523234D01*
X6380479Y3527805D01*
X6389624Y3541521D01*
X6394195Y3564381D01*
X6394195Y3577844D01*
X6389624Y3600704D01*
X6380479Y3614165D01*
X6366763Y3618737D01*
X6357620Y3618737D01*
X6146800Y3364737D02*
G01*
X6146800Y3269234D01*
X6176772Y3364737D02*
G01*
X6176772Y3269234D01*
X6176772Y3364737D02*
G01*
X6240525Y3269234D01*
X6240525Y3364737D02*
G01*
X6240525Y3269234D01*
X6302247Y3364737D02*
G01*
X6302247Y3269234D01*
X6270497Y3364737D02*
G01*
X6333997Y3364737D01*
X6742938Y4559300D02*
G01*
X6647434Y4559300D01*
X6742938Y4559300D02*
G01*
X6647434Y4522978D01*
X6742938Y4486655D02*
G01*
X6647434Y4522978D01*
X6742938Y4486655D02*
G01*
X6647434Y4486655D01*
X6742938Y4456684D02*
G01*
X6647434Y4456684D01*
X6742938Y4456684D02*
G01*
X6742938Y4415789D01*
X6738365Y4402073D01*
X6733793Y4397502D01*
X6724904Y4392929D01*
X6711188Y4392929D01*
X6702043Y4397502D01*
X6697472Y4402073D01*
X6692900Y4415789D01*
X6692900Y4456684D01*
X6742938Y4362957D02*
G01*
X6674865Y4362957D01*
X6661150Y4358386D01*
X6652006Y4349242D01*
X6647434Y4335779D01*
X6647434Y4326636D01*
X6652006Y4312920D01*
X6661150Y4303776D01*
X6674865Y4299204D01*
X6742938Y4299204D01*
X6729475Y4214876D02*
G01*
X6738365Y4219194D01*
X6742938Y4232910D01*
X6742938Y4242054D01*
X6738365Y4255770D01*
X6724904Y4264660D01*
X6702043Y4269231D01*
X6679438Y4269231D01*
X6661150Y4264660D01*
X6652006Y4255770D01*
X6647434Y4242054D01*
X6647434Y4237481D01*
X6652006Y4223765D01*
X6661150Y4214876D01*
X6674865Y4210304D01*
X6679438Y4210304D01*
X6692900Y4214876D01*
X6702043Y4223765D01*
X6706615Y4237481D01*
X6706615Y4242054D01*
X6702043Y4255770D01*
X6692900Y4264660D01*
X6679438Y4269231D01*
X6742938Y4152900D02*
G01*
X6738365Y4166615D01*
X6724904Y4175760D01*
X6702043Y4180331D01*
X6688581Y4180331D01*
X6665722Y4175760D01*
X6652006Y4166615D01*
X6647434Y4152900D01*
X6647434Y4143755D01*
X6652006Y4130294D01*
X6665722Y4121150D01*
X6688581Y4116578D01*
X6702043Y4116578D01*
X6724904Y4121150D01*
X6738365Y4130294D01*
X6742938Y4143755D01*
X6742938Y4152900D01*
X6742938Y4031995D02*
G01*
X6742938Y4077462D01*
X6702043Y4082034D01*
X6706615Y4077462D01*
X6711188Y4063745D01*
X6711188Y4050284D01*
X6706615Y4036568D01*
X6697472Y4027423D01*
X6684009Y4022852D01*
X6674865Y4022852D01*
X6661150Y4027423D01*
X6652006Y4036568D01*
X6647434Y4050284D01*
X6647434Y4063745D01*
X6652006Y4077462D01*
X6656577Y4082034D01*
X6665722Y4086605D01*
X6742938Y3965702D02*
G01*
X6738365Y3979418D01*
X6724904Y3988307D01*
X6702043Y3992879D01*
X6688581Y3992879D01*
X6665722Y3988307D01*
X6652006Y3979418D01*
X6647434Y3965702D01*
X6647434Y3956557D01*
X6652006Y3942842D01*
X6665722Y3933952D01*
X6688581Y3929379D01*
X6702043Y3929379D01*
X6724904Y3933952D01*
X6738365Y3942842D01*
X6742938Y3956557D01*
X6742938Y3965702D01*
D10*
X6629400Y2807715D02*
G01*
X6629400Y2729737D01*
X6634479Y2714244D01*
X6644893Y2703829D01*
X6660641Y2698750D01*
X6671056Y2698750D01*
X6686550Y2703829D01*
X6696963Y2714244D01*
X6702043Y2729737D01*
X6702043Y2807715D01*
X6788404Y2807715D02*
G01*
X6736334Y2735071D01*
X6814311Y2735071D01*
X6788404Y2807715D02*
G01*
X6788404Y2698750D01*
D11*
X6235700Y2356357D02*
G01*
X6235700Y2241804D01*
X6235700Y2356357D02*
G01*
X6284722Y2356357D01*
X6301231Y2350770D01*
X6306565Y2345436D01*
X6312154Y2334513D01*
X6312154Y2323592D01*
X6306565Y2312670D01*
X6301231Y2307081D01*
X6284722Y2301747D01*
X6235700Y2301747D01*
X6273800Y2301747D02*
G01*
X6312154Y2241804D01*
X6347968Y2356357D02*
G01*
X6347968Y2241804D01*
X6347968Y2356357D02*
G01*
X6419088Y2356357D01*
X6347968Y2301747D02*
G01*
X6391656Y2301747D01*
X6347968Y2241804D02*
G01*
X6419088Y2241804D01*
X6531356Y2339847D02*
G01*
X6520434Y2350770D01*
X6504177Y2356357D01*
X6482334Y2356357D01*
X6465824Y2350770D01*
X6454902Y2339847D01*
X6454902Y2328926D01*
X6460490Y2318004D01*
X6465824Y2312670D01*
X6476745Y2307081D01*
X6509511Y2296413D01*
X6520434Y2290826D01*
X6525768Y2285492D01*
X6531356Y2274570D01*
X6531356Y2258060D01*
X6520434Y2247137D01*
X6504177Y2241804D01*
X6482334Y2241804D01*
X6465824Y2247137D01*
X6454902Y2258060D01*
X6567424Y2356357D02*
G01*
X6567424Y2241804D01*
X6679691Y2339847D02*
G01*
X6668770Y2350770D01*
X6652513Y2356357D01*
X6630670Y2356357D01*
X6614159Y2350770D01*
X6603238Y2339847D01*
X6603238Y2328926D01*
X6608825Y2318004D01*
X6614159Y2312670D01*
X6625081Y2307081D01*
X6657847Y2296413D01*
X6668770Y2290826D01*
X6674358Y2285492D01*
X6679691Y2274570D01*
X6679691Y2258060D01*
X6668770Y2247137D01*
X6652513Y2241804D01*
X6630670Y2241804D01*
X6614159Y2247137D01*
X6603238Y2258060D01*
X6753859Y2356357D02*
G01*
X6753859Y2241804D01*
X6715759Y2356357D02*
G01*
X6791959Y2356357D01*
X6860793Y2356357D02*
G01*
X6849872Y2350770D01*
X6838950Y2339847D01*
X6833615Y2328926D01*
X6828027Y2312670D01*
X6828027Y2285492D01*
X6833615Y2268981D01*
X6838950Y2258060D01*
X6849872Y2247137D01*
X6860793Y2241804D01*
X6882638Y2241804D01*
X6893559Y2247137D01*
X6904481Y2258060D01*
X6909815Y2268981D01*
X6915404Y2285492D01*
X6915404Y2312670D01*
X6909815Y2328926D01*
X6904481Y2339847D01*
X6893559Y2350770D01*
X6882638Y2356357D01*
X6860793Y2356357D01*
X6951218Y2356357D02*
G01*
X6951218Y2241804D01*
X6951218Y2356357D02*
G01*
X7000493Y2356357D01*
X7016750Y2350770D01*
X7022338Y2345436D01*
X7027672Y2334513D01*
X7027672Y2323592D01*
X7022338Y2312670D01*
X7016750Y2307081D01*
X7000493Y2301747D01*
X6951218Y2301747D01*
X6989572Y2301747D02*
G01*
X7027672Y2241804D01*
X6388100Y2488184D02*
G01*
X6469888Y2488184D01*
X6499859Y2488184D02*
G01*
X6581647Y2488184D01*
X6611620Y2488184D02*
G01*
X6693661Y2488184D01*
X6750811Y2615437D02*
G01*
X6741668Y2610865D01*
X6732524Y2601976D01*
X6728206Y2592831D01*
X6723634Y2579115D01*
X6723634Y2556510D01*
X6728206Y2542794D01*
X6732524Y2533650D01*
X6741668Y2524505D01*
X6750811Y2519934D01*
X6769100Y2519934D01*
X6777990Y2524505D01*
X6787134Y2533650D01*
X6791706Y2542794D01*
X6796277Y2556510D01*
X6796277Y2579115D01*
X6791706Y2592831D01*
X6787134Y2601976D01*
X6777990Y2610865D01*
X6769100Y2615437D01*
X6750811Y2615437D01*
X6826250Y2615437D02*
G01*
X6826250Y2519934D01*
X6890004Y2615437D02*
G01*
X6890004Y2519934D01*
X6826250Y2569971D02*
G01*
X6890004Y2569971D01*
X6919975Y2615437D02*
G01*
X6919975Y2519934D01*
X6919975Y2615437D02*
G01*
X6956297Y2519934D01*
X6992620Y2615437D02*
G01*
X6956297Y2519934D01*
X6992620Y2615437D02*
G01*
X6992620Y2519934D01*
D10*
X9245600Y-379984D02*
G01*
X9245600Y-488950D01*
X9245600Y-488950D02*
G01*
X9307829Y-488950D01*
X9342120Y-379984D02*
G01*
X9342120Y-488950D01*
X9342120Y-379984D02*
G01*
X9409684Y-379984D01*
X9342120Y-431800D02*
G01*
X9383775Y-431800D01*
X9342120Y-488950D02*
G01*
X9409684Y-488950D01*
X9443974Y-379984D02*
G01*
X9443974Y-488950D01*
X9443974Y-379984D02*
G01*
X9480550Y-379984D01*
X9496043Y-385063D01*
X9506458Y-395478D01*
X9511538Y-405892D01*
X9516872Y-421639D01*
X9516872Y-447547D01*
X9511538Y-463042D01*
X9506458Y-473455D01*
X9496043Y-483870D01*
X9480550Y-488950D01*
X9443974Y-488950D01*
X9551161Y-400812D02*
G01*
X9561575Y-395478D01*
X9577070Y-379984D01*
X9577070Y-488950D01*
D11*
X9189465Y-590550D02*
G01*
X9189465Y-656081D01*
X9156700Y-623315D02*
G01*
X9222231Y-623315D01*
D10*
X9220200Y128015D02*
G01*
X9220200Y19050D01*
X9220200Y19050D02*
G01*
X9282429Y19050D01*
X9316720Y128015D02*
G01*
X9316720Y19050D01*
X9316720Y128015D02*
G01*
X9384284Y128015D01*
X9316720Y76200D02*
G01*
X9358375Y76200D01*
X9316720Y19050D02*
G01*
X9384284Y19050D01*
X9418574Y128015D02*
G01*
X9418574Y19050D01*
X9418574Y128015D02*
G01*
X9455150Y128015D01*
X9470643Y122936D01*
X9481058Y112521D01*
X9486138Y102107D01*
X9491472Y86360D01*
X9491472Y60452D01*
X9486138Y44957D01*
X9481058Y34544D01*
X9470643Y24129D01*
X9455150Y19050D01*
X9418574Y19050D01*
X9536175Y128015D02*
G01*
X9593325Y128015D01*
X9562084Y86360D01*
X9577577Y86360D01*
X9587991Y81279D01*
X9593325Y76200D01*
X9598406Y60452D01*
X9598406Y50037D01*
X9593325Y34544D01*
X9582911Y24129D01*
X9567163Y19050D01*
X9551670Y19050D01*
X9536175Y24129D01*
X9530841Y29210D01*
X9525761Y39623D01*
D11*
X9176765Y-69850D02*
G01*
X9176765Y-135381D01*
X9144000Y-102615D02*
G01*
X9209531Y-102615D01*
D10*
X2832277Y4499990D02*
G01*
X2941243Y4499990D01*
X2832277Y4499990D02*
G01*
X2941243Y4541646D01*
X2832277Y4583048D02*
G01*
X2941243Y4541646D01*
X2832277Y4583048D02*
G01*
X2941243Y4583048D01*
X2853105Y4617338D02*
G01*
X2847771Y4627753D01*
X2832277Y4643501D01*
X2941243Y4643501D01*
X8232266Y4499990D02*
G01*
X8341233Y4499990D01*
X8232266Y4499990D02*
G01*
X8341233Y4541646D01*
X8232266Y4583048D02*
G01*
X8341233Y4541646D01*
X8232266Y4583048D02*
G01*
X8341233Y4583048D01*
X8258175Y4622672D02*
G01*
X8253095Y4622672D01*
X8242681Y4627753D01*
X8237347Y4633087D01*
X8232266Y4643501D01*
X8232266Y4664075D01*
X8237347Y4674488D01*
X8242681Y4679822D01*
X8253095Y4684903D01*
X8263509Y4684903D01*
X8273922Y4679822D01*
X8289416Y4669409D01*
X8341233Y4617338D01*
X8341233Y4690237D01*
X8232266Y-2499995D02*
G01*
X8341233Y-2499995D01*
X8232266Y-2499995D02*
G01*
X8341233Y-2458338D01*
X8232266Y-2416937D02*
G01*
X8341233Y-2458338D01*
X8232266Y-2416937D02*
G01*
X8341233Y-2416937D01*
X8232266Y-2372232D02*
G01*
X8232266Y-2315082D01*
X8273922Y-2346325D01*
X8273922Y-2330577D01*
X8279002Y-2320162D01*
X8284083Y-2315082D01*
X8299831Y-2309748D01*
X8310245Y-2309748D01*
X8325738Y-2315082D01*
X8336152Y-2325496D01*
X8341233Y-2340990D01*
X8341233Y-2356485D01*
X8336152Y-2372232D01*
X8331072Y-2377312D01*
X8320659Y-2382646D01*
X2832277Y-2499995D02*
G01*
X2941243Y-2499995D01*
X2832277Y-2499995D02*
G01*
X2941243Y-2458338D01*
X2832277Y-2416937D02*
G01*
X2941243Y-2458338D01*
X2832277Y-2416937D02*
G01*
X2941243Y-2416937D01*
X2832277Y-2330577D02*
G01*
X2904921Y-2382646D01*
X2904921Y-2304669D01*
X2832277Y-2330577D02*
G01*
X2941243Y-2330577D01*
D11*
X4247641Y-3060700D02*
G01*
X4362195Y-3060700D01*
X4247641Y-3060700D02*
G01*
X4247641Y-3011678D01*
X4253229Y-2995168D01*
X4258563Y-2989834D01*
X4269486Y-2984245D01*
X4280408Y-2984245D01*
X4291329Y-2989834D01*
X4296918Y-2995168D01*
X4302252Y-3011678D01*
X4302252Y-3060700D01*
X4302252Y-3022600D02*
G01*
X4362195Y-2984245D01*
X4247641Y-2948431D02*
G01*
X4362195Y-2948431D01*
X4247641Y-2948431D02*
G01*
X4247641Y-2877312D01*
X4302252Y-2948431D02*
G01*
X4302252Y-2904744D01*
X4362195Y-2948431D02*
G01*
X4362195Y-2877312D01*
X4264152Y-2765044D02*
G01*
X4253229Y-2775965D01*
X4247641Y-2792221D01*
X4247641Y-2814065D01*
X4253229Y-2830576D01*
X4264152Y-2841497D01*
X4275074Y-2841497D01*
X4285995Y-2835910D01*
X4291329Y-2830576D01*
X4296918Y-2819654D01*
X4307586Y-2786887D01*
X4313174Y-2775965D01*
X4318508Y-2770631D01*
X4329429Y-2765044D01*
X4345940Y-2765044D01*
X4356861Y-2775965D01*
X4362195Y-2792221D01*
X4362195Y-2814065D01*
X4356861Y-2830576D01*
X4345940Y-2841497D01*
X4247641Y-2728976D02*
G01*
X4362195Y-2728976D01*
X4264152Y-2616707D02*
G01*
X4253229Y-2627629D01*
X4247641Y-2643886D01*
X4247641Y-2665729D01*
X4253229Y-2682239D01*
X4264152Y-2693162D01*
X4275074Y-2693162D01*
X4285995Y-2687573D01*
X4291329Y-2682239D01*
X4296918Y-2671318D01*
X4307586Y-2638552D01*
X4313174Y-2627629D01*
X4318508Y-2622042D01*
X4329429Y-2616707D01*
X4345940Y-2616707D01*
X4356861Y-2627629D01*
X4362195Y-2643886D01*
X4362195Y-2665729D01*
X4356861Y-2682239D01*
X4345940Y-2693162D01*
X4247641Y-2542539D02*
G01*
X4362195Y-2542539D01*
X4247641Y-2580639D02*
G01*
X4247641Y-2504439D01*
X4247641Y-2435605D02*
G01*
X4253229Y-2446528D01*
X4264152Y-2457450D01*
X4275074Y-2462784D01*
X4291329Y-2468371D01*
X4318508Y-2468371D01*
X4335018Y-2462784D01*
X4345940Y-2457450D01*
X4356861Y-2446528D01*
X4362195Y-2435605D01*
X4362195Y-2413762D01*
X4356861Y-2402839D01*
X4345940Y-2391918D01*
X4335018Y-2386584D01*
X4318508Y-2380995D01*
X4291329Y-2380995D01*
X4275074Y-2386584D01*
X4264152Y-2391918D01*
X4253229Y-2402839D01*
X4247641Y-2413762D01*
X4247641Y-2435605D01*
X4247641Y-2345181D02*
G01*
X4362195Y-2345181D01*
X4247641Y-2345181D02*
G01*
X4247641Y-2295905D01*
X4253229Y-2279650D01*
X4258563Y-2274062D01*
X4269486Y-2268728D01*
X4280408Y-2268728D01*
X4291329Y-2274062D01*
X4296918Y-2279650D01*
X4302252Y-2295905D01*
X4302252Y-2345181D01*
X4302252Y-2306828D02*
G01*
X4362195Y-2268728D01*
X4065015Y-2984500D02*
G01*
X4065015Y-2902712D01*
X4065015Y-2872739D02*
G01*
X4065015Y-2790952D01*
X4065015Y-2760979D02*
G01*
X4065015Y-2678937D01*
X3937761Y-2621787D02*
G01*
X3942334Y-2630931D01*
X3951224Y-2640076D01*
X3960368Y-2644394D01*
X3974084Y-2648965D01*
X3996690Y-2648965D01*
X4010406Y-2644394D01*
X4019550Y-2640076D01*
X4028693Y-2630931D01*
X4033265Y-2621787D01*
X4033265Y-2603500D01*
X4028693Y-2594610D01*
X4019550Y-2585465D01*
X4010406Y-2580894D01*
X3996690Y-2576321D01*
X3974084Y-2576321D01*
X3960368Y-2580894D01*
X3951224Y-2585465D01*
X3942334Y-2594610D01*
X3937761Y-2603500D01*
X3937761Y-2621787D01*
X3937761Y-2546350D02*
G01*
X4033265Y-2546350D01*
X3937761Y-2482595D02*
G01*
X4033265Y-2482595D01*
X3983227Y-2546350D02*
G01*
X3983227Y-2482595D01*
X3937761Y-2452623D02*
G01*
X4033265Y-2452623D01*
X3937761Y-2452623D02*
G01*
X4033265Y-2416302D01*
X3937761Y-2379979D02*
G01*
X4033265Y-2416302D01*
X3937761Y-2379979D02*
G01*
X4033265Y-2379979D01*
D10*
X3745484Y-2743200D02*
G01*
X3823461Y-2743200D01*
X3838956Y-2738120D01*
X3849370Y-2727705D01*
X3854450Y-2711957D01*
X3854450Y-2701544D01*
X3849370Y-2686050D01*
X3838956Y-2675636D01*
X3823461Y-2670555D01*
X3745484Y-2670555D01*
X3745484Y-2573781D02*
G01*
X3745484Y-2625852D01*
X3792220Y-2630931D01*
X3787140Y-2625852D01*
X3781806Y-2610104D01*
X3781806Y-2594610D01*
X3787140Y-2579115D01*
X3797300Y-2568702D01*
X3813047Y-2563368D01*
X3823461Y-2563368D01*
X3838956Y-2568702D01*
X3849370Y-2579115D01*
X3854450Y-2594610D01*
X3854450Y-2610104D01*
X3849370Y-2625852D01*
X3844290Y-2630931D01*
X3833875Y-2636265D01*
D11*
X6770598Y-2391333D02*
G01*
X6770598Y-2505887D01*
X6770598Y-2391333D02*
G01*
X6819620Y-2391333D01*
X6836130Y-2396921D01*
X6841464Y-2402255D01*
X6847052Y-2413177D01*
X6847052Y-2424099D01*
X6841464Y-2435021D01*
X6836130Y-2440609D01*
X6819620Y-2445943D01*
X6770598Y-2445943D01*
X6808698Y-2445943D02*
G01*
X6847052Y-2505887D01*
X6882866Y-2391333D02*
G01*
X6882866Y-2505887D01*
X6882866Y-2391333D02*
G01*
X6953986Y-2391333D01*
X6882866Y-2445943D02*
G01*
X6926554Y-2445943D01*
X6882866Y-2505887D02*
G01*
X6953986Y-2505887D01*
X7066254Y-2407843D02*
G01*
X7055332Y-2396921D01*
X7039076Y-2391333D01*
X7017232Y-2391333D01*
X7000722Y-2396921D01*
X6989800Y-2407843D01*
X6989800Y-2418765D01*
X6995388Y-2429687D01*
X7000722Y-2435021D01*
X7011644Y-2440609D01*
X7044410Y-2451277D01*
X7055332Y-2456865D01*
X7060666Y-2462199D01*
X7066254Y-2473121D01*
X7066254Y-2489631D01*
X7055332Y-2500553D01*
X7039076Y-2505887D01*
X7017232Y-2505887D01*
X7000722Y-2500553D01*
X6989800Y-2489631D01*
X7102322Y-2391333D02*
G01*
X7102322Y-2505887D01*
X7214590Y-2407843D02*
G01*
X7203668Y-2396921D01*
X7187412Y-2391333D01*
X7165568Y-2391333D01*
X7149058Y-2396921D01*
X7138136Y-2407843D01*
X7138136Y-2418765D01*
X7143724Y-2429687D01*
X7149058Y-2435021D01*
X7159980Y-2440609D01*
X7192746Y-2451277D01*
X7203668Y-2456865D01*
X7209256Y-2462199D01*
X7214590Y-2473121D01*
X7214590Y-2489631D01*
X7203668Y-2500553D01*
X7187412Y-2505887D01*
X7165568Y-2505887D01*
X7149058Y-2500553D01*
X7138136Y-2489631D01*
X7288758Y-2391333D02*
G01*
X7288758Y-2505887D01*
X7250658Y-2391333D02*
G01*
X7326858Y-2391333D01*
X7395692Y-2391333D02*
G01*
X7384770Y-2396921D01*
X7373848Y-2407843D01*
X7368514Y-2418765D01*
X7362926Y-2435021D01*
X7362926Y-2462199D01*
X7368514Y-2478709D01*
X7373848Y-2489631D01*
X7384770Y-2500553D01*
X7395692Y-2505887D01*
X7417536Y-2505887D01*
X7428458Y-2500553D01*
X7439380Y-2489631D01*
X7444714Y-2478709D01*
X7450302Y-2462199D01*
X7450302Y-2435021D01*
X7444714Y-2418765D01*
X7439380Y-2407843D01*
X7428458Y-2396921D01*
X7417536Y-2391333D01*
X7395692Y-2391333D01*
X7486116Y-2391333D02*
G01*
X7486116Y-2505887D01*
X7486116Y-2391333D02*
G01*
X7535392Y-2391333D01*
X7551648Y-2396921D01*
X7557236Y-2402255D01*
X7562570Y-2413177D01*
X7562570Y-2424099D01*
X7557236Y-2435021D01*
X7551648Y-2440609D01*
X7535392Y-2445943D01*
X7486116Y-2445943D01*
X7524470Y-2445943D02*
G01*
X7562570Y-2505887D01*
X6858000Y-2274315D02*
G01*
X6939788Y-2274315D01*
X6969759Y-2274315D02*
G01*
X7051547Y-2274315D01*
X7081520Y-2274315D02*
G01*
X7163561Y-2274315D01*
X7220711Y-2147062D02*
G01*
X7211568Y-2151634D01*
X7202424Y-2160523D01*
X7198106Y-2169668D01*
X7193534Y-2183384D01*
X7193534Y-2205989D01*
X7198106Y-2219705D01*
X7202424Y-2228850D01*
X7211568Y-2237994D01*
X7220711Y-2242565D01*
X7239000Y-2242565D01*
X7247890Y-2237994D01*
X7257034Y-2228850D01*
X7261606Y-2219705D01*
X7266177Y-2205989D01*
X7266177Y-2183384D01*
X7261606Y-2169668D01*
X7257034Y-2160523D01*
X7247890Y-2151634D01*
X7239000Y-2147062D01*
X7220711Y-2147062D01*
X7296150Y-2147062D02*
G01*
X7296150Y-2242565D01*
X7359904Y-2147062D02*
G01*
X7359904Y-2242565D01*
X7296150Y-2192528D02*
G01*
X7359904Y-2192528D01*
X7389875Y-2147062D02*
G01*
X7389875Y-2242565D01*
X7389875Y-2147062D02*
G01*
X7426197Y-2242565D01*
X7462520Y-2147062D02*
G01*
X7426197Y-2242565D01*
X7462520Y-2147062D02*
G01*
X7462520Y-2242565D01*
D10*
X7099300Y-1954784D02*
G01*
X7099300Y-2032762D01*
X7104379Y-2048255D01*
X7114793Y-2058670D01*
X7130541Y-2063750D01*
X7140956Y-2063750D01*
X7156450Y-2058670D01*
X7166863Y-2048255D01*
X7171943Y-2032762D01*
X7171943Y-1954784D01*
X7206234Y-1975612D02*
G01*
X7216647Y-1970278D01*
X7232395Y-1954784D01*
X7232395Y-2063750D01*
X7271765Y-1980692D02*
G01*
X7271765Y-1975612D01*
X7277100Y-1965197D01*
X7282179Y-1959863D01*
X7292593Y-1954784D01*
X7313422Y-1954784D01*
X7323836Y-1959863D01*
X7328915Y-1965197D01*
X7334250Y-1975612D01*
X7334250Y-1986026D01*
X7328915Y-1996439D01*
X7318502Y-2011934D01*
X7266686Y-2063750D01*
X7339329Y-2063750D01*
D11*
X3676141Y-3124200D02*
G01*
X3790695Y-3124200D01*
X3676141Y-3124200D02*
G01*
X3676141Y-3075178D01*
X3681729Y-3058668D01*
X3687063Y-3053334D01*
X3697986Y-3047745D01*
X3708908Y-3047745D01*
X3719829Y-3053334D01*
X3725418Y-3058668D01*
X3730752Y-3075178D01*
X3730752Y-3124200D01*
X3730752Y-3086100D02*
G01*
X3790695Y-3047745D01*
X3676141Y-3011931D02*
G01*
X3790695Y-3011931D01*
X3676141Y-3011931D02*
G01*
X3676141Y-2940812D01*
X3730752Y-3011931D02*
G01*
X3730752Y-2968244D01*
X3790695Y-3011931D02*
G01*
X3790695Y-2940812D01*
X3692652Y-2828544D02*
G01*
X3681729Y-2839465D01*
X3676141Y-2855721D01*
X3676141Y-2877565D01*
X3681729Y-2894076D01*
X3692652Y-2904997D01*
X3703574Y-2904997D01*
X3714495Y-2899410D01*
X3719829Y-2894076D01*
X3725418Y-2883154D01*
X3736086Y-2850387D01*
X3741674Y-2839465D01*
X3747008Y-2834131D01*
X3757929Y-2828544D01*
X3774440Y-2828544D01*
X3785361Y-2839465D01*
X3790695Y-2855721D01*
X3790695Y-2877565D01*
X3785361Y-2894076D01*
X3774440Y-2904997D01*
X3676141Y-2792476D02*
G01*
X3790695Y-2792476D01*
X3692652Y-2680207D02*
G01*
X3681729Y-2691129D01*
X3676141Y-2707386D01*
X3676141Y-2729229D01*
X3681729Y-2745739D01*
X3692652Y-2756662D01*
X3703574Y-2756662D01*
X3714495Y-2751073D01*
X3719829Y-2745739D01*
X3725418Y-2734818D01*
X3736086Y-2702052D01*
X3741674Y-2691129D01*
X3747008Y-2685542D01*
X3757929Y-2680207D01*
X3774440Y-2680207D01*
X3785361Y-2691129D01*
X3790695Y-2707386D01*
X3790695Y-2729229D01*
X3785361Y-2745739D01*
X3774440Y-2756662D01*
X3676141Y-2606039D02*
G01*
X3790695Y-2606039D01*
X3676141Y-2644139D02*
G01*
X3676141Y-2567939D01*
X3676141Y-2499105D02*
G01*
X3681729Y-2510028D01*
X3692652Y-2520950D01*
X3703574Y-2526284D01*
X3719829Y-2531871D01*
X3747008Y-2531871D01*
X3763518Y-2526284D01*
X3774440Y-2520950D01*
X3785361Y-2510028D01*
X3790695Y-2499105D01*
X3790695Y-2477262D01*
X3785361Y-2466339D01*
X3774440Y-2455418D01*
X3763518Y-2450084D01*
X3747008Y-2444495D01*
X3719829Y-2444495D01*
X3703574Y-2450084D01*
X3692652Y-2455418D01*
X3681729Y-2466339D01*
X3676141Y-2477262D01*
X3676141Y-2499105D01*
X3676141Y-2408681D02*
G01*
X3790695Y-2408681D01*
X3676141Y-2408681D02*
G01*
X3676141Y-2359405D01*
X3681729Y-2343150D01*
X3687063Y-2337562D01*
X3697986Y-2332228D01*
X3708908Y-2332228D01*
X3719829Y-2337562D01*
X3725418Y-2343150D01*
X3730752Y-2359405D01*
X3730752Y-2408681D01*
X3730752Y-2370328D02*
G01*
X3790695Y-2332228D01*
X3569726Y-2971800D02*
G01*
X3569726Y-2890012D01*
X3569726Y-2860039D02*
G01*
X3569726Y-2778252D01*
X3569726Y-2748279D02*
G01*
X3569726Y-2666237D01*
X3442472Y-2609087D02*
G01*
X3447044Y-2618231D01*
X3455934Y-2627376D01*
X3465078Y-2631694D01*
X3478794Y-2636265D01*
X3501400Y-2636265D01*
X3515116Y-2631694D01*
X3524260Y-2627376D01*
X3533404Y-2618231D01*
X3537976Y-2609087D01*
X3537976Y-2590800D01*
X3533404Y-2581910D01*
X3524260Y-2572765D01*
X3515116Y-2568194D01*
X3501400Y-2563621D01*
X3478794Y-2563621D01*
X3465078Y-2568194D01*
X3455934Y-2572765D01*
X3447044Y-2581910D01*
X3442472Y-2590800D01*
X3442472Y-2609087D01*
X3442472Y-2533650D02*
G01*
X3537976Y-2533650D01*
X3442472Y-2469895D02*
G01*
X3537976Y-2469895D01*
X3487938Y-2533650D02*
G01*
X3487938Y-2469895D01*
X3442472Y-2439923D02*
G01*
X3537976Y-2439923D01*
X3442472Y-2439923D02*
G01*
X3537976Y-2403602D01*
X3442472Y-2367279D02*
G01*
X3537976Y-2403602D01*
X3442472Y-2367279D02*
G01*
X3537976Y-2367279D01*
D10*
X3173984Y-2743200D02*
G01*
X3251961Y-2743200D01*
X3267456Y-2738120D01*
X3277870Y-2727705D01*
X3282950Y-2711957D01*
X3282950Y-2701544D01*
X3277870Y-2686050D01*
X3267456Y-2675636D01*
X3251961Y-2670555D01*
X3173984Y-2670555D01*
X3194811Y-2636265D02*
G01*
X3189477Y-2625852D01*
X3173984Y-2610104D01*
X3282950Y-2610104D01*
X3173984Y-2565400D02*
G01*
X3173984Y-2508250D01*
X3215640Y-2539492D01*
X3215640Y-2523997D01*
X3220720Y-2513584D01*
X3225800Y-2508250D01*
X3241547Y-2503170D01*
X3251961Y-2503170D01*
X3267456Y-2508250D01*
X3277870Y-2518663D01*
X3282950Y-2534412D01*
X3282950Y-2549905D01*
X3277870Y-2565400D01*
X3272790Y-2570734D01*
X3262375Y-2575813D01*
D11*
X6718300Y-3041142D02*
G01*
X6718300Y-3155695D01*
X6718300Y-3041142D02*
G01*
X6767322Y-3041142D01*
X6783831Y-3046729D01*
X6789165Y-3052063D01*
X6794754Y-3062986D01*
X6794754Y-3073907D01*
X6789165Y-3084829D01*
X6783831Y-3090418D01*
X6767322Y-3095752D01*
X6718300Y-3095752D01*
X6756400Y-3095752D02*
G01*
X6794754Y-3155695D01*
X6830568Y-3041142D02*
G01*
X6830568Y-3155695D01*
X6830568Y-3041142D02*
G01*
X6901688Y-3041142D01*
X6830568Y-3095752D02*
G01*
X6874256Y-3095752D01*
X6830568Y-3155695D02*
G01*
X6901688Y-3155695D01*
X7013956Y-3057652D02*
G01*
X7003034Y-3046729D01*
X6986777Y-3041142D01*
X6964934Y-3041142D01*
X6948424Y-3046729D01*
X6937502Y-3057652D01*
X6937502Y-3068573D01*
X6943090Y-3079495D01*
X6948424Y-3084829D01*
X6959345Y-3090418D01*
X6992111Y-3101086D01*
X7003034Y-3106673D01*
X7008368Y-3112007D01*
X7013956Y-3122929D01*
X7013956Y-3139439D01*
X7003034Y-3150362D01*
X6986777Y-3155695D01*
X6964934Y-3155695D01*
X6948424Y-3150362D01*
X6937502Y-3139439D01*
X7050024Y-3041142D02*
G01*
X7050024Y-3155695D01*
X7162291Y-3057652D02*
G01*
X7151370Y-3046729D01*
X7135113Y-3041142D01*
X7113270Y-3041142D01*
X7096759Y-3046729D01*
X7085838Y-3057652D01*
X7085838Y-3068573D01*
X7091425Y-3079495D01*
X7096759Y-3084829D01*
X7107681Y-3090418D01*
X7140447Y-3101086D01*
X7151370Y-3106673D01*
X7156958Y-3112007D01*
X7162291Y-3122929D01*
X7162291Y-3139439D01*
X7151370Y-3150362D01*
X7135113Y-3155695D01*
X7113270Y-3155695D01*
X7096759Y-3150362D01*
X7085838Y-3139439D01*
X7236459Y-3041142D02*
G01*
X7236459Y-3155695D01*
X7198359Y-3041142D02*
G01*
X7274559Y-3041142D01*
X7343393Y-3041142D02*
G01*
X7332472Y-3046729D01*
X7321550Y-3057652D01*
X7316215Y-3068573D01*
X7310627Y-3084829D01*
X7310627Y-3112007D01*
X7316215Y-3128518D01*
X7321550Y-3139439D01*
X7332472Y-3150362D01*
X7343393Y-3155695D01*
X7365238Y-3155695D01*
X7376159Y-3150362D01*
X7387081Y-3139439D01*
X7392415Y-3128518D01*
X7398004Y-3112007D01*
X7398004Y-3084829D01*
X7392415Y-3068573D01*
X7387081Y-3057652D01*
X7376159Y-3046729D01*
X7365238Y-3041142D01*
X7343393Y-3041142D01*
X7433818Y-3041142D02*
G01*
X7433818Y-3155695D01*
X7433818Y-3041142D02*
G01*
X7483093Y-3041142D01*
X7499350Y-3046729D01*
X7504938Y-3052063D01*
X7510272Y-3062986D01*
X7510272Y-3073907D01*
X7504938Y-3084829D01*
X7499350Y-3090418D01*
X7483093Y-3095752D01*
X7433818Y-3095752D01*
X7472172Y-3095752D02*
G01*
X7510272Y-3155695D01*
X6858000Y-2858515D02*
G01*
X6939788Y-2858515D01*
X6969759Y-2858515D02*
G01*
X7051547Y-2858515D01*
X7081520Y-2858515D02*
G01*
X7163561Y-2858515D01*
X7220711Y-2731262D02*
G01*
X7211568Y-2735834D01*
X7202424Y-2744723D01*
X7198106Y-2753868D01*
X7193534Y-2767584D01*
X7193534Y-2790189D01*
X7198106Y-2803905D01*
X7202424Y-2813050D01*
X7211568Y-2822194D01*
X7220711Y-2826765D01*
X7239000Y-2826765D01*
X7247890Y-2822194D01*
X7257034Y-2813050D01*
X7261606Y-2803905D01*
X7266177Y-2790189D01*
X7266177Y-2767584D01*
X7261606Y-2753868D01*
X7257034Y-2744723D01*
X7247890Y-2735834D01*
X7239000Y-2731262D01*
X7220711Y-2731262D01*
X7296150Y-2731262D02*
G01*
X7296150Y-2826765D01*
X7359904Y-2731262D02*
G01*
X7359904Y-2826765D01*
X7296150Y-2776728D02*
G01*
X7359904Y-2776728D01*
X7389875Y-2731262D02*
G01*
X7389875Y-2826765D01*
X7389875Y-2731262D02*
G01*
X7426197Y-2826765D01*
X7462520Y-2731262D02*
G01*
X7426197Y-2826765D01*
X7462520Y-2731262D02*
G01*
X7462520Y-2826765D01*
D10*
X7099300Y-2538984D02*
G01*
X7099300Y-2616962D01*
X7104379Y-2632455D01*
X7114793Y-2642870D01*
X7130541Y-2647950D01*
X7140956Y-2647950D01*
X7156450Y-2642870D01*
X7166863Y-2632455D01*
X7171943Y-2616962D01*
X7171943Y-2538984D01*
X7211568Y-2564892D02*
G01*
X7211568Y-2559812D01*
X7216647Y-2549397D01*
X7221981Y-2544063D01*
X7232395Y-2538984D01*
X7252970Y-2538984D01*
X7263384Y-2544063D01*
X7268718Y-2549397D01*
X7273797Y-2559812D01*
X7273797Y-2570226D01*
X7268718Y-2580639D01*
X7258304Y-2596134D01*
X7206234Y-2647950D01*
X7279131Y-2647950D01*
X7344409Y-2538984D02*
G01*
X7328915Y-2544063D01*
X7318502Y-2559812D01*
X7313422Y-2585720D01*
X7313422Y-2601213D01*
X7318502Y-2627376D01*
X7328915Y-2642870D01*
X7344409Y-2647950D01*
X7354824Y-2647950D01*
X7370572Y-2642870D01*
X7380986Y-2627376D01*
X7386065Y-2601213D01*
X7386065Y-2585720D01*
X7380986Y-2559812D01*
X7370572Y-2544063D01*
X7354824Y-2538984D01*
X7344409Y-2538984D01*
D11*
X9207754Y723137D02*
G01*
X9162288Y627634D01*
X9144000Y723137D02*
G01*
X9207754Y723137D01*
X9246615Y645921D02*
G01*
X9242297Y641350D01*
X9237725Y645921D01*
X9242297Y650494D01*
X9246615Y645921D01*
X9246615Y636778D01*
X9237725Y627634D01*
X9331197Y709676D02*
G01*
X9326625Y718565D01*
X9313163Y723137D01*
X9304020Y723137D01*
X9290304Y718565D01*
X9281159Y705104D01*
X9276841Y682244D01*
X9276841Y659637D01*
X9281159Y641350D01*
X9290304Y632205D01*
X9304020Y627634D01*
X9308591Y627634D01*
X9322308Y632205D01*
X9331197Y641350D01*
X9335770Y655065D01*
X9335770Y659637D01*
X9331197Y673100D01*
X9322308Y682244D01*
X9308591Y686815D01*
X9304020Y686815D01*
X9290304Y682244D01*
X9281159Y673100D01*
X9276841Y659637D01*
X9365741Y723137D02*
G01*
X9402063Y627634D01*
X9438640Y723137D02*
G01*
X9402063Y627634D01*
X9212072Y446531D02*
G01*
X9207754Y455676D01*
X9198609Y464565D01*
X9189465Y469137D01*
X9171177Y469137D01*
X9162288Y464565D01*
X9153143Y455676D01*
X9148572Y446531D01*
X9144000Y432815D01*
X9144000Y410210D01*
X9148572Y396494D01*
X9153143Y387350D01*
X9162288Y378205D01*
X9171177Y373634D01*
X9189465Y373634D01*
X9198609Y378205D01*
X9207754Y387350D01*
X9212072Y396494D01*
X9212072Y410210D01*
X9189465Y410210D02*
G01*
X9212072Y410210D01*
X9242297Y469137D02*
G01*
X9242297Y373634D01*
X9242297Y469137D02*
G01*
X9305797Y373634D01*
X9305797Y469137D02*
G01*
X9305797Y373634D01*
X9335770Y469137D02*
G01*
X9335770Y373634D01*
X9335770Y469137D02*
G01*
X9367520Y469137D01*
X9381236Y464565D01*
X9390379Y455676D01*
X9394952Y446531D01*
X9399524Y432815D01*
X9399524Y410210D01*
X9394952Y396494D01*
X9390379Y387350D01*
X9381236Y378205D01*
X9367520Y373634D01*
X9335770Y373634D01*
D10*
X9131300Y953515D02*
G01*
X9131300Y875537D01*
X9136379Y860044D01*
X9146793Y849629D01*
X9162541Y844550D01*
X9172956Y844550D01*
X9188450Y849629D01*
X9198863Y860044D01*
X9203943Y875537D01*
X9203943Y953515D01*
X9300718Y938021D02*
G01*
X9295384Y948436D01*
X9279890Y953515D01*
X9269475Y953515D01*
X9253981Y948436D01*
X9243568Y932687D01*
X9238234Y906779D01*
X9238234Y880871D01*
X9243568Y860044D01*
X9253981Y849629D01*
X9269475Y844550D01*
X9274809Y844550D01*
X9290304Y849629D01*
X9300718Y860044D01*
X9305797Y875537D01*
X9305797Y880871D01*
X9300718Y896365D01*
X9290304Y906779D01*
X9274809Y911860D01*
X9269475Y911860D01*
X9253981Y906779D01*
X9243568Y896365D01*
X9238234Y880871D01*
X1824278Y3653993D02*
G01*
X1902256Y3653993D01*
X1917750Y3659073D01*
X1928164Y3669487D01*
X1933244Y3685235D01*
X1933244Y3695649D01*
X1928164Y3711143D01*
X1917750Y3721557D01*
X1902256Y3726637D01*
X1824278Y3726637D01*
X1824278Y3833825D02*
G01*
X1933244Y3781755D01*
X1824278Y3760927D02*
G01*
X1824278Y3833825D01*
D11*
X2055418Y3666947D02*
G01*
X2046528Y3657803D01*
X2041956Y3644087D01*
X2041956Y3625799D01*
X2046528Y3612337D01*
X2055418Y3603193D01*
X2064562Y3603193D01*
X2073706Y3607765D01*
X2078278Y3612337D01*
X2082850Y3621481D01*
X2091994Y3648659D01*
X2096312Y3657803D01*
X2100884Y3662375D01*
X2110028Y3666947D01*
X2123744Y3666947D01*
X2132888Y3657803D01*
X2137460Y3644087D01*
X2137460Y3625799D01*
X2132888Y3612337D01*
X2123744Y3603193D01*
X2041956Y3696919D02*
G01*
X2137460Y3696919D01*
X2064562Y3794963D02*
G01*
X2055418Y3790391D01*
X2046528Y3781501D01*
X2041956Y3772357D01*
X2041956Y3754069D01*
X2046528Y3744925D01*
X2055418Y3736035D01*
X2064562Y3731463D01*
X2078278Y3726891D01*
X2100884Y3726891D01*
X2114600Y3731463D01*
X2123744Y3736035D01*
X2132888Y3744925D01*
X2137460Y3754069D01*
X2137460Y3772357D01*
X2132888Y3781501D01*
X2123744Y3790391D01*
X2114600Y3794963D01*
X2100884Y3794963D01*
X2100884Y3772357D02*
G01*
X2100884Y3794963D01*
X2041956Y3824935D02*
G01*
X2137460Y3824935D01*
X2041956Y3824935D02*
G01*
X2137460Y3888689D01*
X2041956Y3888689D02*
G01*
X2137460Y3888689D01*
X2041956Y3954983D02*
G01*
X2137460Y3918661D01*
X2041956Y3954983D02*
G01*
X2137460Y3991305D01*
X2105456Y3932377D02*
G01*
X2105456Y3977843D01*
X2041956Y4021277D02*
G01*
X2137460Y4021277D01*
X2137460Y4021277D02*
G01*
X2137460Y4075887D01*
X2308656Y3590493D02*
G01*
X2404160Y3626815D01*
X2308656Y3663137D02*
G01*
X2404160Y3626815D01*
X2331262Y3761435D02*
G01*
X2322118Y3756863D01*
X2313228Y3747719D01*
X2308656Y3738575D01*
X2308656Y3720541D01*
X2313228Y3711397D01*
X2322118Y3702253D01*
X2331262Y3697681D01*
X2344978Y3693109D01*
X2367584Y3693109D01*
X2381300Y3697681D01*
X2390444Y3702253D01*
X2399588Y3711397D01*
X2404160Y3720541D01*
X2404160Y3738575D01*
X2399588Y3747719D01*
X2390444Y3756863D01*
X2381300Y3761435D01*
X2331262Y3859479D02*
G01*
X2322118Y3855161D01*
X2313228Y3846017D01*
X2308656Y3836873D01*
X2308656Y3818585D01*
X2313228Y3809695D01*
X2322118Y3800551D01*
X2331262Y3795979D01*
X2344978Y3791407D01*
X2367584Y3791407D01*
X2381300Y3795979D01*
X2390444Y3800551D01*
X2399588Y3809695D01*
X2404160Y3818585D01*
X2404160Y3836873D01*
X2399588Y3846017D01*
X2390444Y3855161D01*
X2381300Y3859479D01*
X2585262Y3658565D02*
G01*
X2576118Y3654247D01*
X2567228Y3645103D01*
X2562656Y3635959D01*
X2562656Y3617671D01*
X2567228Y3608781D01*
X2576118Y3599637D01*
X2585262Y3595065D01*
X2598978Y3590493D01*
X2621584Y3590493D01*
X2635300Y3595065D01*
X2644444Y3599637D01*
X2653588Y3608781D01*
X2658160Y3617671D01*
X2658160Y3635959D01*
X2653588Y3645103D01*
X2644444Y3654247D01*
X2635300Y3658565D01*
X2621584Y3658565D01*
X2621584Y3635959D02*
G01*
X2621584Y3658565D01*
X2562656Y3688791D02*
G01*
X2658160Y3688791D01*
X2562656Y3688791D02*
G01*
X2658160Y3752291D01*
X2562656Y3752291D02*
G01*
X2658160Y3752291D01*
X2562656Y3782263D02*
G01*
X2658160Y3782263D01*
X2562656Y3782263D02*
G01*
X2562656Y3814013D01*
X2567228Y3827729D01*
X2576118Y3836873D01*
X2585262Y3841445D01*
X2598978Y3846017D01*
X2621584Y3846017D01*
X2635300Y3841445D01*
X2644444Y3836873D01*
X2653588Y3827729D01*
X2658160Y3814013D01*
X2658160Y3782263D01*
D10*
X4927600Y4342384D02*
G01*
X4927600Y4420362D01*
X4922520Y4435855D01*
X4912106Y4446270D01*
X4896358Y4451350D01*
X4885943Y4451350D01*
X4870450Y4446270D01*
X4860036Y4435855D01*
X4854956Y4420362D01*
X4854956Y4342384D01*
X4794504Y4342384D02*
G01*
X4810252Y4347463D01*
X4815331Y4357878D01*
X4815331Y4368292D01*
X4810252Y4378705D01*
X4799838Y4384039D01*
X4779009Y4389120D01*
X4763515Y4394200D01*
X4753102Y4404613D01*
X4747768Y4415028D01*
X4747768Y4430776D01*
X4753102Y4441189D01*
X4758181Y4446270D01*
X4773929Y4451350D01*
X4794504Y4451350D01*
X4810252Y4446270D01*
X4815331Y4441189D01*
X4820665Y4430776D01*
X4820665Y4415028D01*
X4815331Y4404613D01*
X4804918Y4394200D01*
X4789424Y4389120D01*
X4768595Y4384039D01*
X4758181Y4378705D01*
X4753102Y4368292D01*
X4753102Y4357878D01*
X4758181Y4347463D01*
X4773929Y4342384D01*
X4794504Y4342384D01*
D11*
X4914645Y4573523D02*
G01*
X4923790Y4564634D01*
X4937506Y4560062D01*
X4955793Y4560062D01*
X4969256Y4564634D01*
X4978400Y4573523D01*
X4978400Y4582668D01*
X4973827Y4591812D01*
X4969256Y4596384D01*
X4960111Y4600955D01*
X4932934Y4610100D01*
X4923790Y4614418D01*
X4919218Y4618989D01*
X4914645Y4628134D01*
X4914645Y4641850D01*
X4923790Y4650994D01*
X4937506Y4655565D01*
X4955793Y4655565D01*
X4969256Y4650994D01*
X4978400Y4641850D01*
X4884674Y4560062D02*
G01*
X4884674Y4655565D01*
X4786629Y4582668D02*
G01*
X4791202Y4573523D01*
X4800091Y4564634D01*
X4809236Y4560062D01*
X4827524Y4560062D01*
X4836668Y4564634D01*
X4845558Y4573523D01*
X4850129Y4582668D01*
X4854702Y4596384D01*
X4854702Y4618989D01*
X4850129Y4632705D01*
X4845558Y4641850D01*
X4836668Y4650994D01*
X4827524Y4655565D01*
X4809236Y4655565D01*
X4800091Y4650994D01*
X4791202Y4641850D01*
X4786629Y4632705D01*
X4786629Y4618989D01*
X4809236Y4618989D02*
G01*
X4786629Y4618989D01*
X4756658Y4560062D02*
G01*
X4756658Y4655565D01*
X4756658Y4560062D02*
G01*
X4692904Y4655565D01*
X4692904Y4560062D02*
G01*
X4692904Y4655565D01*
X4626609Y4560062D02*
G01*
X4662931Y4655565D01*
X4626609Y4560062D02*
G01*
X4590288Y4655565D01*
X4649215Y4623562D02*
G01*
X4603750Y4623562D01*
X4560315Y4560062D02*
G01*
X4560315Y4655565D01*
X4560315Y4655565D02*
G01*
X4505706Y4655565D01*
X4991100Y4826762D02*
G01*
X4954777Y4922265D01*
X4918456Y4826762D02*
G01*
X4954777Y4922265D01*
X4820158Y4849368D02*
G01*
X4824729Y4840223D01*
X4833874Y4831334D01*
X4843018Y4826762D01*
X4861052Y4826762D01*
X4870195Y4831334D01*
X4879340Y4840223D01*
X4883911Y4849368D01*
X4888484Y4863084D01*
X4888484Y4885689D01*
X4883911Y4899405D01*
X4879340Y4908550D01*
X4870195Y4917694D01*
X4861052Y4922265D01*
X4843018Y4922265D01*
X4833874Y4917694D01*
X4824729Y4908550D01*
X4820158Y4899405D01*
X4722113Y4849368D02*
G01*
X4726431Y4840223D01*
X4735575Y4831334D01*
X4744720Y4826762D01*
X4763008Y4826762D01*
X4771897Y4831334D01*
X4781041Y4840223D01*
X4785613Y4849368D01*
X4790186Y4863084D01*
X4790186Y4885689D01*
X4785613Y4899405D01*
X4781041Y4908550D01*
X4771897Y4917694D01*
X4763008Y4922265D01*
X4744720Y4922265D01*
X4735575Y4917694D01*
X4726431Y4908550D01*
X4722113Y4899405D01*
X4923027Y5103368D02*
G01*
X4927345Y5094223D01*
X4936490Y5085334D01*
X4945634Y5080762D01*
X4963922Y5080762D01*
X4972811Y5085334D01*
X4981956Y5094223D01*
X4986527Y5103368D01*
X4991100Y5117084D01*
X4991100Y5139689D01*
X4986527Y5153405D01*
X4981956Y5162550D01*
X4972811Y5171694D01*
X4963922Y5176265D01*
X4945634Y5176265D01*
X4936490Y5171694D01*
X4927345Y5162550D01*
X4923027Y5153405D01*
X4923027Y5139689D01*
X4945634Y5139689D02*
G01*
X4923027Y5139689D01*
X4892802Y5080762D02*
G01*
X4892802Y5176265D01*
X4892802Y5080762D02*
G01*
X4829302Y5176265D01*
X4829302Y5080762D02*
G01*
X4829302Y5176265D01*
X4799329Y5080762D02*
G01*
X4799329Y5176265D01*
X4799329Y5080762D02*
G01*
X4767579Y5080762D01*
X4753863Y5085334D01*
X4744720Y5094223D01*
X4740147Y5103368D01*
X4735575Y5117084D01*
X4735575Y5139689D01*
X4740147Y5153405D01*
X4744720Y5162550D01*
X4753863Y5171694D01*
X4767579Y5176265D01*
X4799329Y5176265D01*
D10*
X8724265Y3653993D02*
G01*
X8802243Y3653993D01*
X8817736Y3659073D01*
X8828150Y3669487D01*
X8833231Y3685235D01*
X8833231Y3695649D01*
X8828150Y3711143D01*
X8817736Y3721557D01*
X8802243Y3726637D01*
X8724265Y3726637D01*
X8760586Y3828491D02*
G01*
X8776081Y3823411D01*
X8786495Y3812997D01*
X8791829Y3797503D01*
X8791829Y3792169D01*
X8786495Y3776675D01*
X8776081Y3766261D01*
X8760586Y3760927D01*
X8755506Y3760927D01*
X8739759Y3766261D01*
X8729345Y3776675D01*
X8724265Y3792169D01*
X8724265Y3797503D01*
X8729345Y3812997D01*
X8739759Y3823411D01*
X8760586Y3828491D01*
X8786495Y3828491D01*
X8812656Y3823411D01*
X8828150Y3812997D01*
X8833231Y3797503D01*
X8833231Y3787089D01*
X8828150Y3771341D01*
X8817736Y3766261D01*
D11*
X8955404Y3666947D02*
G01*
X8946515Y3657803D01*
X8941943Y3644087D01*
X8941943Y3625799D01*
X8946515Y3612337D01*
X8955404Y3603193D01*
X8964549Y3603193D01*
X8973693Y3607765D01*
X8978265Y3612337D01*
X8982836Y3621481D01*
X8991981Y3648659D01*
X8996299Y3657803D01*
X9000870Y3662375D01*
X9010015Y3666947D01*
X9023731Y3666947D01*
X9032875Y3657803D01*
X9037447Y3644087D01*
X9037447Y3625799D01*
X9032875Y3612337D01*
X9023731Y3603193D01*
X8941943Y3696919D02*
G01*
X9037447Y3696919D01*
X8964549Y3794963D02*
G01*
X8955404Y3790391D01*
X8946515Y3781501D01*
X8941943Y3772357D01*
X8941943Y3754069D01*
X8946515Y3744925D01*
X8955404Y3736035D01*
X8964549Y3731463D01*
X8978265Y3726891D01*
X9000870Y3726891D01*
X9014586Y3731463D01*
X9023731Y3736035D01*
X9032875Y3744925D01*
X9037447Y3754069D01*
X9037447Y3772357D01*
X9032875Y3781501D01*
X9023731Y3790391D01*
X9014586Y3794963D01*
X9000870Y3794963D01*
X9000870Y3772357D02*
G01*
X9000870Y3794963D01*
X8941943Y3824935D02*
G01*
X9037447Y3824935D01*
X8941943Y3824935D02*
G01*
X9037447Y3888689D01*
X8941943Y3888689D02*
G01*
X9037447Y3888689D01*
X8941943Y3954983D02*
G01*
X9037447Y3918661D01*
X8941943Y3954983D02*
G01*
X9037447Y3991305D01*
X9005443Y3932377D02*
G01*
X9005443Y3977843D01*
X8941943Y4021277D02*
G01*
X9037447Y4021277D01*
X9037447Y4021277D02*
G01*
X9037447Y4075887D01*
X9208643Y3590493D02*
G01*
X9304147Y3626815D01*
X9208643Y3663137D02*
G01*
X9304147Y3626815D01*
X9231249Y3761435D02*
G01*
X9222104Y3756863D01*
X9213215Y3747719D01*
X9208643Y3738575D01*
X9208643Y3720541D01*
X9213215Y3711397D01*
X9222104Y3702253D01*
X9231249Y3697681D01*
X9244965Y3693109D01*
X9267570Y3693109D01*
X9281286Y3697681D01*
X9290431Y3702253D01*
X9299575Y3711397D01*
X9304147Y3720541D01*
X9304147Y3738575D01*
X9299575Y3747719D01*
X9290431Y3756863D01*
X9281286Y3761435D01*
X9231249Y3859479D02*
G01*
X9222104Y3855161D01*
X9213215Y3846017D01*
X9208643Y3836873D01*
X9208643Y3818585D01*
X9213215Y3809695D01*
X9222104Y3800551D01*
X9231249Y3795979D01*
X9244965Y3791407D01*
X9267570Y3791407D01*
X9281286Y3795979D01*
X9290431Y3800551D01*
X9299575Y3809695D01*
X9304147Y3818585D01*
X9304147Y3836873D01*
X9299575Y3846017D01*
X9290431Y3855161D01*
X9281286Y3859479D01*
X9485249Y3658565D02*
G01*
X9476104Y3654247D01*
X9467215Y3645103D01*
X9462643Y3635959D01*
X9462643Y3617671D01*
X9467215Y3608781D01*
X9476104Y3599637D01*
X9485249Y3595065D01*
X9498965Y3590493D01*
X9521570Y3590493D01*
X9535286Y3595065D01*
X9544431Y3599637D01*
X9553575Y3608781D01*
X9558147Y3617671D01*
X9558147Y3635959D01*
X9553575Y3645103D01*
X9544431Y3654247D01*
X9535286Y3658565D01*
X9521570Y3658565D01*
X9521570Y3635959D02*
G01*
X9521570Y3658565D01*
X9462643Y3688791D02*
G01*
X9558147Y3688791D01*
X9462643Y3688791D02*
G01*
X9558147Y3752291D01*
X9462643Y3752291D02*
G01*
X9558147Y3752291D01*
X9462643Y3782263D02*
G01*
X9558147Y3782263D01*
X9462643Y3782263D02*
G01*
X9462643Y3814013D01*
X9467215Y3827729D01*
X9476104Y3836873D01*
X9485249Y3841445D01*
X9498965Y3846017D01*
X9521570Y3846017D01*
X9535286Y3841445D01*
X9544431Y3836873D01*
X9553575Y3827729D01*
X9558147Y3814013D01*
X9558147Y3782263D01*
D10*
X8724265Y-1245996D02*
G01*
X8802243Y-1245996D01*
X8817736Y-1240917D01*
X8828150Y-1230503D01*
X8833231Y-1214754D01*
X8833231Y-1204340D01*
X8828150Y-1188846D01*
X8817736Y-1178432D01*
X8802243Y-1173353D01*
X8724265Y-1173353D01*
X8745093Y-1139062D02*
G01*
X8739759Y-1128648D01*
X8724265Y-1112901D01*
X8833231Y-1112901D01*
X8724265Y-1047622D02*
G01*
X8729345Y-1063117D01*
X8745093Y-1073530D01*
X8771000Y-1078611D01*
X8786495Y-1078611D01*
X8812656Y-1073530D01*
X8828150Y-1063117D01*
X8833231Y-1047622D01*
X8833231Y-1037209D01*
X8828150Y-1021461D01*
X8812656Y-1011046D01*
X8786495Y-1005967D01*
X8771000Y-1005967D01*
X8745093Y-1011046D01*
X8729345Y-1021461D01*
X8724265Y-1037209D01*
X8724265Y-1047622D01*
D11*
X8955404Y-1233043D02*
G01*
X8946515Y-1242187D01*
X8941943Y-1255903D01*
X8941943Y-1274190D01*
X8946515Y-1287653D01*
X8955404Y-1296796D01*
X8964549Y-1296796D01*
X8973693Y-1292225D01*
X8978265Y-1287653D01*
X8982836Y-1278509D01*
X8991981Y-1251330D01*
X8996299Y-1242187D01*
X9000870Y-1237614D01*
X9010015Y-1233043D01*
X9023731Y-1233043D01*
X9032875Y-1242187D01*
X9037447Y-1255903D01*
X9037447Y-1274190D01*
X9032875Y-1287653D01*
X9023731Y-1296796D01*
X8941943Y-1203070D02*
G01*
X9037447Y-1203070D01*
X8964549Y-1105027D02*
G01*
X8955404Y-1109598D01*
X8946515Y-1118488D01*
X8941943Y-1127632D01*
X8941943Y-1145920D01*
X8946515Y-1155064D01*
X8955404Y-1163954D01*
X8964549Y-1168527D01*
X8978265Y-1173098D01*
X9000870Y-1173098D01*
X9014586Y-1168527D01*
X9023731Y-1163954D01*
X9032875Y-1155064D01*
X9037447Y-1145920D01*
X9037447Y-1127632D01*
X9032875Y-1118488D01*
X9023731Y-1109598D01*
X9014586Y-1105027D01*
X9000870Y-1105027D01*
X9000870Y-1127632D02*
G01*
X9000870Y-1105027D01*
X8941943Y-1075054D02*
G01*
X9037447Y-1075054D01*
X8941943Y-1075054D02*
G01*
X9037447Y-1011301D01*
X8941943Y-1011301D02*
G01*
X9037447Y-1011301D01*
X8941943Y-945006D02*
G01*
X9037447Y-981329D01*
X8941943Y-945006D02*
G01*
X9037447Y-908685D01*
X9005443Y-967612D02*
G01*
X9005443Y-922146D01*
X8941943Y-878712D02*
G01*
X9037447Y-878712D01*
X9037447Y-878712D02*
G01*
X9037447Y-824103D01*
X9208643Y-1309496D02*
G01*
X9304147Y-1273175D01*
X9208643Y-1236853D02*
G01*
X9304147Y-1273175D01*
X9231249Y-1138554D02*
G01*
X9222104Y-1143127D01*
X9213215Y-1152270D01*
X9208643Y-1161414D01*
X9208643Y-1179448D01*
X9213215Y-1188593D01*
X9222104Y-1197737D01*
X9231249Y-1202309D01*
X9244965Y-1206880D01*
X9267570Y-1206880D01*
X9281286Y-1202309D01*
X9290431Y-1197737D01*
X9299575Y-1188593D01*
X9304147Y-1179448D01*
X9304147Y-1161414D01*
X9299575Y-1152270D01*
X9290431Y-1143127D01*
X9281286Y-1138554D01*
X9231249Y-1040511D02*
G01*
X9222104Y-1044829D01*
X9213215Y-1053972D01*
X9208643Y-1063117D01*
X9208643Y-1081404D01*
X9213215Y-1090295D01*
X9222104Y-1099438D01*
X9231249Y-1104011D01*
X9244965Y-1108582D01*
X9267570Y-1108582D01*
X9281286Y-1104011D01*
X9290431Y-1099438D01*
X9299575Y-1090295D01*
X9304147Y-1081404D01*
X9304147Y-1063117D01*
X9299575Y-1053972D01*
X9290431Y-1044829D01*
X9281286Y-1040511D01*
X9472549Y-1190625D02*
G01*
X9463404Y-1194943D01*
X9454515Y-1204087D01*
X9449943Y-1213230D01*
X9449943Y-1231519D01*
X9454515Y-1240409D01*
X9463404Y-1249553D01*
X9472549Y-1254125D01*
X9486265Y-1258696D01*
X9508870Y-1258696D01*
X9522586Y-1254125D01*
X9531731Y-1249553D01*
X9540875Y-1240409D01*
X9545447Y-1231519D01*
X9545447Y-1213230D01*
X9540875Y-1204087D01*
X9531731Y-1194943D01*
X9522586Y-1190625D01*
X9508870Y-1190625D01*
X9508870Y-1213230D02*
G01*
X9508870Y-1190625D01*
X9449943Y-1160398D02*
G01*
X9545447Y-1160398D01*
X9449943Y-1160398D02*
G01*
X9545447Y-1096898D01*
X9449943Y-1096898D02*
G01*
X9545447Y-1096898D01*
X9449943Y-1066927D02*
G01*
X9545447Y-1066927D01*
X9449943Y-1066927D02*
G01*
X9449943Y-1035177D01*
X9454515Y-1021461D01*
X9463404Y-1012317D01*
X9472549Y-1007745D01*
X9486265Y-1003172D01*
X9508870Y-1003172D01*
X9522586Y-1007745D01*
X9531731Y-1012317D01*
X9540875Y-1021461D01*
X9545447Y-1035177D01*
X9545447Y-1066927D01*
D10*
X1824278Y-1245996D02*
G01*
X1902256Y-1245996D01*
X1917750Y-1240917D01*
X1928164Y-1230503D01*
X1933244Y-1214754D01*
X1933244Y-1204340D01*
X1928164Y-1188846D01*
X1917750Y-1178432D01*
X1902256Y-1173353D01*
X1824278Y-1173353D01*
X1845106Y-1139062D02*
G01*
X1839772Y-1128648D01*
X1824278Y-1112901D01*
X1933244Y-1112901D01*
X1845106Y-1078611D02*
G01*
X1839772Y-1068196D01*
X1824278Y-1052703D01*
X1933244Y-1052703D01*
D11*
X2055418Y-1233043D02*
G01*
X2046528Y-1242187D01*
X2041956Y-1255903D01*
X2041956Y-1274190D01*
X2046528Y-1287653D01*
X2055418Y-1296796D01*
X2064562Y-1296796D01*
X2073706Y-1292225D01*
X2078278Y-1287653D01*
X2082850Y-1278509D01*
X2091994Y-1251330D01*
X2096312Y-1242187D01*
X2100884Y-1237614D01*
X2110028Y-1233043D01*
X2123744Y-1233043D01*
X2132888Y-1242187D01*
X2137460Y-1255903D01*
X2137460Y-1274190D01*
X2132888Y-1287653D01*
X2123744Y-1296796D01*
X2041956Y-1203070D02*
G01*
X2137460Y-1203070D01*
X2064562Y-1105027D02*
G01*
X2055418Y-1109598D01*
X2046528Y-1118488D01*
X2041956Y-1127632D01*
X2041956Y-1145920D01*
X2046528Y-1155064D01*
X2055418Y-1163954D01*
X2064562Y-1168527D01*
X2078278Y-1173098D01*
X2100884Y-1173098D01*
X2114600Y-1168527D01*
X2123744Y-1163954D01*
X2132888Y-1155064D01*
X2137460Y-1145920D01*
X2137460Y-1127632D01*
X2132888Y-1118488D01*
X2123744Y-1109598D01*
X2114600Y-1105027D01*
X2100884Y-1105027D01*
X2100884Y-1127632D02*
G01*
X2100884Y-1105027D01*
X2041956Y-1075054D02*
G01*
X2137460Y-1075054D01*
X2041956Y-1075054D02*
G01*
X2137460Y-1011301D01*
X2041956Y-1011301D02*
G01*
X2137460Y-1011301D01*
X2041956Y-945006D02*
G01*
X2137460Y-981329D01*
X2041956Y-945006D02*
G01*
X2137460Y-908685D01*
X2105456Y-967612D02*
G01*
X2105456Y-922146D01*
X2041956Y-878712D02*
G01*
X2137460Y-878712D01*
X2137460Y-878712D02*
G01*
X2137460Y-824103D01*
X2270566Y-1309496D02*
G01*
X2366070Y-1273175D01*
X2270566Y-1236853D02*
G01*
X2366070Y-1273175D01*
X2293172Y-1138554D02*
G01*
X2284028Y-1143127D01*
X2275138Y-1152270D01*
X2270566Y-1161414D01*
X2270566Y-1179448D01*
X2275138Y-1188593D01*
X2284028Y-1197737D01*
X2293172Y-1202309D01*
X2306888Y-1206880D01*
X2329494Y-1206880D01*
X2343210Y-1202309D01*
X2352354Y-1197737D01*
X2361498Y-1188593D01*
X2366070Y-1179448D01*
X2366070Y-1161414D01*
X2361498Y-1152270D01*
X2352354Y-1143127D01*
X2343210Y-1138554D01*
X2293172Y-1040511D02*
G01*
X2284028Y-1044829D01*
X2275138Y-1053972D01*
X2270566Y-1063117D01*
X2270566Y-1081404D01*
X2275138Y-1090295D01*
X2284028Y-1099438D01*
X2293172Y-1104011D01*
X2306888Y-1108582D01*
X2329494Y-1108582D01*
X2343210Y-1104011D01*
X2352354Y-1099438D01*
X2361498Y-1090295D01*
X2366070Y-1081404D01*
X2366070Y-1063117D01*
X2361498Y-1053972D01*
X2352354Y-1044829D01*
X2343210Y-1040511D01*
X2585262Y-1241425D02*
G01*
X2576118Y-1245743D01*
X2567228Y-1254887D01*
X2562656Y-1264030D01*
X2562656Y-1282319D01*
X2567228Y-1291209D01*
X2576118Y-1300353D01*
X2585262Y-1304925D01*
X2598978Y-1309496D01*
X2621584Y-1309496D01*
X2635300Y-1304925D01*
X2644444Y-1300353D01*
X2653588Y-1291209D01*
X2658160Y-1282319D01*
X2658160Y-1264030D01*
X2653588Y-1254887D01*
X2644444Y-1245743D01*
X2635300Y-1241425D01*
X2621584Y-1241425D01*
X2621584Y-1264030D02*
G01*
X2621584Y-1241425D01*
X2562656Y-1211198D02*
G01*
X2658160Y-1211198D01*
X2562656Y-1211198D02*
G01*
X2658160Y-1147698D01*
X2562656Y-1147698D02*
G01*
X2658160Y-1147698D01*
X2562656Y-1117727D02*
G01*
X2658160Y-1117727D01*
X2562656Y-1117727D02*
G01*
X2562656Y-1085977D01*
X2567228Y-1072261D01*
X2576118Y-1063117D01*
X2585262Y-1058545D01*
X2598978Y-1053972D01*
X2621584Y-1053972D01*
X2635300Y-1058545D01*
X2644444Y-1063117D01*
X2653588Y-1072261D01*
X2658160Y-1085977D01*
X2658160Y-1117727D01*
D10*
X2149195Y5486907D02*
G01*
X2149195Y5408929D01*
X2154275Y5393436D01*
X2164689Y5383021D01*
X2180437Y5377942D01*
X2190851Y5377942D01*
X2206345Y5383021D01*
X2216759Y5393436D01*
X2221839Y5408929D01*
X2221839Y5486907D01*
X2256129Y5466079D02*
G01*
X2266543Y5471413D01*
X2282291Y5486907D01*
X2282291Y5377942D01*
X2368397Y5486907D02*
G01*
X2316581Y5414263D01*
X2394305Y5414263D01*
X2368397Y5486907D02*
G01*
X2368397Y5377942D01*
D11*
X1652879Y4761992D02*
G01*
X1509623Y4761992D01*
X1652879Y4761992D02*
G01*
X1652879Y4673345D01*
X1584553Y4761992D02*
G01*
X1584553Y4707381D01*
X1509623Y4761992D02*
G01*
X1509623Y4673345D01*
X1632305Y4532884D02*
G01*
X1646021Y4546600D01*
X1652879Y4566920D01*
X1652879Y4594352D01*
X1646021Y4614671D01*
X1632305Y4628387D01*
X1618843Y4628387D01*
X1605127Y4621529D01*
X1598269Y4614671D01*
X1591411Y4601210D01*
X1577949Y4560062D01*
X1571091Y4546600D01*
X1564233Y4539742D01*
X1550517Y4532884D01*
X1530197Y4532884D01*
X1516481Y4546600D01*
X1509623Y4566920D01*
X1509623Y4594352D01*
X1516481Y4614671D01*
X1530197Y4628387D01*
X1618843Y4385563D02*
G01*
X1632305Y4392421D01*
X1646021Y4406137D01*
X1652879Y4419600D01*
X1652879Y4447031D01*
X1646021Y4460747D01*
X1632305Y4474210D01*
X1618843Y4481068D01*
X1598269Y4487926D01*
X1564233Y4487926D01*
X1543659Y4481068D01*
X1530197Y4474210D01*
X1516481Y4460747D01*
X1509623Y4447031D01*
X1509623Y4419600D01*
X1516481Y4406137D01*
X1530197Y4392421D01*
X1543659Y4385563D01*
X1652879Y4235704D02*
G01*
X1509623Y4140200D01*
X1652879Y4140200D02*
G01*
X1509623Y4235704D01*
D10*
X2149195Y-1513078D02*
G01*
X2149195Y-1591055D01*
X2154275Y-1606550D01*
X2164689Y-1616963D01*
X2180437Y-1622044D01*
X2190851Y-1622044D01*
X2206345Y-1616963D01*
X2216759Y-1606550D01*
X2221839Y-1591055D01*
X2221839Y-1513078D01*
X2256129Y-1533905D02*
G01*
X2266543Y-1528571D01*
X2282291Y-1513078D01*
X2282291Y-1622044D01*
X2378811Y-1513078D02*
G01*
X2326995Y-1513078D01*
X2321661Y-1559813D01*
X2326995Y-1554734D01*
X2342489Y-1549400D01*
X2357983Y-1549400D01*
X2373731Y-1554734D01*
X2384145Y-1564894D01*
X2389225Y-1580642D01*
X2389225Y-1591055D01*
X2384145Y-1606550D01*
X2373731Y-1616963D01*
X2357983Y-1622044D01*
X2342489Y-1622044D01*
X2326995Y-1616963D01*
X2321661Y-1611884D01*
X2316581Y-1601470D01*
D11*
X1652879Y-2237994D02*
G01*
X1509623Y-2237994D01*
X1652879Y-2237994D02*
G01*
X1652879Y-2326639D01*
X1584553Y-2237994D02*
G01*
X1584553Y-2292604D01*
X1509623Y-2237994D02*
G01*
X1509623Y-2326639D01*
X1632305Y-2467102D02*
G01*
X1646021Y-2453386D01*
X1652879Y-2433065D01*
X1652879Y-2405634D01*
X1646021Y-2385313D01*
X1632305Y-2371597D01*
X1618843Y-2371597D01*
X1605127Y-2378455D01*
X1598269Y-2385313D01*
X1591411Y-2398776D01*
X1577949Y-2439923D01*
X1571091Y-2453386D01*
X1564233Y-2460244D01*
X1550517Y-2467102D01*
X1530197Y-2467102D01*
X1516481Y-2453386D01*
X1509623Y-2433065D01*
X1509623Y-2405634D01*
X1516481Y-2385313D01*
X1530197Y-2371597D01*
X1618843Y-2614421D02*
G01*
X1632305Y-2607563D01*
X1646021Y-2593847D01*
X1652879Y-2580386D01*
X1652879Y-2552954D01*
X1646021Y-2539237D01*
X1632305Y-2525776D01*
X1618843Y-2518918D01*
X1598269Y-2512060D01*
X1564233Y-2512060D01*
X1543659Y-2518918D01*
X1530197Y-2525776D01*
X1516481Y-2539237D01*
X1509623Y-2552954D01*
X1509623Y-2580386D01*
X1516481Y-2593847D01*
X1530197Y-2607563D01*
X1543659Y-2614421D01*
X1652879Y-2764281D02*
G01*
X1509623Y-2859786D01*
X1652879Y-2859786D02*
G01*
X1509623Y-2764281D01*
D10*
X9449181Y5486907D02*
G01*
X9449181Y5408929D01*
X9454261Y5393436D01*
X9464675Y5383021D01*
X9480422Y5377942D01*
X9490836Y5377942D01*
X9506331Y5383021D01*
X9516745Y5393436D01*
X9521825Y5408929D01*
X9521825Y5486907D01*
X9556115Y5466079D02*
G01*
X9566529Y5471413D01*
X9582277Y5486907D01*
X9582277Y5377942D01*
X9678797Y5471413D02*
G01*
X9673716Y5481828D01*
X9657968Y5486907D01*
X9647554Y5486907D01*
X9632061Y5481828D01*
X9621647Y5466079D01*
X9616566Y5440171D01*
X9616566Y5414263D01*
X9621647Y5393436D01*
X9632061Y5383021D01*
X9647554Y5377942D01*
X9652888Y5377942D01*
X9668383Y5383021D01*
X9678797Y5393436D01*
X9684131Y5408929D01*
X9684131Y5414263D01*
X9678797Y5429757D01*
X9668383Y5440171D01*
X9652888Y5445252D01*
X9647554Y5445252D01*
X9632061Y5440171D01*
X9621647Y5429757D01*
X9616566Y5414263D01*
D11*
X8952865Y4761992D02*
G01*
X8809609Y4761992D01*
X8952865Y4761992D02*
G01*
X8952865Y4673345D01*
X8884538Y4761992D02*
G01*
X8884538Y4707381D01*
X8809609Y4761992D02*
G01*
X8809609Y4673345D01*
X8932290Y4532884D02*
G01*
X8946006Y4546600D01*
X8952865Y4566920D01*
X8952865Y4594352D01*
X8946006Y4614671D01*
X8932290Y4628387D01*
X8918829Y4628387D01*
X8905113Y4621529D01*
X8898254Y4614671D01*
X8891397Y4601210D01*
X8877934Y4560062D01*
X8871077Y4546600D01*
X8864218Y4539742D01*
X8850502Y4532884D01*
X8830183Y4532884D01*
X8816466Y4546600D01*
X8809609Y4566920D01*
X8809609Y4594352D01*
X8816466Y4614671D01*
X8830183Y4628387D01*
X8918829Y4385563D02*
G01*
X8932290Y4392421D01*
X8946006Y4406137D01*
X8952865Y4419600D01*
X8952865Y4447031D01*
X8946006Y4460747D01*
X8932290Y4474210D01*
X8918829Y4481068D01*
X8898254Y4487926D01*
X8864218Y4487926D01*
X8843645Y4481068D01*
X8830183Y4474210D01*
X8816466Y4460747D01*
X8809609Y4447031D01*
X8809609Y4419600D01*
X8816466Y4406137D01*
X8830183Y4392421D01*
X8843645Y4385563D01*
X8952865Y4235704D02*
G01*
X8809609Y4140200D01*
X8952865Y4140200D02*
G01*
X8809609Y4235704D01*
D10*
X9449181Y-1513078D02*
G01*
X9449181Y-1591055D01*
X9454261Y-1606550D01*
X9464675Y-1616963D01*
X9480422Y-1622044D01*
X9490836Y-1622044D01*
X9506331Y-1616963D01*
X9516745Y-1606550D01*
X9521825Y-1591055D01*
X9521825Y-1513078D01*
X9556115Y-1533905D02*
G01*
X9566529Y-1528571D01*
X9582277Y-1513078D01*
X9582277Y-1622044D01*
X9689211Y-1513078D02*
G01*
X9637140Y-1622044D01*
X9616566Y-1513078D02*
G01*
X9689211Y-1513078D01*
D11*
X9029065Y-2225294D02*
G01*
X8885809Y-2225294D01*
X9029065Y-2225294D02*
G01*
X9029065Y-2313939D01*
X8960738Y-2225294D02*
G01*
X8960738Y-2279904D01*
X8885809Y-2225294D02*
G01*
X8885809Y-2313939D01*
X9008490Y-2454402D02*
G01*
X9022206Y-2440686D01*
X9029065Y-2420365D01*
X9029065Y-2392934D01*
X9022206Y-2372613D01*
X9008490Y-2358897D01*
X8995029Y-2358897D01*
X8981313Y-2365755D01*
X8974454Y-2372613D01*
X8967597Y-2386076D01*
X8954134Y-2427223D01*
X8947277Y-2440686D01*
X8940418Y-2447544D01*
X8926702Y-2454402D01*
X8906383Y-2454402D01*
X8892666Y-2440686D01*
X8885809Y-2420365D01*
X8885809Y-2392934D01*
X8892666Y-2372613D01*
X8906383Y-2358897D01*
X8995029Y-2601721D02*
G01*
X9008490Y-2594863D01*
X9022206Y-2581147D01*
X9029065Y-2567686D01*
X9029065Y-2540254D01*
X9022206Y-2526537D01*
X9008490Y-2513076D01*
X8995029Y-2506218D01*
X8974454Y-2499360D01*
X8940418Y-2499360D01*
X8919845Y-2506218D01*
X8906383Y-2513076D01*
X8892666Y-2526537D01*
X8885809Y-2540254D01*
X8885809Y-2567686D01*
X8892666Y-2581147D01*
X8906383Y-2594863D01*
X8919845Y-2601721D01*
X9029065Y-2751581D02*
G01*
X8885809Y-2847086D01*
X9029065Y-2847086D02*
G01*
X8885809Y-2751581D01*
D10*
X9664700Y2985515D02*
G01*
X9664700Y2907537D01*
X9669779Y2892044D01*
X9680193Y2881629D01*
X9695941Y2876550D01*
X9706356Y2876550D01*
X9721850Y2881629D01*
X9732263Y2892044D01*
X9737343Y2907537D01*
X9737343Y2985515D01*
X9771634Y2964687D02*
G01*
X9782047Y2970021D01*
X9797795Y2985515D01*
X9797795Y2876550D01*
X9857993Y2985515D02*
G01*
X9842500Y2980436D01*
X9837165Y2970021D01*
X9837165Y2959607D01*
X9842500Y2949194D01*
X9852659Y2943860D01*
X9873488Y2938779D01*
X9889236Y2933700D01*
X9899650Y2923286D01*
X9904729Y2912871D01*
X9904729Y2897123D01*
X9899650Y2886710D01*
X9894315Y2881629D01*
X9878822Y2876550D01*
X9857993Y2876550D01*
X9842500Y2881629D01*
X9837165Y2886710D01*
X9832086Y2897123D01*
X9832086Y2912871D01*
X9837165Y2923286D01*
X9847579Y2933700D01*
X9863074Y2938779D01*
X9883902Y2943860D01*
X9894315Y2949194D01*
X9899650Y2959607D01*
X9899650Y2970021D01*
X9894315Y2980436D01*
X9878822Y2985515D01*
X9857993Y2985515D01*
D11*
X10071100Y2450337D02*
G01*
X10107422Y2354834D01*
X10143743Y2450337D02*
G01*
X10107422Y2354834D01*
X10173715Y2450337D02*
G01*
X10173715Y2354834D01*
X10173715Y2404871D02*
G01*
X10182859Y2414015D01*
X10192004Y2418587D01*
X10205720Y2418587D01*
X10214609Y2414015D01*
X10223754Y2404871D01*
X10228325Y2391410D01*
X10228325Y2382265D01*
X10223754Y2368550D01*
X10214609Y2359405D01*
X10205720Y2354834D01*
X10192004Y2354834D01*
X10182859Y2359405D01*
X10173715Y2368550D01*
X10312908Y2418587D02*
G01*
X10312908Y2354834D01*
X10312908Y2404871D02*
G01*
X10303763Y2414015D01*
X10294620Y2418587D01*
X10281158Y2418587D01*
X10272013Y2414015D01*
X10262870Y2404871D01*
X10258297Y2391410D01*
X10258297Y2382265D01*
X10262870Y2368550D01*
X10272013Y2359405D01*
X10281158Y2354834D01*
X10294620Y2354834D01*
X10303763Y2359405D01*
X10312908Y2368550D01*
X10356595Y2450337D02*
G01*
X10356595Y2373121D01*
X10361168Y2359405D01*
X10370311Y2354834D01*
X10379202Y2354834D01*
X10342879Y2418587D02*
G01*
X10374629Y2418587D01*
X10189972Y1411731D02*
G01*
X10185654Y1420876D01*
X10176509Y1429765D01*
X10167365Y1434337D01*
X10149077Y1434337D01*
X10140188Y1429765D01*
X10131043Y1420876D01*
X10126472Y1411731D01*
X10121900Y1398015D01*
X10121900Y1375410D01*
X10126472Y1361694D01*
X10131043Y1352550D01*
X10140188Y1343405D01*
X10149077Y1338834D01*
X10167365Y1338834D01*
X10176509Y1343405D01*
X10185654Y1352550D01*
X10189972Y1361694D01*
X10189972Y1375410D01*
X10167365Y1375410D02*
G01*
X10189972Y1375410D01*
X10220197Y1434337D02*
G01*
X10220197Y1338834D01*
X10220197Y1434337D02*
G01*
X10283697Y1338834D01*
X10283697Y1434337D02*
G01*
X10283697Y1338834D01*
X10313670Y1434337D02*
G01*
X10313670Y1338834D01*
X10313670Y1434337D02*
G01*
X10345420Y1434337D01*
X10359136Y1429765D01*
X10368279Y1420876D01*
X10372852Y1411731D01*
X10377424Y1398015D01*
X10377424Y1375410D01*
X10372852Y1361694D01*
X10368279Y1352550D01*
X10359136Y1343405D01*
X10345420Y1338834D01*
X10313670Y1338834D01*
X8992615Y1460500D02*
G01*
X9135872Y1460500D01*
X8992615Y1460500D02*
G01*
X8992615Y1521968D01*
X8999474Y1542287D01*
X9006331Y1549145D01*
X9019793Y1556004D01*
X9033509Y1556004D01*
X9047225Y1549145D01*
X9054084Y1542287D01*
X9060941Y1521968D01*
X9060941Y1460500D02*
G01*
X9060941Y1521968D01*
X9067545Y1542287D01*
X9074404Y1549145D01*
X9088120Y1556004D01*
X9108440Y1556004D01*
X9122156Y1549145D01*
X9129013Y1542287D01*
X9135872Y1521968D01*
X9135872Y1460500D01*
X8992615Y1655571D02*
G01*
X9135872Y1600962D01*
X8992615Y1655571D02*
G01*
X9135872Y1709928D01*
X9088120Y1621281D02*
G01*
X9088120Y1689607D01*
X8992615Y1802892D02*
G01*
X9135872Y1802892D01*
X8992615Y1755139D02*
G01*
X8992615Y1850389D01*
X8992615Y1943100D02*
G01*
X9135872Y1943100D01*
X8992615Y1895602D02*
G01*
X8992615Y1990852D01*
X8992615Y2036063D02*
G01*
X9135872Y2036063D01*
X8992615Y2036063D02*
G01*
X8992615Y2124710D01*
X9060941Y2036063D02*
G01*
X9060941Y2090420D01*
X9135872Y2036063D02*
G01*
X9135872Y2124710D01*
X8992615Y2169668D02*
G01*
X9135872Y2169668D01*
X8992615Y2169668D02*
G01*
X8992615Y2230881D01*
X8999474Y2251455D01*
X9006331Y2258313D01*
X9019793Y2264918D01*
X9033509Y2264918D01*
X9047225Y2258313D01*
X9054084Y2251455D01*
X9060941Y2230881D01*
X9060941Y2169668D01*
X9060941Y2217420D02*
G01*
X9135872Y2264918D01*
X8992615Y2310129D02*
G01*
X9060941Y2364486D01*
X9135872Y2364486D01*
X8992615Y2419095D02*
G01*
X9060941Y2364486D01*
D10*
X8086740Y3008797D02*
G01*
X8086740Y2930819D01*
X8091820Y2915325D01*
X8102234Y2904911D01*
X8117982Y2899831D01*
X8128396Y2899831D01*
X8143890Y2904911D01*
X8154304Y2915325D01*
X8159384Y2930819D01*
X8159384Y3008797D01*
X8193674Y2987969D02*
G01*
X8204088Y2993303D01*
X8219836Y3008797D01*
X8219836Y2899831D01*
X8321690Y2972475D02*
G01*
X8316356Y2956981D01*
X8305942Y2946567D01*
X8290448Y2941233D01*
X8285114Y2941233D01*
X8269620Y2946567D01*
X8259206Y2956981D01*
X8254126Y2972475D01*
X8254126Y2977555D01*
X8259206Y2993303D01*
X8269620Y3003717D01*
X8285114Y3008797D01*
X8290448Y3008797D01*
X8305942Y3003717D01*
X8316356Y2993303D01*
X8321690Y2972475D01*
X8321690Y2946567D01*
X8316356Y2920405D01*
X8305942Y2904911D01*
X8290448Y2899831D01*
X8280034Y2899831D01*
X8264540Y2904911D01*
X8259206Y2915325D01*
D11*
X9716261Y-888751D02*
G01*
X9811765Y-952505D01*
X9716261Y-952505D02*
G01*
X9716261Y-888751D01*
X9811765Y-952505D02*
G01*
X9811765Y-888751D01*
X9716261Y-858779D02*
G01*
X9811765Y-858779D01*
X9716261Y-858779D02*
G01*
X9716261Y-799851D01*
X9761727Y-858779D02*
G01*
X9761727Y-822457D01*
X9811765Y-858779D02*
G01*
X9811765Y-799851D01*
X9716261Y-769879D02*
G01*
X9811765Y-769879D01*
X9716261Y-769879D02*
G01*
X9811765Y-706125D01*
X9716261Y-706125D02*
G01*
X9811765Y-706125D01*
X9716261Y-676153D02*
G01*
X9811765Y-676153D01*
X9716261Y-676153D02*
G01*
X9716261Y-616971D01*
X9761727Y-676153D02*
G01*
X9761727Y-639831D01*
X9811765Y-676153D02*
G01*
X9811765Y-616971D01*
X9716261Y-586999D02*
G01*
X9811765Y-586999D01*
X9716261Y-586999D02*
G01*
X9716261Y-546105D01*
X9720834Y-532389D01*
X9725406Y-528071D01*
X9734295Y-523499D01*
X9743440Y-523499D01*
X9752584Y-528071D01*
X9757156Y-532389D01*
X9761727Y-546105D01*
X9761727Y-586999D01*
X9761727Y-555249D02*
G01*
X9811765Y-523499D01*
D10*
X9562084Y-742701D02*
G01*
X9640061Y-742701D01*
X9655556Y-737621D01*
X9665970Y-727207D01*
X9671050Y-711459D01*
X9671050Y-701045D01*
X9665970Y-685551D01*
X9655556Y-675137D01*
X9640061Y-670057D01*
X9562084Y-670057D01*
X9587991Y-630433D02*
G01*
X9582911Y-630433D01*
X9572497Y-625353D01*
X9567163Y-620019D01*
X9562084Y-609605D01*
X9562084Y-589031D01*
X9567163Y-578617D01*
X9572497Y-573283D01*
X9582911Y-568203D01*
X9593325Y-568203D01*
X9603740Y-573283D01*
X9619234Y-583697D01*
X9671050Y-635767D01*
X9671050Y-562869D01*
X9582911Y-528579D02*
G01*
X9577577Y-518165D01*
X9562084Y-502671D01*
X9671050Y-502671D01*
D11*
X6464554Y2005076D02*
G01*
X6455409Y2013965D01*
X6441693Y2018537D01*
X6423406Y2018537D01*
X6409943Y2013965D01*
X6400800Y2005076D01*
X6400800Y1995931D01*
X6405372Y1986787D01*
X6409943Y1982215D01*
X6419088Y1977644D01*
X6446265Y1968500D01*
X6455409Y1964181D01*
X6459981Y1959610D01*
X6464554Y1950465D01*
X6464554Y1936750D01*
X6455409Y1927605D01*
X6441693Y1923034D01*
X6423406Y1923034D01*
X6409943Y1927605D01*
X6400800Y1936750D01*
X6494525Y2018537D02*
G01*
X6517131Y1923034D01*
X6539991Y2018537D02*
G01*
X6517131Y1923034D01*
X6539991Y2018537D02*
G01*
X6562597Y1923034D01*
X6585458Y2018537D02*
G01*
X6562597Y1923034D01*
X6615429Y2018537D02*
G01*
X6615429Y1923034D01*
X6677152Y2018537D02*
G01*
X6677152Y1923034D01*
X6645402Y2018537D02*
G01*
X6708902Y2018537D01*
X6807200Y1995931D02*
G01*
X6802627Y2005076D01*
X6793484Y2013965D01*
X6784340Y2018537D01*
X6766306Y2018537D01*
X6757161Y2013965D01*
X6748018Y2005076D01*
X6743445Y1995931D01*
X6738874Y1982215D01*
X6738874Y1959610D01*
X6743445Y1945894D01*
X6748018Y1936750D01*
X6757161Y1927605D01*
X6766306Y1923034D01*
X6784340Y1923034D01*
X6793484Y1927605D01*
X6802627Y1936750D01*
X6807200Y1945894D01*
X6837172Y2018537D02*
G01*
X6837172Y1923034D01*
X6900925Y2018537D02*
G01*
X6900925Y1923034D01*
X6837172Y1973071D02*
G01*
X6900925Y1973071D01*
X7009638Y1458721D02*
G01*
X7005065Y1467612D01*
X6996175Y1476755D01*
X6987031Y1481328D01*
X6973315Y1485900D01*
X6950709Y1485900D01*
X6936993Y1481328D01*
X6927850Y1476755D01*
X6918706Y1467612D01*
X6914134Y1458721D01*
X6914134Y1440434D01*
X6918706Y1431289D01*
X6927850Y1422145D01*
X6936993Y1417828D01*
X6950709Y1413255D01*
X6973315Y1413255D01*
X6987031Y1417828D01*
X6996175Y1422145D01*
X7005065Y1431289D01*
X7009638Y1440434D01*
X7009638Y1458721D01*
X7009638Y1383284D02*
G01*
X6914134Y1383284D01*
X7009638Y1383284D02*
G01*
X6914134Y1319529D01*
X7009638Y1319529D02*
G01*
X6914134Y1319529D01*
X6400038Y1458721D02*
G01*
X6395465Y1467612D01*
X6386575Y1476755D01*
X6377431Y1481328D01*
X6363715Y1485900D01*
X6341109Y1485900D01*
X6327393Y1481328D01*
X6318250Y1476755D01*
X6309106Y1467612D01*
X6304534Y1458721D01*
X6304534Y1440434D01*
X6309106Y1431289D01*
X6318250Y1422145D01*
X6327393Y1417828D01*
X6341109Y1413255D01*
X6363715Y1413255D01*
X6377431Y1417828D01*
X6386575Y1422145D01*
X6395465Y1431289D01*
X6400038Y1440434D01*
X6400038Y1458721D01*
X6400038Y1383284D02*
G01*
X6304534Y1383284D01*
X6400038Y1383284D02*
G01*
X6400038Y1324102D01*
X6354572Y1383284D02*
G01*
X6354572Y1346707D01*
X6400038Y1294129D02*
G01*
X6304534Y1294129D01*
X6400038Y1294129D02*
G01*
X6400038Y1234947D01*
X6354572Y1294129D02*
G01*
X6354572Y1257807D01*
D10*
X6654800Y2160015D02*
G01*
X6654800Y2082037D01*
X6659879Y2066544D01*
X6670293Y2056129D01*
X6686041Y2051050D01*
X6696456Y2051050D01*
X6711950Y2056129D01*
X6722363Y2066544D01*
X6727443Y2082037D01*
X6727443Y2160015D01*
X6767068Y2134107D02*
G01*
X6767068Y2139187D01*
X6772147Y2149602D01*
X6777481Y2154936D01*
X6787895Y2160015D01*
X6808470Y2160015D01*
X6818884Y2154936D01*
X6824218Y2149602D01*
X6829297Y2139187D01*
X6829297Y2128773D01*
X6824218Y2118360D01*
X6813804Y2102865D01*
X6761734Y2051050D01*
X6834631Y2051050D01*
X6874002Y2134107D02*
G01*
X6874002Y2139187D01*
X6879336Y2149602D01*
X6884415Y2154936D01*
X6894829Y2160015D01*
X6915658Y2160015D01*
X6926072Y2154936D01*
X6931152Y2149602D01*
X6936486Y2139187D01*
X6936486Y2128773D01*
X6931152Y2118360D01*
X6920738Y2102865D01*
X6868922Y2051050D01*
X6941565Y2051050D01*
X9409684Y374650D02*
G01*
X9487661Y374650D01*
X9503156Y379729D01*
X9513570Y390144D01*
X9518650Y405892D01*
X9518650Y416305D01*
X9513570Y431800D01*
X9503156Y442213D01*
X9487661Y447294D01*
X9409684Y447294D01*
X9435591Y486918D02*
G01*
X9430511Y486918D01*
X9420097Y491997D01*
X9414763Y497331D01*
X9409684Y507745D01*
X9409684Y528320D01*
X9414763Y538734D01*
X9420097Y544068D01*
X9430511Y549147D01*
X9440925Y549147D01*
X9451340Y544068D01*
X9466834Y533654D01*
X9518650Y481584D01*
X9518650Y554481D01*
X9409684Y599186D02*
G01*
X9409684Y656336D01*
X9451340Y625094D01*
X9451340Y640587D01*
X9456420Y651002D01*
X9461500Y656336D01*
X9477247Y661415D01*
X9487661Y661415D01*
X9503156Y656336D01*
X9513570Y645921D01*
X9518650Y630173D01*
X9518650Y614679D01*
X9513570Y599186D01*
X9508490Y593852D01*
X9498075Y588771D01*
D11*
X9551161Y203200D02*
G01*
X9646665Y203200D01*
X9551161Y203200D02*
G01*
X9551161Y234950D01*
X9555734Y248665D01*
X9564624Y257810D01*
X9573768Y262381D01*
X9587484Y266954D01*
X9610090Y266954D01*
X9623806Y262381D01*
X9632950Y257810D01*
X9642093Y248665D01*
X9646665Y234950D01*
X9646665Y203200D01*
X9551161Y296926D02*
G01*
X9646665Y296926D01*
X9551161Y354076D02*
G01*
X9555734Y344931D01*
X9564624Y336042D01*
X9573768Y331470D01*
X9587484Y326897D01*
X9610090Y326897D01*
X9623806Y331470D01*
X9632950Y336042D01*
X9642093Y344931D01*
X9646665Y354076D01*
X9646665Y372363D01*
X9642093Y381507D01*
X9632950Y390397D01*
X9623806Y394970D01*
X9610090Y399542D01*
X9587484Y399542D01*
X9573768Y394970D01*
X9564624Y390397D01*
X9555734Y381507D01*
X9551161Y372363D01*
X9551161Y354076D01*
X9551161Y429513D02*
G01*
X9646665Y429513D01*
X9551161Y429513D02*
G01*
X9551161Y461263D01*
X9555734Y474979D01*
X9564624Y484123D01*
X9573768Y488695D01*
X9587484Y493268D01*
X9610090Y493268D01*
X9623806Y488695D01*
X9632950Y484123D01*
X9642093Y474979D01*
X9646665Y461263D01*
X9646665Y429513D01*
X9551161Y523239D02*
G01*
X9646665Y523239D01*
X9551161Y523239D02*
G01*
X9551161Y582168D01*
X9596627Y523239D02*
G01*
X9596627Y559562D01*
X9646665Y523239D02*
G01*
X9646665Y582168D01*
D10*
X4406900Y4192015D02*
G01*
X4406900Y4114037D01*
X4411979Y4098544D01*
X4422393Y4088129D01*
X4438141Y4083050D01*
X4448556Y4083050D01*
X4464050Y4088129D01*
X4474463Y4098544D01*
X4479543Y4114037D01*
X4479543Y4192015D01*
X4519168Y4166107D02*
G01*
X4519168Y4171187D01*
X4524247Y4181602D01*
X4529581Y4186936D01*
X4539995Y4192015D01*
X4560570Y4192015D01*
X4570984Y4186936D01*
X4576318Y4181602D01*
X4581397Y4171187D01*
X4581397Y4160773D01*
X4576318Y4150360D01*
X4565904Y4134865D01*
X4513834Y4083050D01*
X4586731Y4083050D01*
X4672838Y4192015D02*
G01*
X4621022Y4119371D01*
X4699000Y4119371D01*
X4672838Y4192015D02*
G01*
X4672838Y4083050D01*
X7341615Y-76200D02*
G01*
X7263638Y-76200D01*
X7248143Y-81279D01*
X7237729Y-91694D01*
X7232650Y-107442D01*
X7232650Y-117855D01*
X7237729Y-133350D01*
X7248143Y-143763D01*
X7263638Y-148844D01*
X7341615Y-148844D01*
X7315708Y-188468D02*
G01*
X7320788Y-188468D01*
X7331202Y-193547D01*
X7336536Y-198881D01*
X7341615Y-209295D01*
X7341615Y-229870D01*
X7336536Y-240284D01*
X7331202Y-245618D01*
X7320788Y-250697D01*
X7310374Y-250697D01*
X7299959Y-245618D01*
X7284465Y-235204D01*
X7232650Y-183134D01*
X7232650Y-256031D01*
X7341615Y-352552D02*
G01*
X7341615Y-300736D01*
X7294879Y-295402D01*
X7299959Y-300736D01*
X7305293Y-316229D01*
X7305293Y-331723D01*
X7299959Y-347471D01*
X7289800Y-357886D01*
X7274052Y-362965D01*
X7263638Y-362965D01*
X7248143Y-357886D01*
X7237729Y-347471D01*
X7232650Y-331723D01*
X7232650Y-316229D01*
X7237729Y-300736D01*
X7242809Y-295402D01*
X7253224Y-290321D01*
D11*
X6901941Y891286D02*
G01*
X6908800Y898144D01*
X6912356Y908557D01*
X6912356Y922528D01*
X6908800Y932942D01*
X6901941Y939800D01*
X6894829Y939800D01*
X6887972Y936244D01*
X6884670Y932942D01*
X6881113Y925829D01*
X6874256Y905255D01*
X6870700Y898144D01*
X6867143Y894842D01*
X6860286Y891286D01*
X6849872Y891286D01*
X6843013Y898144D01*
X6839458Y908557D01*
X6839458Y922528D01*
X6843013Y932942D01*
X6849872Y939800D01*
X6894829Y816610D02*
G01*
X6901941Y819912D01*
X6908800Y826770D01*
X6912356Y833881D01*
X6912356Y847597D01*
X6908800Y854710D01*
X6901941Y861568D01*
X6894829Y864870D01*
X6884670Y868426D01*
X6867143Y868426D01*
X6856729Y864870D01*
X6849872Y861568D01*
X6843013Y854710D01*
X6839458Y847597D01*
X6839458Y833881D01*
X6843013Y826770D01*
X6849872Y819912D01*
X6856729Y816610D01*
X6912356Y793750D02*
G01*
X6839458Y793750D01*
X6839458Y793750D02*
G01*
X6839458Y752094D01*
X6150356Y939800D02*
G01*
X6077458Y912113D01*
X6150356Y884428D02*
G01*
X6077458Y912113D01*
X6150356Y861568D02*
G01*
X6077458Y861568D01*
X6150356Y838707D02*
G01*
X6077458Y838707D01*
X6150356Y838707D02*
G01*
X6077458Y790194D01*
X6150356Y790194D02*
G01*
X6077458Y790194D01*
X5896356Y939800D02*
G01*
X5823458Y912113D01*
X5896356Y884428D02*
G01*
X5823458Y912113D01*
X5896356Y861568D02*
G01*
X5823458Y861568D01*
X5896356Y861568D02*
G01*
X5896356Y837184D01*
X5892800Y826770D01*
X5885941Y819912D01*
X5878829Y816610D01*
X5868670Y813054D01*
X5851143Y813054D01*
X5840729Y816610D01*
X5833872Y819912D01*
X5827013Y826770D01*
X5823458Y837184D01*
X5823458Y861568D01*
X5896356Y790194D02*
G01*
X5823458Y790194D01*
X5896356Y790194D02*
G01*
X5896356Y765810D01*
X5892800Y755650D01*
X5885941Y748537D01*
X5878829Y745236D01*
X5868670Y741679D01*
X5851143Y741679D01*
X5840729Y745236D01*
X5833872Y748537D01*
X5827013Y755650D01*
X5823458Y765810D01*
X5823458Y790194D01*
X6647941Y891286D02*
G01*
X6654800Y898144D01*
X6658356Y908557D01*
X6658356Y922528D01*
X6654800Y932942D01*
X6647941Y939800D01*
X6640829Y939800D01*
X6633972Y936244D01*
X6630670Y932942D01*
X6627113Y925829D01*
X6620256Y905255D01*
X6616700Y898144D01*
X6613143Y894842D01*
X6606286Y891286D01*
X6595872Y891286D01*
X6589013Y898144D01*
X6585458Y908557D01*
X6585458Y922528D01*
X6589013Y932942D01*
X6595872Y939800D01*
X6658356Y868426D02*
G01*
X6585458Y868426D01*
X6658356Y868426D02*
G01*
X6658356Y844295D01*
X6654800Y833881D01*
X6647941Y826770D01*
X6640829Y823468D01*
X6630670Y819912D01*
X6613143Y819912D01*
X6602729Y823468D01*
X6595872Y826770D01*
X6589013Y833881D01*
X6585458Y844295D01*
X6585458Y868426D01*
X6658356Y769365D02*
G01*
X6585458Y797052D01*
X6658356Y769365D02*
G01*
X6585458Y741679D01*
X6609841Y786637D02*
G01*
X6609841Y752094D01*
X6234429Y900429D02*
G01*
X6241541Y903986D01*
X6248400Y910844D01*
X6251956Y917955D01*
X6251956Y931671D01*
X6248400Y938529D01*
X6241541Y945642D01*
X6234429Y948944D01*
X6224270Y952500D01*
X6206743Y952500D01*
X6196329Y948944D01*
X6189472Y945642D01*
X6182613Y938529D01*
X6179058Y931671D01*
X6179058Y917955D01*
X6182613Y910844D01*
X6189472Y903986D01*
X6196329Y900429D01*
X6206743Y900429D01*
X6206743Y917955D02*
G01*
X6206743Y900429D01*
X6251956Y877570D02*
G01*
X6179058Y877570D01*
X6251956Y877570D02*
G01*
X6179058Y829310D01*
X6251956Y829310D02*
G01*
X6179058Y829310D01*
X6251956Y806450D02*
G01*
X6179058Y806450D01*
X6251956Y806450D02*
G01*
X6251956Y782065D01*
X6248400Y771652D01*
X6241541Y764794D01*
X6234429Y761237D01*
X6224270Y757936D01*
X6206743Y757936D01*
X6196329Y761237D01*
X6189472Y764794D01*
X6182613Y771652D01*
X6179058Y782065D01*
X6179058Y806450D01*
X6411722Y624586D02*
G01*
X6418579Y631444D01*
X6422136Y641857D01*
X6422136Y655828D01*
X6418579Y666242D01*
X6411722Y673100D01*
X6404609Y673100D01*
X6397752Y669544D01*
X6394450Y666242D01*
X6390893Y659129D01*
X6384036Y638555D01*
X6380479Y631444D01*
X6376924Y628142D01*
X6370065Y624586D01*
X6359652Y624586D01*
X6352793Y631444D01*
X6349238Y641857D01*
X6349238Y655828D01*
X6352793Y666242D01*
X6359652Y673100D01*
X6422136Y574039D02*
G01*
X6349238Y601726D01*
X6422136Y574039D02*
G01*
X6349238Y546354D01*
X6373622Y591312D02*
G01*
X6373622Y556768D01*
X6422136Y502665D02*
G01*
X6418579Y513079D01*
X6408165Y519937D01*
X6390893Y523494D01*
X6380479Y523494D01*
X6363208Y519937D01*
X6352793Y513079D01*
X6349238Y502665D01*
X6349238Y495807D01*
X6352793Y485394D01*
X6363208Y478536D01*
X6380479Y474979D01*
X6390893Y474979D01*
X6408165Y478536D01*
X6418579Y485394D01*
X6422136Y495807D01*
X6422136Y502665D01*
D10*
X8026400Y-2160015D02*
G01*
X8026400Y-2082037D01*
X8021320Y-2066544D01*
X8010906Y-2056129D01*
X7995158Y-2051050D01*
X7984743Y-2051050D01*
X7969250Y-2056129D01*
X7958836Y-2066544D01*
X7953756Y-2082037D01*
X7953756Y-2160015D01*
X7914131Y-2134107D02*
G01*
X7914131Y-2139187D01*
X7909052Y-2149602D01*
X7903718Y-2154936D01*
X7893304Y-2160015D01*
X7872729Y-2160015D01*
X7862315Y-2154936D01*
X7856981Y-2149602D01*
X7851902Y-2139187D01*
X7851902Y-2128773D01*
X7856981Y-2118360D01*
X7867395Y-2102865D01*
X7919465Y-2051050D01*
X7846568Y-2051050D01*
X7750047Y-2144521D02*
G01*
X7755127Y-2154936D01*
X7770875Y-2160015D01*
X7781290Y-2160015D01*
X7796784Y-2154936D01*
X7807197Y-2139187D01*
X7812277Y-2113279D01*
X7812277Y-2087371D01*
X7807197Y-2066544D01*
X7796784Y-2056129D01*
X7781290Y-2051050D01*
X7775956Y-2051050D01*
X7760461Y-2056129D01*
X7750047Y-2066544D01*
X7744713Y-2082037D01*
X7744713Y-2087371D01*
X7750047Y-2102865D01*
X7760461Y-2113279D01*
X7775956Y-2118360D01*
X7781290Y-2118360D01*
X7796784Y-2113279D01*
X7807197Y-2102865D01*
X7812277Y-2087371D01*
X3226815Y-863600D02*
G01*
X3148838Y-863600D01*
X3133343Y-868679D01*
X3122929Y-879094D01*
X3117850Y-894842D01*
X3117850Y-905255D01*
X3122929Y-920750D01*
X3133343Y-931163D01*
X3148838Y-936244D01*
X3226815Y-936244D01*
X3200908Y-975868D02*
G01*
X3205988Y-975868D01*
X3216402Y-980947D01*
X3221736Y-986281D01*
X3226815Y-996695D01*
X3226815Y-1017270D01*
X3221736Y-1027684D01*
X3216402Y-1033018D01*
X3205988Y-1038097D01*
X3195574Y-1038097D01*
X3185159Y-1033018D01*
X3169665Y-1022604D01*
X3117850Y-970534D01*
X3117850Y-1043431D01*
X3226815Y-1150365D02*
G01*
X3117850Y-1098550D01*
X3226815Y-1077721D02*
G01*
X3226815Y-1150365D01*
D12*
X2416302Y-647700D02*
G01*
X2418588Y-652271D01*
X2425445Y-659129D01*
X2377693Y-659129D01*
X2417749Y-903960D02*
G01*
X2420035Y-903960D01*
X2424353Y-906246D01*
X2426639Y-908532D01*
X2428925Y-913104D01*
X2428925Y-922248D01*
X2426639Y-926566D01*
X2424353Y-928852D01*
X2420035Y-931138D01*
X2415463Y-931138D01*
X2410891Y-928852D01*
X2404033Y-924280D01*
X2381173Y-901674D01*
X2381173Y-933424D01*
X2425115Y-1158468D02*
G01*
X2425115Y-1183360D01*
X2407081Y-1169898D01*
X2407081Y-1176502D01*
X2404795Y-1181074D01*
X2402509Y-1183360D01*
X2395651Y-1185646D01*
X2391079Y-1185646D01*
X2384221Y-1183360D01*
X2379649Y-1178788D01*
X2377363Y-1171930D01*
X2377363Y-1165326D01*
X2379649Y-1158468D01*
X2381935Y-1156182D01*
X2386507Y-1153896D01*
X2908045Y-610615D02*
G01*
X2905759Y-606044D01*
X2901188Y-601471D01*
X2896615Y-599186D01*
X2889758Y-596900D01*
X2878327Y-596900D01*
X2871470Y-599186D01*
X2867152Y-601471D01*
X2862579Y-606044D01*
X2860293Y-610615D01*
X2860293Y-619505D01*
X2862579Y-624078D01*
X2867152Y-628650D01*
X2871470Y-630936D01*
X2878327Y-633221D01*
X2889758Y-633221D01*
X2896615Y-630936D01*
X2901188Y-628650D01*
X2905759Y-624078D01*
X2908045Y-619505D01*
X2908045Y-610615D01*
X2908045Y-648207D02*
G01*
X2860293Y-648207D01*
X2908045Y-648207D02*
G01*
X2860293Y-679957D01*
X2908045Y-679957D02*
G01*
X2860293Y-679957D01*
D10*
X3201415Y1384300D02*
G01*
X3123438Y1384300D01*
X3107943Y1379220D01*
X3097529Y1368805D01*
X3092450Y1353057D01*
X3092450Y1342644D01*
X3097529Y1327150D01*
X3107943Y1316736D01*
X3123438Y1311655D01*
X3201415Y1311655D01*
X3175508Y1272031D02*
G01*
X3180588Y1272031D01*
X3191002Y1266952D01*
X3196336Y1261618D01*
X3201415Y1251204D01*
X3201415Y1230629D01*
X3196336Y1220215D01*
X3191002Y1214881D01*
X3180588Y1209802D01*
X3170174Y1209802D01*
X3159759Y1214881D01*
X3144265Y1225295D01*
X3092450Y1277365D01*
X3092450Y1204468D01*
D11*
X2523743Y2437637D02*
G01*
X2573781Y2437637D01*
X2546350Y2401315D01*
X2560065Y2401315D01*
X2569209Y2396744D01*
X2573781Y2392171D01*
X2578354Y2378710D01*
X2578354Y2369565D01*
X2573781Y2355850D01*
X2564638Y2346705D01*
X2550922Y2342134D01*
X2537206Y2342134D01*
X2523743Y2346705D01*
X2519172Y2351278D01*
X2514600Y2360421D01*
X2608325Y2437637D02*
G01*
X2644647Y2342134D01*
X2680970Y2437637D02*
G01*
X2644647Y2342134D01*
X2720086Y2437637D02*
G01*
X2770124Y2437637D01*
X2742691Y2401315D01*
X2756408Y2401315D01*
X2765552Y2396744D01*
X2770124Y2392171D01*
X2774695Y2378710D01*
X2774695Y2369565D01*
X2770124Y2355850D01*
X2760979Y2346705D01*
X2747263Y2342134D01*
X2733802Y2342134D01*
X2720086Y2346705D01*
X2715513Y2351278D01*
X2710941Y2360421D01*
X2569972Y2173731D02*
G01*
X2565654Y2182876D01*
X2556509Y2191765D01*
X2547365Y2196337D01*
X2529077Y2196337D01*
X2520188Y2191765D01*
X2511043Y2182876D01*
X2506472Y2173731D01*
X2501900Y2160015D01*
X2501900Y2137410D01*
X2506472Y2123694D01*
X2511043Y2114550D01*
X2520188Y2105405D01*
X2529077Y2100834D01*
X2547365Y2100834D01*
X2556509Y2105405D01*
X2565654Y2114550D01*
X2569972Y2123694D01*
X2569972Y2137410D01*
X2547365Y2137410D02*
G01*
X2569972Y2137410D01*
X2600197Y2196337D02*
G01*
X2600197Y2100834D01*
X2600197Y2196337D02*
G01*
X2663697Y2100834D01*
X2663697Y2196337D02*
G01*
X2663697Y2100834D01*
X2693670Y2196337D02*
G01*
X2693670Y2100834D01*
X2693670Y2196337D02*
G01*
X2725420Y2196337D01*
X2739136Y2191765D01*
X2748279Y2182876D01*
X2752852Y2173731D01*
X2757424Y2160015D01*
X2757424Y2137410D01*
X2752852Y2123694D01*
X2748279Y2114550D01*
X2739136Y2105405D01*
X2725420Y2100834D01*
X2693670Y2100834D01*
X2501900Y1929637D02*
G01*
X2501900Y1834134D01*
X2501900Y1929637D02*
G01*
X2538222Y1834134D01*
X2574543Y1929637D02*
G01*
X2538222Y1834134D01*
X2574543Y1929637D02*
G01*
X2574543Y1834134D01*
X2631947Y1929637D02*
G01*
X2622804Y1925065D01*
X2613659Y1916176D01*
X2609088Y1907031D01*
X2604515Y1893315D01*
X2604515Y1870710D01*
X2609088Y1856994D01*
X2613659Y1847850D01*
X2622804Y1838705D01*
X2631947Y1834134D01*
X2649981Y1834134D01*
X2659125Y1838705D01*
X2668270Y1847850D01*
X2672841Y1856994D01*
X2677413Y1870710D01*
X2677413Y1893315D01*
X2672841Y1907031D01*
X2668270Y1916176D01*
X2659125Y1925065D01*
X2649981Y1929637D01*
X2631947Y1929637D01*
X2770886Y1916176D02*
G01*
X2761995Y1925065D01*
X2748279Y1929637D01*
X2729991Y1929637D01*
X2716529Y1925065D01*
X2707386Y1916176D01*
X2707386Y1907031D01*
X2711958Y1897887D01*
X2716529Y1893315D01*
X2725420Y1888744D01*
X2752852Y1879600D01*
X2761995Y1875281D01*
X2766568Y1870710D01*
X2770886Y1861565D01*
X2770886Y1847850D01*
X2761995Y1838705D01*
X2748279Y1834134D01*
X2729991Y1834134D01*
X2716529Y1838705D01*
X2707386Y1847850D01*
X2569972Y1653031D02*
G01*
X2565654Y1662176D01*
X2556509Y1671065D01*
X2547365Y1675637D01*
X2529077Y1675637D01*
X2520188Y1671065D01*
X2511043Y1662176D01*
X2506472Y1653031D01*
X2501900Y1639315D01*
X2501900Y1616710D01*
X2506472Y1602994D01*
X2511043Y1593850D01*
X2520188Y1584705D01*
X2529077Y1580134D01*
X2547365Y1580134D01*
X2556509Y1584705D01*
X2565654Y1593850D01*
X2569972Y1602994D01*
X2600197Y1675637D02*
G01*
X2600197Y1580134D01*
X2600197Y1580134D02*
G01*
X2654554Y1580134D01*
X2684525Y1675637D02*
G01*
X2684525Y1580134D01*
X2748279Y1675637D02*
G01*
X2684525Y1612137D01*
X2707386Y1634744D02*
G01*
X2748279Y1580134D01*
X2527300Y1421637D02*
G01*
X2527300Y1326134D01*
X2527300Y1421637D02*
G01*
X2563622Y1326134D01*
X2599943Y1421637D02*
G01*
X2563622Y1326134D01*
X2599943Y1421637D02*
G01*
X2599943Y1326134D01*
X2629915Y1421637D02*
G01*
X2629915Y1326134D01*
X2723641Y1408176D02*
G01*
X2714497Y1417065D01*
X2701036Y1421637D01*
X2682747Y1421637D01*
X2669031Y1417065D01*
X2660141Y1408176D01*
X2660141Y1399031D01*
X2664459Y1389887D01*
X2669031Y1385315D01*
X2678175Y1380744D01*
X2705608Y1371600D01*
X2714497Y1367281D01*
X2719070Y1362710D01*
X2723641Y1353565D01*
X2723641Y1339850D01*
X2714497Y1330705D01*
X2701036Y1326134D01*
X2682747Y1326134D01*
X2669031Y1330705D01*
X2660141Y1339850D01*
X2608072Y1145031D02*
G01*
X2603754Y1154176D01*
X2594609Y1163065D01*
X2585465Y1167637D01*
X2567177Y1167637D01*
X2558288Y1163065D01*
X2549143Y1154176D01*
X2544572Y1145031D01*
X2540000Y1131315D01*
X2540000Y1108710D01*
X2544572Y1094994D01*
X2549143Y1085850D01*
X2558288Y1076705D01*
X2567177Y1072134D01*
X2585465Y1072134D01*
X2594609Y1076705D01*
X2603754Y1085850D01*
X2608072Y1094994D01*
X2701797Y1154176D02*
G01*
X2692654Y1163065D01*
X2679191Y1167637D01*
X2660904Y1167637D01*
X2647188Y1163065D01*
X2638297Y1154176D01*
X2638297Y1145031D01*
X2642615Y1135887D01*
X2647188Y1131315D01*
X2656331Y1126744D01*
X2683509Y1117600D01*
X2692654Y1113281D01*
X2697225Y1108710D01*
X2701797Y1099565D01*
X2701797Y1085850D01*
X2692654Y1076705D01*
X2679191Y1072134D01*
X2660904Y1072134D01*
X2647188Y1076705D01*
X2638297Y1085850D01*
X2514600Y900937D02*
G01*
X2514600Y805434D01*
X2514600Y900937D02*
G01*
X2555493Y900937D01*
X2569209Y896365D01*
X2573781Y891794D01*
X2578354Y882904D01*
X2578354Y873760D01*
X2573781Y864615D01*
X2569209Y860044D01*
X2555493Y855471D01*
X2514600Y855471D01*
X2546350Y855471D02*
G01*
X2578354Y805434D01*
X2671825Y887476D02*
G01*
X2662681Y896365D01*
X2649220Y900937D01*
X2630931Y900937D01*
X2617215Y896365D01*
X2608325Y887476D01*
X2608325Y878331D01*
X2612897Y869187D01*
X2617215Y864615D01*
X2626359Y860044D01*
X2653791Y850900D01*
X2662681Y846581D01*
X2667254Y842010D01*
X2671825Y832865D01*
X2671825Y819150D01*
X2662681Y810005D01*
X2649220Y805434D01*
X2630931Y805434D01*
X2617215Y810005D01*
X2608325Y819150D01*
X2733802Y900937D02*
G01*
X2733802Y805434D01*
X2701797Y900937D02*
G01*
X2765552Y900937D01*
X2501900Y659637D02*
G01*
X2501900Y564134D01*
X2501900Y659637D02*
G01*
X2538222Y564134D01*
X2574543Y659637D02*
G01*
X2538222Y564134D01*
X2574543Y659637D02*
G01*
X2574543Y564134D01*
X2631947Y659637D02*
G01*
X2622804Y655065D01*
X2613659Y646176D01*
X2609088Y637031D01*
X2604515Y623315D01*
X2604515Y600710D01*
X2609088Y586994D01*
X2613659Y577850D01*
X2622804Y568705D01*
X2631947Y564134D01*
X2649981Y564134D01*
X2659125Y568705D01*
X2668270Y577850D01*
X2672841Y586994D01*
X2677413Y600710D01*
X2677413Y623315D01*
X2672841Y637031D01*
X2668270Y646176D01*
X2659125Y655065D01*
X2649981Y659637D01*
X2631947Y659637D01*
X2739136Y659637D02*
G01*
X2739136Y564134D01*
X2707386Y659637D02*
G01*
X2770886Y659637D01*
X2514600Y418337D02*
G01*
X2550922Y322834D01*
X2587243Y418337D02*
G01*
X2550922Y322834D01*
X2617215Y418337D02*
G01*
X2617215Y322834D01*
X2617215Y418337D02*
G01*
X2658109Y418337D01*
X2671825Y413765D01*
X2676397Y409194D01*
X2680970Y400304D01*
X2680970Y391160D01*
X2676397Y382015D01*
X2671825Y377444D01*
X2658109Y372871D01*
X2617215Y372871D01*
X2649220Y372871D02*
G01*
X2680970Y322834D01*
X2710941Y418337D02*
G01*
X2710941Y322834D01*
X2710941Y418337D02*
G01*
X2770124Y418337D01*
X2710941Y372871D02*
G01*
X2747263Y372871D01*
X2710941Y322834D02*
G01*
X2770124Y322834D01*
D10*
X2236215Y1384300D02*
G01*
X2158238Y1384300D01*
X2142743Y1379220D01*
X2132329Y1368805D01*
X2127250Y1353057D01*
X2127250Y1342644D01*
X2132329Y1327150D01*
X2142743Y1316736D01*
X2158238Y1311655D01*
X2236215Y1311655D01*
X2236215Y1266952D02*
G01*
X2236215Y1209802D01*
X2194559Y1240789D01*
X2194559Y1225295D01*
X2189479Y1214881D01*
X2184400Y1209802D01*
X2168652Y1204468D01*
X2158238Y1204468D01*
X2142743Y1209802D01*
X2132329Y1220215D01*
X2127250Y1235710D01*
X2127250Y1251204D01*
X2132329Y1266952D01*
X2137409Y1272031D01*
X2147824Y1277365D01*
D11*
X1558544Y2437637D02*
G01*
X1608581Y2437637D01*
X1581150Y2401315D01*
X1594865Y2401315D01*
X1604010Y2396744D01*
X1608581Y2392171D01*
X1613154Y2378710D01*
X1613154Y2369565D01*
X1608581Y2355850D01*
X1599437Y2346705D01*
X1585721Y2342134D01*
X1572005Y2342134D01*
X1558544Y2346705D01*
X1553971Y2351278D01*
X1549400Y2360421D01*
X1643126Y2437637D02*
G01*
X1679447Y2342134D01*
X1715770Y2437637D02*
G01*
X1679447Y2342134D01*
X1754886Y2437637D02*
G01*
X1804923Y2437637D01*
X1777492Y2401315D01*
X1791207Y2401315D01*
X1800352Y2396744D01*
X1804923Y2392171D01*
X1809495Y2378710D01*
X1809495Y2369565D01*
X1804923Y2355850D01*
X1795779Y2346705D01*
X1782063Y2342134D01*
X1768602Y2342134D01*
X1754886Y2346705D01*
X1750313Y2351278D01*
X1745742Y2360421D01*
X1604771Y2173731D02*
G01*
X1600454Y2182876D01*
X1591310Y2191765D01*
X1582165Y2196337D01*
X1563878Y2196337D01*
X1554987Y2191765D01*
X1545844Y2182876D01*
X1541271Y2173731D01*
X1536700Y2160015D01*
X1536700Y2137410D01*
X1541271Y2123694D01*
X1545844Y2114550D01*
X1554987Y2105405D01*
X1563878Y2100834D01*
X1582165Y2100834D01*
X1591310Y2105405D01*
X1600454Y2114550D01*
X1604771Y2123694D01*
X1604771Y2137410D01*
X1582165Y2137410D02*
G01*
X1604771Y2137410D01*
X1634997Y2196337D02*
G01*
X1634997Y2100834D01*
X1634997Y2196337D02*
G01*
X1698497Y2100834D01*
X1698497Y2196337D02*
G01*
X1698497Y2100834D01*
X1728470Y2196337D02*
G01*
X1728470Y2100834D01*
X1728470Y2196337D02*
G01*
X1760220Y2196337D01*
X1773936Y2191765D01*
X1783079Y2182876D01*
X1787652Y2173731D01*
X1792223Y2160015D01*
X1792223Y2137410D01*
X1787652Y2123694D01*
X1783079Y2114550D01*
X1773936Y2105405D01*
X1760220Y2100834D01*
X1728470Y2100834D01*
X1536700Y1929637D02*
G01*
X1536700Y1834134D01*
X1536700Y1929637D02*
G01*
X1573021Y1834134D01*
X1609344Y1929637D02*
G01*
X1573021Y1834134D01*
X1609344Y1929637D02*
G01*
X1609344Y1834134D01*
X1666747Y1929637D02*
G01*
X1657604Y1925065D01*
X1648460Y1916176D01*
X1643887Y1907031D01*
X1639315Y1893315D01*
X1639315Y1870710D01*
X1643887Y1856994D01*
X1648460Y1847850D01*
X1657604Y1838705D01*
X1666747Y1834134D01*
X1684781Y1834134D01*
X1693926Y1838705D01*
X1703070Y1847850D01*
X1707642Y1856994D01*
X1712213Y1870710D01*
X1712213Y1893315D01*
X1707642Y1907031D01*
X1703070Y1916176D01*
X1693926Y1925065D01*
X1684781Y1929637D01*
X1666747Y1929637D01*
X1805686Y1916176D02*
G01*
X1796795Y1925065D01*
X1783079Y1929637D01*
X1764792Y1929637D01*
X1751329Y1925065D01*
X1742186Y1916176D01*
X1742186Y1907031D01*
X1746757Y1897887D01*
X1751329Y1893315D01*
X1760220Y1888744D01*
X1787652Y1879600D01*
X1796795Y1875281D01*
X1801368Y1870710D01*
X1805686Y1861565D01*
X1805686Y1847850D01*
X1796795Y1838705D01*
X1783079Y1834134D01*
X1764792Y1834134D01*
X1751329Y1838705D01*
X1742186Y1847850D01*
X1604771Y1653031D02*
G01*
X1600454Y1662176D01*
X1591310Y1671065D01*
X1582165Y1675637D01*
X1563878Y1675637D01*
X1554987Y1671065D01*
X1545844Y1662176D01*
X1541271Y1653031D01*
X1536700Y1639315D01*
X1536700Y1616710D01*
X1541271Y1602994D01*
X1545844Y1593850D01*
X1554987Y1584705D01*
X1563878Y1580134D01*
X1582165Y1580134D01*
X1591310Y1584705D01*
X1600454Y1593850D01*
X1604771Y1602994D01*
X1634997Y1675637D02*
G01*
X1634997Y1580134D01*
X1634997Y1580134D02*
G01*
X1689354Y1580134D01*
X1719326Y1675637D02*
G01*
X1719326Y1580134D01*
X1783079Y1675637D02*
G01*
X1719326Y1612137D01*
X1742186Y1634744D02*
G01*
X1783079Y1580134D01*
X1562100Y1421637D02*
G01*
X1562100Y1326134D01*
X1562100Y1421637D02*
G01*
X1598421Y1326134D01*
X1634744Y1421637D02*
G01*
X1598421Y1326134D01*
X1634744Y1421637D02*
G01*
X1634744Y1326134D01*
X1664715Y1421637D02*
G01*
X1664715Y1326134D01*
X1758442Y1408176D02*
G01*
X1749297Y1417065D01*
X1735836Y1421637D01*
X1717547Y1421637D01*
X1703831Y1417065D01*
X1694942Y1408176D01*
X1694942Y1399031D01*
X1699260Y1389887D01*
X1703831Y1385315D01*
X1712976Y1380744D01*
X1740407Y1371600D01*
X1749297Y1367281D01*
X1753870Y1362710D01*
X1758442Y1353565D01*
X1758442Y1339850D01*
X1749297Y1330705D01*
X1735836Y1326134D01*
X1717547Y1326134D01*
X1703831Y1330705D01*
X1694942Y1339850D01*
X1642871Y1145031D02*
G01*
X1638554Y1154176D01*
X1629410Y1163065D01*
X1620265Y1167637D01*
X1601978Y1167637D01*
X1593087Y1163065D01*
X1583944Y1154176D01*
X1579371Y1145031D01*
X1574800Y1131315D01*
X1574800Y1108710D01*
X1579371Y1094994D01*
X1583944Y1085850D01*
X1593087Y1076705D01*
X1601978Y1072134D01*
X1620265Y1072134D01*
X1629410Y1076705D01*
X1638554Y1085850D01*
X1642871Y1094994D01*
X1736597Y1154176D02*
G01*
X1727454Y1163065D01*
X1713992Y1167637D01*
X1695704Y1167637D01*
X1681987Y1163065D01*
X1673097Y1154176D01*
X1673097Y1145031D01*
X1677415Y1135887D01*
X1681987Y1131315D01*
X1691131Y1126744D01*
X1718310Y1117600D01*
X1727454Y1113281D01*
X1732026Y1108710D01*
X1736597Y1099565D01*
X1736597Y1085850D01*
X1727454Y1076705D01*
X1713992Y1072134D01*
X1695704Y1072134D01*
X1681987Y1076705D01*
X1673097Y1085850D01*
X1549400Y900937D02*
G01*
X1549400Y805434D01*
X1549400Y900937D02*
G01*
X1590294Y900937D01*
X1604010Y896365D01*
X1608581Y891794D01*
X1613154Y882904D01*
X1613154Y873760D01*
X1608581Y864615D01*
X1604010Y860044D01*
X1590294Y855471D01*
X1549400Y855471D01*
X1581150Y855471D02*
G01*
X1613154Y805434D01*
X1706626Y887476D02*
G01*
X1697481Y896365D01*
X1684020Y900937D01*
X1665731Y900937D01*
X1652015Y896365D01*
X1643126Y887476D01*
X1643126Y878331D01*
X1647697Y869187D01*
X1652015Y864615D01*
X1661160Y860044D01*
X1688592Y850900D01*
X1697481Y846581D01*
X1702054Y842010D01*
X1706626Y832865D01*
X1706626Y819150D01*
X1697481Y810005D01*
X1684020Y805434D01*
X1665731Y805434D01*
X1652015Y810005D01*
X1643126Y819150D01*
X1768602Y900937D02*
G01*
X1768602Y805434D01*
X1736597Y900937D02*
G01*
X1800352Y900937D01*
X1536700Y659637D02*
G01*
X1536700Y564134D01*
X1536700Y659637D02*
G01*
X1573021Y564134D01*
X1609344Y659637D02*
G01*
X1573021Y564134D01*
X1609344Y659637D02*
G01*
X1609344Y564134D01*
X1666747Y659637D02*
G01*
X1657604Y655065D01*
X1648460Y646176D01*
X1643887Y637031D01*
X1639315Y623315D01*
X1639315Y600710D01*
X1643887Y586994D01*
X1648460Y577850D01*
X1657604Y568705D01*
X1666747Y564134D01*
X1684781Y564134D01*
X1693926Y568705D01*
X1703070Y577850D01*
X1707642Y586994D01*
X1712213Y600710D01*
X1712213Y623315D01*
X1707642Y637031D01*
X1703070Y646176D01*
X1693926Y655065D01*
X1684781Y659637D01*
X1666747Y659637D01*
X1773936Y659637D02*
G01*
X1773936Y564134D01*
X1742186Y659637D02*
G01*
X1805686Y659637D01*
X1549400Y418337D02*
G01*
X1585721Y322834D01*
X1622044Y418337D02*
G01*
X1585721Y322834D01*
X1652015Y418337D02*
G01*
X1652015Y322834D01*
X1652015Y418337D02*
G01*
X1692910Y418337D01*
X1706626Y413765D01*
X1711197Y409194D01*
X1715770Y400304D01*
X1715770Y391160D01*
X1711197Y382015D01*
X1706626Y377444D01*
X1692910Y372871D01*
X1652015Y372871D01*
X1684020Y372871D02*
G01*
X1715770Y322834D01*
X1745742Y418337D02*
G01*
X1745742Y322834D01*
X1745742Y418337D02*
G01*
X1804923Y418337D01*
X1745742Y372871D02*
G01*
X1782063Y372871D01*
X1745742Y322834D02*
G01*
X1804923Y322834D01*
D10*
X5778500Y-2566415D02*
G01*
X5778500Y-2457450D01*
X5778500Y-2566415D02*
G01*
X5742177Y-2566415D01*
X5726429Y-2561336D01*
X5716270Y-2550921D01*
X5710936Y-2540507D01*
X5705856Y-2524760D01*
X5705856Y-2498852D01*
X5710936Y-2483357D01*
X5716270Y-2472944D01*
X5726429Y-2462529D01*
X5742177Y-2457450D01*
X5778500Y-2457450D01*
X5671565Y-2545587D02*
G01*
X5661152Y-2550921D01*
X5645404Y-2566415D01*
X5645404Y-2457450D01*
D13*
X6057900Y5207000D02*
G01*
X6057900Y4953000D01*
X6057900Y4953000D02*
G01*
X6057900Y3175000D01*
X6057900Y3175000D02*
G01*
X5803900Y3175000D01*
X5803900Y3175000D02*
G01*
X5803900Y4953000D01*
X5803900Y4953000D02*
G01*
X5803900Y5207000D01*
X5803900Y5207000D02*
G01*
X6057900Y5207000D01*
X5803900Y4953000D02*
G01*
X6057900Y4953000D01*
X7454900Y5257800D02*
G01*
X7454900Y3124200D01*
X5803900Y3124200D01*
X5803900Y5257800D01*
X7454900Y5257800D01*
X5994400Y2667000D02*
G01*
X7264400Y2667000D01*
X7264400Y2146300D01*
X5994400Y2146300D01*
X5994400Y2667000D01*
X9448545Y-888794D02*
G01*
X9449079Y-634006D01*
X9435845Y-368094D02*
G01*
X9436379Y-113306D01*
X3036493Y4626990D02*
G01*
X2972993Y4690490D01*
X2972993Y4690490D02*
G01*
X2972993Y4817490D01*
X2972993Y4817490D02*
G01*
X3036493Y4880990D01*
X3163493Y4880990D02*
G01*
X3226993Y4817490D01*
X3226993Y4817490D02*
G01*
X3226993Y4690490D01*
X3226993Y4690490D02*
G01*
X3163493Y4626990D01*
X2972993Y4182490D02*
G01*
X2972993Y4309490D01*
X2972993Y4309490D02*
G01*
X3036493Y4372990D01*
X3163493Y4372990D02*
G01*
X3226993Y4309490D01*
X3036493Y4372990D02*
G01*
X2972993Y4436490D01*
X2972993Y4436490D02*
G01*
X2972993Y4563490D01*
X2972993Y4563490D02*
G01*
X3036493Y4626990D01*
X3163493Y4626990D02*
G01*
X3226993Y4563490D01*
X3226993Y4563490D02*
G01*
X3226993Y4436490D01*
X3226993Y4436490D02*
G01*
X3163493Y4372990D01*
X3036493Y4118990D02*
G01*
X3163493Y4118990D01*
X2972993Y4182490D02*
G01*
X3036493Y4118990D01*
X3163493Y4118990D02*
G01*
X3226993Y4182490D01*
X3226993Y4309490D02*
G01*
X3226993Y4182490D01*
X3036493Y4880990D02*
G01*
X3163493Y4880990D01*
X8436483Y4626990D02*
G01*
X8372983Y4690490D01*
X8372983Y4690490D02*
G01*
X8372983Y4817490D01*
X8372983Y4817490D02*
G01*
X8436483Y4880990D01*
X8563483Y4880990D02*
G01*
X8626983Y4817490D01*
X8626983Y4817490D02*
G01*
X8626983Y4690490D01*
X8626983Y4690490D02*
G01*
X8563483Y4626990D01*
X8372983Y4182490D02*
G01*
X8372983Y4309490D01*
X8372983Y4309490D02*
G01*
X8436483Y4372990D01*
X8563483Y4372990D02*
G01*
X8626983Y4309490D01*
X8436483Y4372990D02*
G01*
X8372983Y4436490D01*
X8372983Y4436490D02*
G01*
X8372983Y4563490D01*
X8372983Y4563490D02*
G01*
X8436483Y4626990D01*
X8563483Y4626990D02*
G01*
X8626983Y4563490D01*
X8626983Y4563490D02*
G01*
X8626983Y4436490D01*
X8626983Y4436490D02*
G01*
X8563483Y4372990D01*
X8436483Y4118990D02*
G01*
X8563483Y4118990D01*
X8372983Y4182490D02*
G01*
X8436483Y4118990D01*
X8563483Y4118990D02*
G01*
X8626983Y4182490D01*
X8626983Y4309490D02*
G01*
X8626983Y4182490D01*
X8436483Y4880990D02*
G01*
X8563483Y4880990D01*
X8436483Y-2372995D02*
G01*
X8372983Y-2309495D01*
X8372983Y-2309495D02*
G01*
X8372983Y-2182495D01*
X8372983Y-2182495D02*
G01*
X8436483Y-2118995D01*
X8563483Y-2118995D02*
G01*
X8626983Y-2182495D01*
X8626983Y-2182495D02*
G01*
X8626983Y-2309495D01*
X8626983Y-2309495D02*
G01*
X8563483Y-2372995D01*
X8372983Y-2817495D02*
G01*
X8372983Y-2690495D01*
X8372983Y-2690495D02*
G01*
X8436483Y-2626995D01*
X8563483Y-2626995D02*
G01*
X8626983Y-2690495D01*
X8436483Y-2626995D02*
G01*
X8372983Y-2563495D01*
X8372983Y-2563495D02*
G01*
X8372983Y-2436495D01*
X8372983Y-2436495D02*
G01*
X8436483Y-2372995D01*
X8563483Y-2372995D02*
G01*
X8626983Y-2436495D01*
X8626983Y-2436495D02*
G01*
X8626983Y-2563495D01*
X8626983Y-2563495D02*
G01*
X8563483Y-2626995D01*
X8436483Y-2880995D02*
G01*
X8563483Y-2880995D01*
X8372983Y-2817495D02*
G01*
X8436483Y-2880995D01*
X8563483Y-2880995D02*
G01*
X8626983Y-2817495D01*
X8626983Y-2690495D02*
G01*
X8626983Y-2817495D01*
X8436483Y-2118995D02*
G01*
X8563483Y-2118995D01*
X3036493Y-2372995D02*
G01*
X2972993Y-2309495D01*
X2972993Y-2309495D02*
G01*
X2972993Y-2182495D01*
X2972993Y-2182495D02*
G01*
X3036493Y-2118995D01*
X3163493Y-2118995D02*
G01*
X3226993Y-2182495D01*
X3226993Y-2182495D02*
G01*
X3226993Y-2309495D01*
X3226993Y-2309495D02*
G01*
X3163493Y-2372995D01*
X2972993Y-2817495D02*
G01*
X2972993Y-2690495D01*
X2972993Y-2690495D02*
G01*
X3036493Y-2626995D01*
X3163493Y-2626995D02*
G01*
X3226993Y-2690495D01*
X3036493Y-2626995D02*
G01*
X2972993Y-2563495D01*
X2972993Y-2563495D02*
G01*
X2972993Y-2436495D01*
X2972993Y-2436495D02*
G01*
X3036493Y-2372995D01*
X3163493Y-2372995D02*
G01*
X3226993Y-2436495D01*
X3226993Y-2436495D02*
G01*
X3226993Y-2563495D01*
X3226993Y-2563495D02*
G01*
X3163493Y-2626995D01*
X3036493Y-2880995D02*
G01*
X3163493Y-2880995D01*
X2972993Y-2817495D02*
G01*
X3036493Y-2880995D01*
X3163493Y-2880995D02*
G01*
X3226993Y-2817495D01*
X3226993Y-2690495D02*
G01*
X3226993Y-2817495D01*
X3036493Y-2118995D02*
G01*
X3163493Y-2118995D01*
X3886200Y-3378200D02*
G01*
X3886200Y-2108200D01*
X4406900Y-2108200D01*
X4406900Y-3378200D01*
X3886200Y-3378200D01*
X6464300Y-2095500D02*
G01*
X7734300Y-2095500D01*
X7734300Y-2616200D01*
X6464300Y-2616200D01*
X6464300Y-2095500D01*
X3314700Y-3378200D02*
G01*
X3314700Y-2108200D01*
X3835400Y-2108200D01*
X3835400Y-3378200D01*
X3314700Y-3378200D01*
X6464300Y-2679700D02*
G01*
X7734300Y-2679700D01*
X7734300Y-3200400D01*
X6464300Y-3200400D01*
X6464300Y-2679700D01*
X8826500Y800100D02*
G01*
X9080500Y800100D01*
X9080500Y317500D01*
X8826500Y317500D01*
X8826500Y800100D01*
X1964994Y3272993D02*
G01*
X1964994Y3526993D01*
X2726994Y3526993D01*
X2726994Y3272993D01*
X1964994Y3272993D01*
X5308600Y4483100D02*
G01*
X5054600Y4483100D01*
X5054600Y5245100D01*
X5308600Y5245100D01*
X5308600Y4483100D01*
X8864981Y3272993D02*
G01*
X8864981Y3526993D01*
X9626981Y3526993D01*
X9626981Y3272993D01*
X8864981Y3272993D01*
X8864981Y-1626996D02*
G01*
X8864981Y-1372996D01*
X9626981Y-1372996D01*
X9626981Y-1626996D01*
X8864981Y-1626996D01*
X1964994Y-1626996D02*
G01*
X1964994Y-1372996D01*
X2726994Y-1372996D01*
X2726994Y-1626996D01*
X1964994Y-1626996D01*
X1387195Y5346192D02*
G01*
X2936595Y5346192D01*
X2936595Y3606292D01*
X1387195Y3606292D01*
X1387195Y5346192D01*
X1387195Y-1653794D02*
G01*
X2936595Y-1653794D01*
X2936595Y-3393694D01*
X1387195Y-3393694D01*
X1387195Y-1653794D01*
X8687181Y5346192D02*
G01*
X10236581Y5346192D01*
X10236581Y3606292D01*
X8687181Y3606292D01*
X8687181Y5346192D01*
X8687181Y-1653794D02*
G01*
X10236581Y-1653794D01*
X10236581Y-3393694D01*
X8687181Y-3393694D01*
X8687181Y-1653794D01*
X8890000Y2832100D02*
G01*
X10439400Y2832100D01*
X10439400Y965200D01*
X8890000Y965200D01*
X8890000Y2832100D01*
D14*
X8599909Y1026797D02*
G01*
X7579890Y1026797D01*
X7721600Y636803D02*
G01*
X7579890Y636803D01*
X7579890Y1076807D01*
X8599909Y1076807D01*
X8599909Y636803D01*
X8458200Y636803D01*
D13*
X9907600Y-890871D02*
G01*
X10109200Y-890871D01*
X10007935Y-520700D02*
G01*
X10007935Y-423415D01*
X10006665Y-944100D02*
G01*
X10006665Y-1049792D01*
X9907600Y-944100D02*
G01*
X10109200Y-944100D01*
X10109200Y-520700D01*
X9907600Y-520700D01*
X9907600Y-529099D02*
G01*
X9907600Y-944100D01*
X6223000Y1536700D02*
G01*
X6223000Y1841500D01*
X7086600Y1841500D01*
X7086600Y1536700D01*
X6223000Y1536700D01*
D15*
X9779000Y508000D02*
G01*
X10033000Y508000D01*
D13*
X9765995Y170992D02*
G01*
X9765995Y590981D01*
X10046004Y590981D01*
X10046004Y170992D01*
X9765995Y170992D01*
X3898900Y1625600D02*
G01*
X4914900Y1625600D01*
X4914900Y609600D01*
X3898900Y609600D01*
X3898900Y1625600D01*
X4279900Y-25400D02*
G01*
X4533900Y-25400D01*
X4533900Y-406400D01*
X4279900Y-406400D01*
X4279900Y-25400D01*
X3898900Y-914400D02*
G01*
X4914900Y-914400D01*
X4914900Y-2057400D01*
X3898900Y-2057400D01*
X3898900Y-914400D01*
X4025900Y4038600D02*
G01*
X4787900Y4038600D01*
X4787900Y3657600D01*
X4025900Y3657600D01*
X4025900Y4038600D01*
X3517900Y4038600D02*
G01*
X5295900Y4038600D01*
X5295900Y-2057400D01*
X3517900Y-2057400D01*
X3517900Y4038600D01*
D11*
X5727700Y1193800D02*
G01*
X5727700Y793750D01*
X5727700Y-1346200D01*
X5727700Y1193800D02*
G01*
X6510020Y1193800D01*
X6997700Y1193800D01*
X5727700Y-1346200D02*
G01*
X6510020Y-1346200D01*
X6997700Y-1346200D01*
X6997700Y1193800D02*
G01*
X6997700Y793750D01*
X6997700Y-1346200D01*
D13*
X8801100Y-1979193D02*
G01*
X7021093Y-1979193D01*
X7021093Y50800D01*
X8801100Y50800D01*
X8801100Y-1979193D01*
X2806700Y-1117600D02*
G01*
X2461717Y-1117600D01*
X2461717Y-1222603D01*
X2803702Y-1222603D01*
X2806700Y-1222603D01*
X2806700Y-1117600D01*
X2806852Y-611428D02*
G01*
X2461869Y-611428D01*
X2461869Y-716432D01*
X2803855Y-716432D01*
X2806852Y-716432D01*
X2806852Y-611428D01*
X2731973Y-616280D02*
G01*
X2656992Y-691261D01*
X2653969Y-691261D01*
D16*
X2732770Y-524779D02*
G01*
X2732770Y-558800D01*
X2527300Y-558800D01*
X2527300Y-524779D01*
D10*
X2936519Y-524779D02*
G01*
X2936519Y-1304018D01*
X2321280Y-1304018D01*
X2321280Y-524779D01*
X2936519Y-524779D01*
D13*
X2731820Y-1125448D02*
G01*
X2731820Y-1212443D01*
X2653995Y-1123365D02*
G01*
X2653995Y-1210360D01*
X2731820Y-1122451D02*
G01*
X2656840Y-1197432D01*
X2653817Y-1197432D01*
X2653817Y-1143431D02*
G01*
X2680817Y-1116431D01*
X2731820Y-1182446D02*
G01*
X2707817Y-1206449D01*
X2707817Y-1209446D01*
X2536825Y-1125448D02*
G01*
X2536825Y-1212443D01*
X2806700Y-863600D02*
G01*
X2461717Y-863600D01*
X2461717Y-968603D01*
X2803702Y-968603D01*
X2806700Y-968603D01*
X2806700Y-863600D01*
X2731820Y-871448D02*
G01*
X2731820Y-958443D01*
X2653995Y-869365D02*
G01*
X2653995Y-956360D01*
X2731820Y-868451D02*
G01*
X2656840Y-943432D01*
X2653817Y-943432D01*
X2653817Y-889431D02*
G01*
X2680817Y-862431D01*
X2731820Y-928446D02*
G01*
X2707817Y-952449D01*
X2707817Y-955446D01*
X2536825Y-871448D02*
G01*
X2536825Y-958443D01*
X2731973Y-619277D02*
G01*
X2731973Y-706272D01*
X2654147Y-617194D02*
G01*
X2654147Y-704189D01*
X2653969Y-637260D02*
G01*
X2680970Y-610260D01*
X2731973Y-676275D02*
G01*
X2707970Y-700278D01*
X2707970Y-703275D01*
X2536977Y-619277D02*
G01*
X2536977Y-706272D01*
D12*
X3051403Y3077794D02*
G01*
X3051403Y-322198D01*
X2251405Y-322198D01*
X2251405Y3077794D01*
X3051403Y3077794D01*
X2086203Y3077794D02*
G01*
X2086203Y-322198D01*
X1286205Y-322198D01*
X1286205Y3077794D01*
X2086203Y3077794D01*
D13*
X6286500Y-3416300D02*
G01*
X4508500Y-3416300D01*
X4508500Y-2136775D01*
X6286500Y-2136775D01*
X6286500Y-3416300D01*
G75*
G01*
X9448546Y-635254D02*
G03*
X9448546Y-888746I-190246J-126746D01*
G75*
G01*
X9435846Y-114554D02*
G03*
X9435846Y-368046I-190246J-126746D01*
D17*
G75*
G01*
X7581900Y584200D02*
G03*
X7590079Y581152I0J-12497D01*
D18*
G75*
G01
X2255901Y-476783D02*
G03X2255901Y-476783I-8001J0D01*
M02*
